<mxfile host="app.diagrams.net" agent="Mozilla/5.0 (Windows NT 10.0; Win64; x64) AppleWebKit/537.36 (KHTML, like Gecko) Chrome/134.0.0.0 Safari/537.36" version="26.1.3">
  <diagram name="Page-1" id="y07Po3MMvpaLsMFS6sJI">
    <mxGraphModel dx="2600" dy="948" grid="1" gridSize="10" guides="1" tooltips="1" connect="1" arrows="1" fold="1" page="1" pageScale="1" pageWidth="850" pageHeight="1100" math="0" shadow="0">
      <root>
        <mxCell id="0" />
        <mxCell id="1" parent="0" />
        <mxCell id="c_eapogjKyy9JJyIviL_-1" value="" style="shape=image;verticalLabelPosition=bottom;labelBackgroundColor=default;verticalAlign=top;aspect=fixed;imageAspect=0;image=data:image/png,iVBORw0KGgoAAAANSUhEUgAAA8UAAANACAYAAAACT88HAAAAAXNSR0IArs4c6QAAAARnQU1BAACxjwv8YQUAAAAJcEhZcwAAEnQAABJ0Ad5mH3gAAP+lSURBVHhe7L0HgCTZVaZ7yvtq732P96ORNHIjj5Dwwi5OCITJ3WWBfbDi7QJrWMOyDAizsFD4FVYSXhJ68m5kZjQa32O6p7031VWV5f07/7n3Rt6MiszKLNNdVfl/3aeujciIrIpzzx83TN2sIoSsYfgnTgghhJDVTF1dnc8RQpYDimKy6uGfMCGEEEJqGYpmQhYHRTFZdfBPlhBCCCGkNBTJhFQHRTFZ0fDPkxBCCCFk8VAoE1IaimKy4uCfJCGEEELI8kGBTEgxFMXkurNS/wR5aBBCCCFkKVmpYpQimdQ6FMXkmrOS/uT4508IIYSQlcBKEqYUyaTWoCgmy871+hPjnzYhhBBC1hLXS6xSJJO1DkUxWRau9Z/VSvkz5uFECCGE1AYrRShe6+2gQCZrEYpisqQs55/Tcv+p8lAghBBCyLVkuQXmcq6f4pisJSiKyZKwXH9GS7Fe/okTQgghZDWzFAJ0uUQsxTFZC1AUk0WxHH8+C13nUm0LDwlCCCGELCdLJSQXup7lELIUx2Q1Q1FMFsRS/9ksZH3XahlCCCGEkGvNQkTmtVqmHBTHZDVCUUyqYqn+XJZT0C52G3lIEEIIIWQ5WaxwrHT56ymSKY7JaoKimFTEUvyZVLuOSvsvdb9KWMp1EUIIIWTtsJRicKnFb7XbthT7spTfByHLBUUxKcti/zyqWb6SvvP1WerPq4SlWg8hhBBCVidLJfyqWc98fStZ11J+3nwsdnlClhOKYpLJYv8sqlm+XN9K1lOqz1Jtw2JZznUTQgghZPlZTkG3FMK0knWU67MU21Api12ekOWAopgUsdg/h0qWn69PufaFtoGl2LaFslzrJYQQQsjyslwirpL1ztenXPtC28BSbNt8LHZ5QpYSimKSsJg/hfmWXWh7ueWWcpmYSvpUw1KvjxBCCCHXlqUWcIsVnaXalnoZsNj2cixmWUKWEopisijRNt+y5dpLtWXVL0XfwGLbq2Ep10UIIYSQ68dSCrjlEKKlllls30C5NjBfezkWsywhSwFFcY2z0F//fMuVaq+mfqnrQKn6wHztMdX0JYQQQsjapxpxt1CRmVW/1HWg2vrAfO2lWOhyhCwFFMU1ykJ/7eWWq7atkrql6hMoVQ8W2kYIIYQQUopyYm8hbVn16bql6gOy6gILbSvHQpcjZDFQFNcgC/mVz7dMqfZ0fVa/+fpUWwaV1oFq66thKdZBCCGEkOvPUoi1Uuuopr6SusWWQSV9QKn6wHztWSxkGUIWA0VxDbGQX/V8y2S1V1JXrryUfUGldaBUPSjXRgghhBCSppy4q0ZkVlIXl8u1gYX2DVRaFzNfexYLWYaQhUBRXCMs5NdcrUCcry7dXq5cSR5U2haotA6Uqi/HQpYhhBBCyOpjKUVeVn0ldXG50rZKlwHl+oJK6wLl2kqxkGUIqRaK4jXOUgu7rLZ0XblypW2LyYNqyyCrDpSqr4TFLEsIIYSQlcNixFmpZbPq03XVlJcqDyptA+kyyKoLlGsrxUKWIaRSKIrXMAv51ZZbJqstrku3l2pbaH6hywXSZVBJn0C5toWyHOskhBBCSPUsh+iqRhhm9S3Xp5r8QpcDpfKgXBvIqguUayvFQpYhpBIoitco1f5ay/XPaovr0u2l2kJ+OdrnWyZQbTmmXNtCWOr1EUIIIWRxLLXoqkYUVlPOyldaB5aqPVCuDWTVBcq1ZVFtf0IqgaJ4DVLtr7RU/6z6dF1czsovpH2xbaBUHlTalqZcWykWsgwhhBBCVh4LEWPViMG4XGlbyJerW2gbWEh7IF0GWXWgVH0pqu1PyHxQFK8xqvl1luqbVZ+ui8tZ+WrrSqVgIX1AtXmQLgdK1WdRTV9CCCGErD6qEWWVCsG4XE2+XN1C+pTrC8rVgTgP0mWQVQdK1WdRTV9C5oOieA2xFMItXV+uPF9+vhTEdfO1V5OCrHxcB0r1jylVD8q1VcNSrYcQQggh1bFU4qrceioRgek+oVyqT7q90hTEdfO1l0tBJXkwXzlQqj6LavoSUg6K4jVAtb/CUv3T9XG5mvxi0pAHlfRLp6CSNlAqH8iqA6Xqs6imLyGEEEJWLksh1rLq47r58ukUZLVl1cUpqKRfpSmoNg/S5UCp+lJU25+QNBTFq5ylEGjp+nLlkC9XVy5dqj4hLdUGKmkDpfIx1danqbQfIYQQQlYWlQquagVeXD9fPp2CrLasulLpUvWJU1CuLjBfOVCqPotq+hKShqJ4FVPNr65U33R9XJ4vX026kLqs9pCWayuXgnJ1gXQZZNWBUvWEEEIIqQ2qEXXpurgc8uXqKkkrbZuvPaRZdZWkoJI8SJcDpeqzqKYvITEUxauUan5tWX3nq8vKLyQtlQ9pOl+qLaSV1sUpiOvuu+8+yxNCCCGErEQee+yxRODFQi9dF6cLqcsqh3xI52uvJgWl8oFK60pRTV9CAhTFq5BqfmVZfdN15cohXy6dry1dLpWfrxzyIc2qu/feey1PCCGEELKWeeKJJxIBGKfz1VVSLpWPy+m0XFucgjgP5iuDrLpSVNOXEEBRvMqo5teV1TddF5ez8um6dH0ldbHFdXG+VF1cDvm7777b8oQQQgghZC5PPfVUIgyRpvNZ5XRdnM+qC/mQlqsD6XZQKg/SZZBVV4pq+hJCUbyKqOZXldU3XReXs/JZ6Xx16fxi60KZQpgQQgghpHqyBHJWeaF1WfmQZtXFKSiVB+kyyKorRTV9SW1DUbxKqObXlO5baTmuj+vS7aEuXY7zWeXYSrXF9RTChBBCCCFLRxDIQSyGfGyl6mHptrgc5+NySNN1IKsOVFsuRzV9Se1CUbwKqOZXlO5brpyVL5em81nlUnWxlWunECaEEEIIWX5igZw2kFUfLKs9XReXQ75cCkrlwXzlclTTl9QmFMUrnGp+Pem+5cpZ+ay0XD62UvVZlu571113Wd215sEHH/Q5QgghhJDrz7vf/W6fu7Y8/fTTJhyDgbhczkr1jeuz8lkpKJUH85XLUU1fUntQFK9gqvnVpPuWK4d8ui5dn64rVc6yrD4zMzNJfrmFMAUvIYQQQtYiyy2cY4FcX1+f5IOBdF3a0n3icsiHNORBuh3EeTBfuRzV9CW1BUXxCqbSX026X7lyyJdLy+VjK1WfZUEQL5UYpuhdm+T++phIfaPI0EXpedfLfS0hhJCVSO4vXhAZH1R//TJfQ1YCSyWagzjOEsalDMxXn5Uvl4I4D+Yrl6LSfqT2oCheoVT6a0n3K1WO69N1cZrOZ5UXYnfeeaetZzFQCK9tcu87IdLUJtLQon9w0yL9p6TnB1/iWwkhhKwkch84LTKWF5meNOv5YZ7IXIkshUB+5plnTEwuxkCpcshnpSCrDsxXLkWl/UhtQVG8Aqn0V5LuV6oc16fr4jRYulyqLlh8WXTaKIZJJeTed9IL4ma1RrUmDbKmRHqPSs87+fA1QghZSeT+/rLNEMvUhMiMiuKZaQrjFc5yi+Nys8lgvrpQzkpBVh2Yr1yKSvuR2oGieIVR6a8j3a9UOa6P69LtoS6rXKmlxfFiLpWmEK4dTBA3tzshXK8GUVzX4C6jntaA68oR6XnHHb43IYSQ60nun/pFJkacf54aU0E8o0GDimIvjGViSHr+1Rt9b7ISWYxATj+Qq5pLq2MDWeWQputAVh2Yr1yKSvuR2oCieAVR6a8i3a9UOa6P68rls8qlLGuGGHULFcMUwrVHkSA2UaxCGGaiWK2u3gVel56Xnu+/zS9FCCHkepD78LCK3lEnfqfHVQhPOTFspnmIY1zlMzkiPf/y9X4pspJZqECGOM4SxJWKZFCqnJUPZNWB+cqlqLQfWftQFK8QKv01pPuVKsf1cV25/EIsFsYLuVSaQrh2yb0fl0ynZojTgjikUxp8XXxWer7vFr80IYSQa0nuIxMqdlUQ43JpXDY9O1MQxTh5aWXNB2E8NSo9udf5pclqYCECOb6keqGzxsFAuXwgqw7MVy5Fpf3I2oaieAVQ6a8g3a9UOa6P68rlK7WlmB2mECa595/y9xBHgjiI4UQYqxiGIA6Gy/QuHJKe773Jr4UQQsi1IPdRFbo4OekfqmXCN4hgCOJkpjgSxijrMj0/9oBfC1lNVCOQFztrHBsolw9k1YH5yqWotB9Zu1AUrwAq+RWk+5Qqx/VxXbn8fJYWwouZHaYgJqUFMWaK/cxwSItMB6xJCOOnped7bvRrI4QQspzkPq6+F4IYIneOIPZlE8VeCM8RxhMqjF/j10ZWE9XOHJebNa5GIINy+UBWHZivnEUlfcjahqL4OlPJ15/VJ64L+VJ15fLlrJwY5uwwWQhFgjjcQ1znxXAshG2WOBbGOlghFU2nRkXOqzD+7oNupYQQQpaF3CfUP9tMcBDEKniDFV0yjVT7UBivSRYza7xQcQzK5QPl6mKy6tJU0oesXSiKryOVfPVZfeK6rHyclsuXsvnEMGeHyULIFMTpe4hNEMdiGKaDFFII4lDGfW3nnlRhfMCtnBBCyJKS+1SLE8ImdiNBrHGAew0TykEQlxDGJop9vV1KTWG8WlnIrPFixTEol49TUCofyKpLU0kfsjahKL6OVPLVp/vE5ax8nJbLZ9l8YviOO6p7LQ7FMAnk3n9aBXGrF8TNXhBD/MaCGPkghIPp4BRSCWXk1UwYPyE9/2K/fQYhhJClIffpNi9wvQVBDMNDtEI+zAYneaRYhsJ4rVKtOD506NCixDEol49TUCoP0uUsKulD1iYUxdeJSr72dJ+4nJWP03L5LEsL4HS+GkFMMUxiCoJYxXAyQxwL4iwx7AVwMjvsy0mdTydHRM5CGO/DRxFCCFkkuc92emGrFgSwaByB1C6h9vnEvOgtSrF8LIzVQnl6Qnp+9NXuw8iqpRpxDGEMsVlKHFMYk5WARprkWgOROR/pPqWWCfVxWi6fZRTEZLnIfQCCGJdML0QQR3kzzYe6kDZr8Lb7PhXeJ/FxhBBCFkHuc90IGApmPthbUvb+OLHgx+PU+/pwiwz6hbKOB7k/+KL/RLJaqSbeQxxZKsZM57MMlMvHaZp0fal+MZX0IWsPzhRfB+b7ytPtpcrl0mDpctqynFKcVnr/MMUwSWOCuDF9DzGCIwRGIQ1BVWxBAMdiOJ3HJ/g6pJPDImcek57v2osGQgghVZL7/HoNGDCbq4YZYsEMr8YRMLunGHk/62uWLmPZdArzs8Yoox9njNcclc4ax/cZp9N0PstAVrlcGpivnGa+drL2QIRJriEQm+VYaHuoRxosXU4bBTFZLnIfOLMMglgNWBLKPrUZ45e5S7UJWYF8w7v/zOcIWXnkHtroMggdIFyD/zU/i3Lkn0ta8OtxCov8P/qFOs4YrxkqjQMRV2bFm0jT+SwDWeUsStUHFttO1h6cKb6GVPJVp/vE5aw80nL5UpblhOK0EkFMMUyycII4PFRrKQVxuVQT/JjAjPGj0vOde1BByIohiOIPP/gOSwlZKeS+sAlBg9q0nyFGHjO9mto9wYgrfDnUW5rOB8NMcDr1s8OcMV7zVDJrvNgZYxgolw+UyoN0OYtK+pC1AaJOcg2A2JyPdJ+4nJUv117OsgRxXKYgJgulpCAOtpyCGGYzxi9320HICoGzxGSlkvviFnWlKiaCEE78Knyw1gX/bM9x8PVFllUX/LxPkzGg3Izxl7A5ZA1QSXwYzxjH8WdWvpQFsvLztQfS5Swq6UPWBpwpvkbM9zVntcd1IZ+VpvPlrJTTQR5GQUwWSu4DZ0WaWjTIyRDEFgQhH4Km2EIAhjSdVwv5OSmyvmx1VoEfIhNDIqcxY7zbla8Bufc+ox+v2x6CQQSYmAH5gbt8D1KrpEUxZ4trm9yfqa+ox6vp4CcKM6jX2lfkvrTNuVDM2Pp7iBEP6A+3TUhNLMMw44uyT5O6UA752LBvPkXZZob9/obZ46QeM8aT0vOjr9LPIGuBamaMS80SVzJjDAPpfFYK4nwgqy5mvnayNqAovgZU8hWn+8TlkC+XVmJZgjhOKYjJQsj92bMibetEGlUQ4ynTJoZTgthSiMW06UCD1EStL1veW8jPSUFc58rxwDU7HoTxLl+zOHJ/eURFf7vuo+5bsk/4bGy3z8eEsh5f+sP+G0XB4oz0fOtm30DWIlmzxBTFa5/cR/UYN98G4Au8Awj+wPLwAfANzhe4vBeIiYCcNLGI97L3vKPyN0HMR+5L26WhoV4/dlo/MjxEC9ulMUFyCXWoC3m/jRTGpEKu1aXUwcB8KYjzIF3OopI+ZHVDUXwNmO8rTrfH5aw80nQ+LsfiN7YsIRxSCmKyEHJ/roK4tZQghnjUoHAZBbGVNJ3VXDJgJX30eDBh/BXp+Y7qhbG95skeFub3KRHCXgDb5yDFtmOJwue6fOHYNfRYc3VqyIdAEMHut2ywLmRtUe6yaQrjtUvhoVXpYz7KWwqxGMrwBygHi8WiF4wmkCEcJ0SmxkXG89LzrpfrstWR+/IOaWxs1NUHQexiAdsO/RyX18/O2m7bNpR9mtSFcsinDPuQ3icTxdivVL3dY0xhvFZYrDAuJYpDPYjr43LIB0rlQbqcZr52svqhKF5mKvl6033icshnpcHS5WCxOM7KI6UgJgsl9xfPi7R0XXdB7MqFesuFeg3kZsYGKxLGNhPc0un2JdmfsC9Yd7TtyWfBkPg0Ro8xn/F5nxYFfwhsdfsuPis9//rNrjtZM8x3LzGF8doj9wn1F63qF+E3gn8wgg/w+bRPCGkijlGOxGIyqwq/EQSy2pQKZPiRiWHp+cGXYOVlyT28S5qbm3Q107q6giCexedgvX67UOfyYVtcvcv7uuUUxrp/PT/ySv0MshZYyKXUsRgulY8NZJWzUhDnQbqcRSV9yOqFongZqeSrTfeJyyGflabzWVZKCIeUgpgshNxnOqS+e5vMHP+CF5Dh/uFgXghXI4htoJkvBYW8G5yyylZyZRj+3kfzMnv6kUxhbA/lampz4h73Q5sQxraH/fDbnXxWSEFIA4XjF59r5SRFwIfg0AeBFtCOiYz2iwyclZ4fe40tRtYGlTxci6J47ZH7mP5oW+/8ovk3+I4UwSeEPHxDWnBaGhv8Rki9D/Hi0XyJ+RMVx1OjIuND0vPD97v1R+Qe3i1tbW26mildfEJXi/UhRtC4QAWxCWP7bDXdHsQKLl9c7/K+Lvi2pC6dT1kQv8l+oIwU++Pr474HHpCeN6qfJKuexQjjSkRxMJDOZ6UgzoN0OYtK+pDVCUXxMjLfV5tuj8tZeaTpfDnLEsJxescd89+fREFMQO69T0ndbd8o2/fsl/Of+wsVkH421QSxF5DXWxCrFQYrn0edr5kaGZDZUw+bMM791VGR1m63DyaGw/arhW1FXfiMsK1GlIasHk8FNG9ln4YAz4I8GII/BLATdum0jA2IDF3kK0nWGJWIYkBhvHbI/f4XRPbrcWy+xfuV4E+MxGH4VIl9RSwwk3xk8B+Z4tibiWNcWg1TITk5kswe5x7ZI52dnbpIQRCbGNbPmpmatDw+95oI4zn7oGZ53YewvqR9Su77wf8pzzz+qEyce0Z6vrFT28lqpRJhfOjQIRu/Swnj+URxMJDOB0rlQbqcZr52snqhKF5G5vtq0+1xOeSz0mDpchC76XKcUhCTavmXj+6X3ftvkHzvRRl4+qMu2CuaHU4J4TgQLDIdSJCamAxlDC7zpaCQdwNSqqyG1P5pakdHVK6r1z76dz8x1GfC2O6DTi6RztiHsH32Odhmtz4rZ6KfqOsvylvwF1IEfZpaAIjAVYM/zOpMDouMqigeucp76NYQlQpiQFG8drBbSjbf7C6fxqvp7CRb8Cned4QUpH2GZZEG3wFDPsNMSIYUgtgJSLMgjoPd+CZZv369dp3SpnEXB3gLgtjFDVh3ITXTbUObyxfXu7yvs3JoR5rOpw3bG1JvWAdAu+1LaJuS9Q+8UzZu3CxnTh6Via/8hfTkXuv6klVHtcJ4PlGcLoOsclYK4jxIl9PM105WLz7aI0uNDSJlSLfH5ZDPStP9YsuqCxbEMIyCmFTKv376Nunu6nSC+JmP+8uM/QyxmReUQViuAEGMsg2S+Kdi2EzrGhobpW39Fqnf90o3O4t9adLAFTPFwZL9gugPaWr/iizaR8tH22dmm+nQY88Fg5r6QM9S1MX9SE1RjYAmKxycaDNB5w3HekyRf4DPUB9i/gO+JPahyEe+NfZLicEP40oXpJEPgxiHb2tuF1m/RwXxm2XLlq3S2NCAWRB1Uw3OP6qZ+PXbYj7UtqWQmsGPJvniepf3dVYO7UjT+bRh30Kqhn0KPtj2PaRu//u/8Gdy7B8flPaudbL9bf9Wcv9wVT+TrEYqiS8Rp2bFr2kDWXUgLpdKQZwH6XKa+drJ6kU9EllJlDo443rkK7XYmSBPQUwqIfdPA/LuYy+XzuYGGXjqIzJw6FMasOBJzJEgjoM2C+SCxYEPLB0sIVULQVXJFBTyFpily2oWzOFfXFZraNQgUNN6mAZf9frZDRoYdm7cJg37XyXSf0r3A0Gk36eiQAz75fenaP/i/QqGz4UID3m3fQX02NXjr2AIlr1Z8Axh7LuSVQ9Fbg0Df4Dj2g7otIHgH7Qf8lYOfsQbhGLwP+Z7In+UlNVwQtJOSnp/DIMvM1O/hocgbtwvO3ftkkb1hdgu+L96mK4LT542XwmB7P1W8J0uj+1xef2R1OsHFtW7vK9L9iekkZkAThv2SVPsD7a5SAjD/H4ldSqOH/pTGZuYkH2v+mbJ/fOofiZZjVQqjNMxbMhXYoGQj+tAukyIeiOy1Mx3oFVyYMZ1IY90Pgv9SjmP+aAgJhDE3Xd+jdRNjsrA0x/TYMU/hKoRwUkwBCka0GBGwwKbYD7QSYKeOGAKZeTnS0EhbwFZuqyW/AvlYLodEMNNjY0+j5kRL4412OrevNMJ48vP62b5fUqCL2x/tE/JvjhDsOgMn1XI6w/bliKSYw6pWiyI7ZJqtaKgmaxmFiqIKaTXCjjG1XCyy45xX87C+wxnwTcW+xqz4FODbwoCMW0mIHGCTw2+aOMB2bvvgPlAnHgLgrhB1wFB7Hxi8GPOl9lyqLdtKdSZRX5WP7Co3uV9nZVDe5yq2b6kDNtughj7Efyu36dgtm+hDGH8XhnID8i+l76FwngVU0m8mRXHhvi2VHvaQr9AnA+k67L6xMzXTlYn6pHISiEcZOkUIF/qIAxtpQwOBDbfk6YpiEmRIH7mE4XLi00whsAEQjEELwhqogDH6uMyDIGST5OgqVwKCnkLxNJlNfuHNJSD6eeH2WHkm5qaNC3MFtdrHrPIm3buk8YDrxY5/6TIped0HX6f7NJFpNE++HXBwv5ZPvpcbKKV7V+EHoPOfKBsATMunw6BMyz72Ca1A4XxGsAOY/yIju05J72cv3JZ5J0fcam3xMfgapfgl1Dn87ElYlENvnpqXOo2HZSDN9ykghgCeEq7udlhCOPp6UnN4+Sg1tlneIPvss9wqfNphToz+LYkX1zv8m67XTm0+9T6q2Hf/P45wZsSxMk++n2KxHBch8upT374N2T/y76WwngVM1/cibg1xLBZ8W1sWaTbQj6dEgLUK5GlZL4DLN2+kP5pK1WfdiLloCAmuX/qN0Gc/+rfu8ulIYgrulwa5oOcIvOB0jIKYqtHORiCPU2DIA5CuFmFcdFssebRb/veG6Tp4Gvck1ptn3Rbtd1tvyu7gNHnvdU3+FTN+rot0n+WdeCYM/Oit6jszS6d1rqioJmsRihqiR37yfHtj2vLozEc4z5V/+P8BrKaJlbwM+ZbzP+oqX9yIhnl4He9BbHYul4F8QG5+ZZbpampwR6iFcQwbGpywvxf4hvTwhhmnxu2Q7fO55GaYYuTfIn6pH8qDcIYhu3Fpd7B75phX7zF+wWDOC4ai1z5hArjAy9/K4XxKma++DOOY0uJ43S/uD6QLqdZbH+y+lEvRJaKag+QuH/Ip1OAfKWWdhihfNddd/m1zYWCmDhB/BbJP/aPc2eHk8DEBypJ4ILAJgQzwUIA5G2ZBbELIr3ptmQJYswMI9/crMI41HsDuw7cLC03PCBy6stF+xPW4YJRV07W682V8fl++xQ8zEaPWt1KlzoLgbI3PS6Ty6eTAJrUOhTWqx31AclVIP7YDse/9wnwEoklP4CmzpGYJT7H+6Lgh4LvdWXcHhL8MQRzndx+5112EnDaBHHwVQ0yOTGW5Au+Sy0WxuFzzQfCr7m6kEdq+XhbSwnjpD6VWr2OJxDENp6gjDSVj/arMAZ5M3Ecyk1y/MO/KQfvfxuF8SqmXByK+LVcfFupBUI+nYI4XwnV9icrG/VA5FqxkIOt3DKhfT6b77JpUtuYIL5DBfETH3JPLbVXLuEMfgg80kEKApcQvGialL1ZYJRVh4CoVAoKeScwU2U1+xfysSG407Qo2NPPDYI41Dc3NxfVow7HyN4bb3PC+MQXdX1oD0LYpejb2NgkDfp9hEsRUdfg22AOHK9q/thLBG+SD8GyD5wtePZ9yKqFYpYYuPIjPqYjq7NDPD7O1W95f5b4tKIyBKnzUeaHLK9+B/5H/VCdpjD4ZGtv7pA777rb7iGexoyw92OwiXEI4oLfCmnwbc6n+c/C51sK341tcXUhj9Ty+i/kdSM09W1z6pGPUv1sez5FMn74McXM7U9iRQI5COKCGI7Lxz70myLnn6EwXqMgjo3j2nJWivnas6i2P1ndqBciS8F8B066PS6HfDoNoJxl5dpiKwdniWsbJ4i/RvJPqiCOL5VOAo8QjEQBSghm5lgIfnw+Do5QF8pzUlCoswAsaksCstCGfGwaTM0RxGbFgtjy2s/uMdbtwbJuuTqZ1mD24K13SeuND8jssc/7/k4Q48E0EMSNGmzC7IE1YX1qtk3YTj8L5NDjDseeWQiS0+ZnkkIfsipZakFMgb2KSY7ptAU/4LrBZZjbCA7D+yL3+jj4FO9XrM75IRPBlndWr37ZpeqPG1vkzrvvUd/WKFMT41rv1oXbPMbHRpyfSnxW8F9u2XS9fZZ9LlLny4u2x9dZHjvg8/pD/2f4/lgYY1vtQWClxpCU6Ta4MQj9fWrjkRrGqKKrmbQv6i5QGK9WqrmMupSV6xcTyukUlOpbivnayepBvQi5npQ6+JCWOtBCWymLLynhZdOkFBDEMjaogvifo8ulfcBh5gORSgMYsygYCpYESNoe8kmKbKHOVRXakkDM2nw+WBC9mg/BnCt78+VCve+vyyF4tLZkffUyOTkpN91xr7Td/FqZPvIZa4eAbjRzYhiGmZggjC34tC0Ox6qmIQhOXzJtFmaIkUYBtF1eSQhZ1djxHHxAZP7yaVhyCTX8UWLelyANPsl8lTPne+B3IjM/1CgzusxdKojx2qVJCGJb3i03NjJi6wnrKqwzCGOXT9fbMn4bCiLY1SG/MGGs44iNMcgX1lmweJyJxx5viSAOaWS2rlCvn3HhEIXxKqWSy6jTcW4pyyJuS/cptQypHdT7kGtN1oEX16XzaStVHzsJ5HnZNCmFCeLxIX//sL9UOjnjHgchMHUTcb4okFFLgh/kQ12qbU7ghBRZX1ZzVYW2JACzNp8PBkGs60c+BHEW1GmdC+5cfWKhH1JvTthifah3Hzs2Nia33HWftN/8gEw8/wkTxWbxTLGlTiA73DGJrQ7HXyE4DhYFyEUWzRaTVcdyzepytniVUnRMB4v8gPcVSE0cq9NxJ/dS/sp8lvNrQZiiLghhPD0flzxPTk3JnXfdY7dxTI6P2XrhyLDe0ZHhZD3B/8ESX6n+PNRVIoyR14JPnd9EavnIR+sP/e/bLK+m6zBBbAI3LIc0zsd1algmMT/+WJvPm+l4BeaMW1q+8CyF8RokPI06jnVDPjZQqh6Uygey6sjaRz0MWSzzHTyl2tP1cRn5rPa4Pk6zrBycJa5dcn/2rMjEsIrh+OnSPqhIAgsffCRBTGTWBksFMSEAKkoz6i2Poq9Tc1WFtiTwsjafD6afX6kgDn2Rh+DtHxiQS5evyIVLl+Si2tW+fhkdHZXpaQ1kbVtEhoeH5eY7VRjf9Fq7z9rNFjtBbOZnifUg0yXiYzYdBGu+1GxxMB3Qk3pCIiiMVyE4jsNVIPGVIJHVRVeFwOO45xKozzJ/5n0XfEyDu3UjKVu/enflSmOzjKnfuv2Ou3Q5defjKv7U50xNTZs/GxwekfGJKRnSND84qOmw+T94q7AeZ4X1lhbGUarbqAWfwh/D97s89ibUI49+rk3HEHtGhS8nbaE95COzvrDUGITxKRjqsUdWxviVEsYY0y5SGK9GFnoZdWgLaVwfSNdltWdRqj4wXztZHdTpL5K/yUVSzcGSlY/TdD7LwpmxOA0WyuVmiSmIa5vcX70o0trtRHEIJkIgYcEIAosQlASLgpw44LG8t5CPU8trktSFvE/VXDXqLKOJy+OfpbHp9iF4RD4Ec0kgp9sUC2IcSf19ffaQGbyaRKYnNFCdcoYA1T7MBU91GrS1dXRK9/oN0tnZaVvW3t4uh595XEaPfF52vua7/TKzMj01Za82waWKM9NT9pRXGD4D5VlY+ByYlmXaf36wyTE1DdZgeB3UxLD0/MTbbJPI6uBaiNYPP/gOnyOrgdyfPi7SuVWkpUukqb3otXZ4UrSl8Deax8OywkOzIELh6/SHT5F1qXo7Xx2Ec730X70it952h4rmOhkZGZEJ9Un5/j4ZzA/I7FTkZ4IwD/5aP7ehqUWFdYt0da+zE34udphOYgjkZ6M80tkZxB5IEWO4OAPrdalrQ2qmPjLUmyM18Ypq1+bSqP+csvOzlobynLzuF3xq2D9L1ZCa3w31mlcf2/Ojr9J1ktXGu9/9bp+byzPPPGPHQhwLxOU4LWUgnY9TUCqfxXztZOWjnpIsBnP+ZZivPRD3Qz5YulyJ8bJpUpaRqxosaMCAQAmBmolhb5mCOJg6/KJ8ZEkwl0qRTerivDNXHeqQuLz9QxobBj2fTwZAn8aCeEoDxIsXzsuF08dlrPeMzJx/WuTEFzQ4GrF11ze3S0PbOqnDk7YROA1fkdkn/lpGjn9VLrzwmBw99IRcuXhOxkaG5WbcY3zjA3Luob+2ABKfrQvhoLQ9QBqCyMJMcWT4nufU+QDOLKonJAVni1cZOAEWBJkd69Hxrb4i1LlLp2HqdmH6w903XDBckQJL6tQ/Ix242is333KbftiMHD1xUo4fOypnjj4n+TPPy+ypR0QGzrrPau6Q+o5N0tC52fLmZ/tOyfSJL8v4hcNy5dQLcvHsSRkZHtTPn2/GGH7X+duKZ4wxnthDtbLGi/Q4EpX1MwrllIU27J+VMW6FNJgf06yf/i7G8/p5ZK1RzdOog4F0GcT5cszXr9L1kJWLeg1yrcg6CLPqYtJ16eWQxoazuuXgLDHp+eH7RQYvaEylAZwFIT6YCIHHHEsFLSGf3DccUrSpxWlmHiAfUleXBFj4F/LBNPCpRBBfvnRJes+fkpneYyJXj0td+3rZcteb5MCbfkC6N++U7vUbpbOrSzo62qVr3Xqt2y5bb7hHXvKuX5XNdzxgMzuzT/+d9B35irzwxJflxeeekoO33iltN71GTn7mz3HAOYMwVnOzKLAywtjMB8o4PpMZjTh41jxZNVCskkxmvSi24zwc6zi+I98AQQxTF+I8n0txGTWeVWBi2D+zINw/3Kgp6jBDfOPNN+tqpuWF556T0d6zMnv2MZs1bdx8UA684ftkx52vlu5NW6Vb/VtnZ4d0dHZK94ZN0r11txx41TfJbd/4r6V19502kzyjInrw3BG5fPa4TKXea1wsjGHwv/MJYxjKujxmxYvqsJc+TfKhPfTR1MaTdBvGKN8G32vjVRizwvjl0yCKMb6NDriTBGRVMl+8auNvFP/CQDoNpMsgrstaLmsZsnaBhyELZL6DZSEHE5ZZjJV72jQhgZ4fvFek/7S7BM2CEwQV6g4sqECKYAMWgpNUwBKCm6IU7VEZJG0hD3xZf4QjJAms8C/kgyEw8/kQtKUF8fj4uFw8d1pm+k9pIHRVmrbdIrvueYN0tbfK+FCf9F46p5+SfTyOjY3K0SPPy4Sm3Zt3yL3velCathwUOfppGT77vDz76EOy94ZbpfWGV8vZL7xfjzMX4GaKYQTAc/JB/CINAbPPh77Ik1XBtRbEFOCrCBPEEMbB0se5M1xdgtTEsS6mrs1mjCF88WR8PNgPT7mPRfLVK5fkhhtvtts3Dh96QmbOPmG3wGy57xtk4/Y90t4k0nvxjAzn+922ZNCr6zh7+oQ0NzfJlhtfIrte+732bvqZM49J3+nD0t97OfGxYZY4mHv9E/yw87/FwtiNC1bGGGLvIY7qwolTWJLHst7wLYR2q0vl9fNsOfjw0IY6fFY8dllel5ka13GgT6TvpPT8/Lt0ObIWiZ9GvVCrlvmWWcg6ycoBXoZcY8JBk07LgT5x/1JWDs4Sk5ieH7jLLqeze88Ql1hQ4QOOIvOBiQUuZQxYGtchtYa59aGsKf5yNXzSoqtDCrOALM4jGPNpEMT5fF7yl8+KnHpY6rp3yq7b7pe2xlkZ7O/VtVbPsRcPS1vXernp7T8r0tIps+efkhce/Yzs3H+jtBx4hVx65B8tMLX7h00UIxB2IhmB7pzZYtQHC2LYL+PafZkQsqrp+bEH9FiOBbE/xtOmx364X1crzMfZ1S6aQgwXnnrvHu53+eJ5FcQ32bMMjj71sMj4oLTf/Frp7u6yk36or5bx8TEZHMzL5n23SsftbxHJn5fJyy/KlfOnIl9bqTAOdQ1S19iseU19vWtzfj6UnWFMicaYpD3U+7yV0a7fVVwXTLfDiWEviPGcBgjiq8dVEP+QLkdWMwt96BYsbp+PuH+cktpCvQlZDtIH1HwHGNqDBdJ15cowvpOYVEvP99+qwcMJETycBRQFHKmgxMpqIZ9Oi+pAVGd5X2eJK2u4lNTbX7XWI4AKIjjOu6DMB2i6TQjO+vquynj/BQuAuu7+eulqb5HBvstYU0kmx4ZlLH9VpifGfU02FzUQ3bDnVmnY81KRk1+WY499VrbtOSDNKowHnv6YPbHanlqtQW4QwnNnjNEeWRDAScDs63Figqx4rtesLWeLVxEz4QFQ3sKxrmm4ugTlcBKtDm3O+8H9mdlsMZ54r3bx3BkVxDea8D3++OdEWjpkz+0vl8bZ8j5jZmpKBfOAjA/n3WeWYGJiQhqaW+SmN32PSEOLzF58Xq6cORb53MqEcSKIkdqOaH0keoMvR15/uDTJh36ur7OojO+oqE/KdDuMiRGRkV6R3qPS83M/6OrIqqdc/Jo1WwzmK4OsuizS7fP1J6sX70nItSIcTOk0BnVxfVwO+bTx4VpkofR8700qKo+5S87C5WlJoBICFG8hmMlKM/MAeZ9aosGRlVL1HvfeTh9oqRWCMR+Y6XYhKMOTpafyl2xmYMd9b5W6qfKv3sifeUHyH/0VGT39tEz0npThk49L/mPlTxZNT09Jx4at0nr3N4u8+Gk59dQXZdP23dK8/357KnW4fNqJ4BD8Iu8t5BGUJjZV3K51PT+rASkhZaAwXiXYU5H9TDEsHP92zKMunDxT32En1dTnqiWXUpvNmig+c/KE3UM8qcL1+GOfkbp1O2Xbzr0y0HvRPqoU+c/8ngw9+wkZv3hExi8ckcHnPyf5pz/qW7PBwwl33fWA1K3fI7OXnlNhfDTyvVnCGD7a++WGJqlvarH6RCyrma/HOGBjiRtXMoVxUV2hr9Xhu7K60Bb1CQbwIMXhyyJXjkjPf3inqyM1QbmHboE4D9LlQNw/Tknt4L0JqZZqDpb5+qI9q09cH/KlrBycJSbz0fPdB0XwcCoIY/w9JcGHWjjbX5SiPrTDkKTzlvFVhXqXK9SjaxDA7i/Z5RFcFYIwn7e6Ohno75PJvAaGur0H7n61DPeXnx02+k9L91t/VrpveqV0H3iJpR2v/zeybftO36E0zR3d0nTfvxA586icP/yEdG/aLo17XypTJ7+iMZsGtwhwTeAi2A2GgNcFwcVlb6EOebLioSglFWGCOC2M/fEeBLE//uE7cOLN3YqBe4ydW4QdPXJEbr71VpkYG5MTT35BpHunbNq0SUaHK3ia8sgV6b77bdJ9w8vUXirdt79R/d8Z31gaXE69af8dUrfpBhXGmDEuJ4xdioeBNTa3qjAOQhkO3aXFwtjVuzY/loR67HHSJ5i247sK/cL4kzaAGeLB8yKXD1MQr1EWcxk1LO6TplR9zHztMdX0JSsL71HIUlLpAZHuh3JscV2pfFyXBQUxqZSef7HPLjsrnjFG4IGAxAcqlmpSVI7zSPAD+LL7YfUuV6h3XQtBE/7ZJYZaC/EbB1+JIB7ol4mBgiDGw2UqYf2db5b82cO+5Bh+7G/l4gU8hKtA/m9+2ueKaVu3SeoOvk7k0rMaLL4oHes3S8Oe+2Tm3JO2zRbAheDXxG5UF4LjJEAOZW1H8ExIBVCYrwLstUzBcKzH4tj5g3CFCQRyeD5BMO0oJ04cl1tvv13Gx0bl+HNP2CuV9h64QSbGC1fDlPJTxi3F7zyHcJU73+5Lc8n/48/7nOrLyQnZtO+2ioRxQ2OTNLa0eUHc4Nv9bHFkGEvciU44fO/rLe/azELewlJtw3cVxp+kT8j7FEwMuydMX3pBBfEPuDqyJikXz2bFxPPl47pAulyKSvuR1YX3KuRaEA6i+GAqd2Cl+8XLx8YnTpOlouc796gwfjGaMUbgggCkXAqiupBPlfHP5TVBybcngjixevu7tl4IvrRcJIhxD3GVghjYPMwzf+9LuG+vSVpf8u2+VKD7O97jc3NZt+OASOc2e6rpcP8VaeveKA27X2JC2QW8QQSHNATDUT6us4AZgTBZyVCMkkrp+bHXRJdQe0Fsx7o3f7JsVtvsXl+tgzAOM8Znzp6T2++4U8ZHR+TY4edFjn1ODt75MunvveQ/wVHOT3Xtf4nkTzzpS6LiekR27lXfVYLub/kfPueYmJyMhPELc4Qx/DIEcVNru6aNVheLZdcvCGGXaoVZ8Pcwa4dfjupQND8ayokwhiFkDamOERDEeIvC5ecpiGuc+e4tDsT5NFn9yvUnaw+K4mWmkgMKfbIs3ZYux/WELBmbb7b7smRqDH9wUUCiBiyNynPyPjUQ+NhPV+WXtcDIii4fgiPcT2ym5ZkZ9/ftgqzFCeKEjs0+I7Jr917ZtmOXL5Um/+nf8TmNZ3V7OvbdI3L2MZkauKCx77g0d6yT+p336nf2ogt4QxAc8kUWguSoDU9LJSuWlSaIKdBXARDFJoxh4dj3Zr7BzxabEJ5WU1GsQvRKX7/coYJ4TAXxuXPn1Pmck6Z73i5XLlTn6+oaGuzhg4GRiydkaLBw2XX+b/+dz5UGwnijCeODc4RxY1OztLR1mCDGzDDeqWyvcNIUn13f4EWxGfw5xHAQxJqa0C2IXVfvxoZEECOf1Bf62nIYlyCI+06KXHrOnagkNU86Noal69Pl2Oajkj5kdUNRvADKHRiVHjTVHIBxmmWl4KXTZKE073+53Z9lwtguZkZgEgKUkIJ03qeWINixTFG9C4BcGoIhy3sxXJgZdjPG0youl0QQg+h4mZwY18/xhTJ0v/HHfc7R0NIucuObbYZirP+STE5OSGNbp9TtvEvrNEgLgjfMDFkQnJo1CqkGznxKKqkWCuMVDo51E8X+WI+PezV3X7F7LVOYMR6ZmJY777zbBHFLS4uMqm9B31279viVVglEYwAPoYpp7faZ8kxmCOPmllZp6+g2YQwxjEuz7fJpE8bOb7t3HDszMezFsVYU+XwnjBGGahmDAr6XlGAuWOirPhz7BtF/8ZDILV8n0r4Bm0tqgGouoQ4W2uK0HJX0AeX6VboOsrKAhyHXgKwDstRBg/p0/7gugPLdd9/tS4QsERp/gBvf9L1OGE+GGWPU+gDFCiGPbFzvyi6Hep/ip+9n/0I+MohhBE8IrBBIIR0aHKhIEOc/8es+VwbMgHuuXu2V86cLsynV0LZ1vwVls6P9MjM5bpc/NrSoMN5+p27Ief2+opngIIZh4f7CJEDWMlmxUHySBYFXrCWXUIc0Pu4LecwST9U12eWfoyNDMtDXK+fOnJLZocvSsv0muXql/JOmSxLNntanRGP3N/wnn5ufYmF8WC6cfNHenRwEsUv9bLEJY3d5dcGHp+4x9vVaMJ+P1Ex9ZlK2cQPhqeuX1GEcMkF8TOTCMyL3fR82UaS506WkpkE8nBUnh7o4TfcLxPXp5cjah6J4GankQEKftAVCPq4P+VAuBWeJyVJw21vfqcL4BRWko/jjKwQnwPIhdflE4LqSr0Zd1JZhYWY4CGJcfteg6fDQoHvtUgUzxN1f8//4XDaNjU0iB17rSyKjo6My9sif+1J1NLV3i2y9TWTkqsxOjtnxiMsg61s6VBjfYfVx4OuCYh8YJ6Zlm4knpHoo2FcuPbnXueO7SBz74x8+Qc3uJ1ara+2W2++4w3xd/9VeaW5pkQEI4VMPy2133uPXWB35Iw9L8977fElk056bZKS3+IGC1VAQxgdk9uKzcvKFJ50gblQxDPOCuEEFsAlkP0tsvtz7cxPD6ushdp3fj4QxTiIitbHCBouCBWFsM8RD7mGQ55+Whgf+DTaN1CDzxbfpODmdD4T62Oajkj5k9UJRXCVLcUDMt4744MzKx0bI0oMARPF/X1te8nVeGEczxhakhNTlLZhxOVdvRQQ5IXX19s/nw6XSJoa9MA42ODhQsSCuhKvHnpDmGx/wJc+tX+8zC2D9bhW/vTKL14Hge9HADpdD1jW3i2xTwTyJyxd1P0MgHALjIJRx6TRfH7JioegkiwIzxFMqihNB7EUxnjXQ0GxpfecWueWWW2VkaEj6+3p1Ifeu4plxFX83vEGOHVG/uxCe/aC0dm/0BZHxiQmZOvQhX1oYiTDeuF9mL0AYP+GEccqSS6lVCCO1e4wjkVw0a6zmZoi98IWF8QHfRKjDUITvBIL43JPS9Y2/iE1yoKv7QUgSG6fj5FL5UszXXglLsQ5ybaEoXkJKHQChPm5HPt0/XReXQz42XjpNlg/3zmAEJ4hJum9+jcil5zXI8zPGIWDxwUgiiJFakwtsQnBjKcqWd+1BDGcK4nxepgevlBTEU2Mj9kqS/Of/UAZTr1kqxbq9t8vEycd8SZ2fBmt4YNZCaerQoHOkT6NFiGK8Rkq/FxybEMZNbSJbb7Xtl65tKoAjMWymZcwgkRXJahHEFO4rmCk9vsNMsc0W++N+RP1a13apX7dDbrzpRhkZHpKB/qvOd6jhSdGzY3lpWbdVV1KIB6qh7mU/IDMThatQRqfqpOXVP+JL5ZkaHXS+9XN/IIPnj/laB4SxPZU6COPnIYz97HA0axxmjotmi9XCU6rDrHFddMl0kTC2sqYYTDDeBEF89nHZ+j2/4XxtDLoSooRLqNMG4jxIl0FWnzhNU6qerE4oipeJSg8glIMF0nVxObZS8NJpsiQkf2IuQGncdosJ47qpMa3BA1FcJOKCF8vgRxLMuJkAX/apMx8UQRBrOQ6aYCPDwzI93CsyfEX23fWqTEE88qH/aK8k6X6tC/Tyhz5laRZ5H9hhDmbPq95ufXfsOSj9D39Aul/mX8mk+zrSr8FqFtoWv94k0NTeJRoFikxoEIugF8ckLgO041ODvcZWFcb6nel+OBEMYRzuNdb+vHSakDVLz7+MLqEOxz+O/S23SL0e/wcOHDBBnO/vM39hY7racD6vInBQNm+f+2T8/MmnZWQAM8pzwb3Jo76ta9fNMnT5tH7kpAyPz6gmH5OWRhfu5S+ckKnxbN+TP/qojDz0+863vu5H7ZkJaWEcXtck63bZw7dOHn7GZogL5gRxQ73L41Jq+PvEx+NSaghg+MIwHmga8tpZP8WVtZO/ZPqIyJmvyu0/+VdWZZSJgcjaZzEP3IrLIKsOpMuBUvVk9UNRvMLIOihLGSHLBcIR/euznw4fpHRuk9mLzwkevoW5ZAtmkgAGQY3r64IcVGteAyFL8c/PDFtZg59YDMPwwKqJ4X6R4w/J1ttfLX2XzmKFCZOJIP41X+MCwPabXi35R94n+Q/+Z8k//kHJf/kvJf+PvyD5z/6eBaT5j/6K9R3QgHPH/d8sFy9eUEH8bVaHIDH/8V+Vqb7TuszPS/4rH5D8c5/V9fyTW8eX/1zqWtdJ/pO/Zf0DDY3NIs0d9uCXWQS+XhDb92bHqJYhjDff5J6OGt5JbAHypPT8/LvcisiKYrXNvnK2eAUDEZzcV6zpxn1S39Ipu3fvNkE8GATxjLORoUEZHR6wE2ldXcVPiM4/8WF1gKMy1XtS8v/wc+rv3i/5I1+W/Ff/3mZ2hx77B5m8fEzyLz5i/bt33SQ7du+T3Xv2SGdbi9Xlv/TnIkOXZOT4o5L/+/8g+S++V9f7Icl/5JdsHXgqdfdbfsb6gu6D95UUxttvvs/820zvcTl36qgTwGbF4tgEspZt1ljzJoLx1ngbFyCC3VjgxozC2GC+FDPEeDji6Uflrn/711qlftX8q9+QBBt4CDHSsXJsMekyIXX6R8G/igop91WVOtiy0nQ+2AwGxigfyiEfG55UWQrOFJPFkPtsp7R0bpBd+2+Q1rYO6b1yWcZGBmWkv1cmIVjH8yaK63fcIdLUJrMW5DgRjB9JcOPzVnZNSdldOg0hHM0Ua93Vyxds9qFl773S0lB8TEEQj6YEcTVAGHe/9Wd9yTF89aJMP/7X0v3mn/I1DsywNODBXBH5U89K997bfcmRf/RvReob3aXSTa3uK7BjWAWxF8dmeBcxgjtcAohLqieGeD/xCmW1iswPP/gOnyMridwfPYzLSkT2v9oE8dZt22VmakpGR4fN75kgVD84Pjpm6Uj+qswe/oTc+wP/Q44dLTwtP/+Z35XuN/wrX3JM6jqa1EfHDF86JdNDV0zQxuQf/iuRHffM8WGVkD/2mNS1rZeuHQd9jaO1uUkuffZPRHa9RLbf+nJp6+gSPHBwGu9envEpyohbQn5yXGb8iQDEMnZCIPhM85eo074qxu3tB6celo3f9suye98BmZiYkCuXL8nY0ICOR5ddH9zCMnxFer7vFr9VpFZ497vf7XNzefrppwuxRWQWf0T5UA75YCCdz0oD6XJMuTaysuBM8XUiiN/Y4vpA3B5bKSiIyZKhf2dFvhwFK+uP6TGZuXBI6qfHIyfiBxA1pLHZQ1cwEGkAGAYkPF065GH5fL/MjmqA07VN1ndpEJli9EO/sGBBDLa9/T/L7j37fMkxfe7pOYIYpAWx0drlMxG4d9ieJotgTo9NH+BpIakza2wR2XSDs+kJCuIVCmddyZKD2eJd90mdCuONGzeq+B2R4aG8ugUvCjUdGxlWj+F9h9ZhZnlU+xWBJ9qnSAti0LF1b/azEvLnFiSIQZgxHu0rfj3U2MSk1B14wG6ruXTySGGW2F7Z5KzeUswSq/DwM8SFk6LO3NVDTpjAd86M5VUQHzFBXP/6n3ZjiLbPzMCfus8mZKGXUIO4HLfH9aT2oCheAtIHUKkDar4DLW5HvpTxAVtkeTHlW4g9oHOD4HUFpV56vnm9TJ17RuogjDWoMbwILjILeOrcazqCOPapvcIDZQ14MBOMd08evOOlMqpBYkz+b37G7nOrhI6ubmlrL35vJYKzi5//Czlz+qSvcWy462sy70fGts0B72tOMz7oUuy+Hpv2rSUzHt5w/zXq8MTZjQdEdi7sNSuElIOCfoWCZzC0rZd167plYmxUBfCQO3mmAg/j+ZiKX6TwFUjtEYf1jdKUPjHXvd1nCrS1zxXFY1Pqa18+96Rb3R3fIjMpH4ZLmrfv3ONL5YEwnjz9uNThJGDEuu37RVq6ZSZ/Xq5eOmcCOFw6neQhfNUH4vNQLhbEzv9jnMB3MD0KQYwZ4i+LvPLHtA3jh2+3Ucl9Ty5PSDalHrgVLBDnsyjVnq6fbz1kdUBRvIyEgyQ+WCo5wModXOXaCFlS/N+ahiRO9HmRawVLRYXxOpk6+5Q0zIxLI4Id6+b6xYI4BD3u/ZUuCDJhbOK4QQYG+jWaGxDZfpdcuVh8H3H+6Y9Kwxv/nS9l07F+i+SPPyH5q5flal9e+nV9+cvnJP/U/ycTGsP1Pfz+5B7i0YErkn/xK5af1l10D9/6pIzPNEj+q3+n67giQ8Ojku/rlfyzn7b17N5/o8j54odtzeLBObjnDZdP6/5ojfvOzLwwTtc1aKC7fp/k/uyQrYOsHCgqyXJQd893SUdHu0yOj8n46LC6Ajc7DJvAiUDL+0Bd8+ZjmztsNrmInfeqf52V4YlZ76cuS99A3tL8F/5Uhq5elKHRSZlS4dvR6gQ1HhA4eO5Fy3ftvFGGL5+R0eFBt8ypQzI0MiqXr6if61Of+NCf2Ix1ObrvfpsMfPJ/+5JDvZrUbbkJ77yT/otnisRwMOyXu6fY+XvUIS16GrXu/3S4ZPrkl6Tn//0+rFmXgX/VPbfvx/5n4MYjQmIqjaVL9cvqU26dZPVDUVwhS3kgYF1pC4R8uj1YOXjpNFksub9RQRrFFyppUzn9iaBN09wfuQe6QBiPn3pCGmVCGhs1AFKyBHEijBEQITiCMIZA1vzkuAaHfadk2/6bbfkAZlRQ37Fph6+ZS35wSC6ePyfdB+6V7o1bpEVjqJamRunestOCuF07dxQ9VGvy0b+Qxk37ix6+1X3Hm2X/3j3S/dJv03Vslva2FunesEm6b3+jbN51QE6eOCHrXv6d1j8woQGuIIjDDDCEMY5PO0a9INZA0JmvCwIZ/dfvpTBeQawVQUxhv7LIPbRRWpqbZGpi3GaJbRz3l0xPjvuy9xVJHifYWrokj9c0RXQffKk0t3XJgf37vZ/aIq1NDZZ2v+YHZdOOfbJXfVjRQ7UMFdH+4VsQxrv2HXTL7L1D2lubZXpiRH3dZul+4Ifkpltvt9fclQP3NQ/3nvMlR8emnaI7JDPDV2Qo35cIY6SzM1P+KiEnhIMwLswUQzTPyuTQVZm9pIL4xBe8IFYwfqAPxhx8TbEkjrLJMEVqjvni3nBcpS20BdLtcdtiWcp1keWFongFEQ6cUgcQ6nnpNFlWOjb7jP694YfpXx9xILUsUrX2jVYNIIxHjn9VmmYnpVkFKcAlb8WC2ItgtXApNS6dnhgfl1m8U1ODp462Nls2MPjkh6XrgdJPaR4aHpHtu/dpIJhxD7Dn8sXzlk6MDIkc+ke7h7h9gwaFb/1ZyX+sMKCeP3PC54qZ0IC2QabmHJcTg70i0+P+vmJts/YgiJFHGolhM5TVMGO8bpfk3vuMlgkha43c59ebL5yenJRJ9W+FGeJZFckoO3+ANM7XYWa0pUMGLhW/ig6Mjw7JpXPFt4AExsfH7EGFAE+kxn3M3fvvUSF8kzR0b5PBsy9Y29Urly3N4vSpk/aaOzzUqySNLTL91N/5gqO+qTl5/dzl82eSK4JwNU0Qx3arTCKMfYo+M9Mynr8is5ghPvFQQRAbbuyxfkEF23fl84SUIVxCnUWoL9VOahOK4iVmvgMwC7SlD9BQFxshy06Dm2WwWMT/zQUdbD9MGKMQrEDPN3XL4NFHpGFmQlpbml1XL4idGHZn/V05zADUy/DwsMik2sb9cuVy8YNc8KAVm0nIYP2GTbauUu/tTDM51Cstryi+167lNTlpbtaAbgHMDmlw2dLlnixr31WGIEYes91WD0Hs25GvV2HcvUOF8dNYHblOrLXZVc4WX39yn18njQ14xdyE2rgd8yaI1Rfg6cs2nnsRHNKQt8uF1adM9Z1RD1vsYyvmYvGT8ju27pPZvBPMlbDpzf9G8qef86W5tL78+2XdunW+5Kjr2CQyeFGmRvLm2/HeZOf3nfi1GWKIYxPELo/vZGzgsr1xQI5/PiWIHfqt2DiC2eIQB8U/0+MQIWnC8RVbqA9pyGdRqq3cMmR1QlF8Dck6gOK6kC/VL6s+wEunydJRCDLssjU1+5eIYWtQm+s+IIzx7szG2UkVxi22jInflCAuzBrXSQNWOTognRuLHyQzlu8Tuee7fGkupw49LO3trb40PwgMx49+0Zcc40/9o73mo1rsW7hyWKRdA8FmPCm7hCC2MvIpQRxSzBh3bZfc/31K2wlZGiiMrx+5z3ZpYDWronBSZlUU41iH+EM6o+WQt/Fc8yENdXZ/Ld5/fu4J6ewovnKmYu74ZltfYM/+G2THK77Fl+Zncnpa5LR77kIWzZ3r5fQzX/YlR1PnRsE7kGfGB+1kgPPvsXkxrCmEMS6rHrpyXmYuPq+C+HOZgtjGGQXLxKJYd86nAT8ukZqkkqdQpwl1cVu5fqQ2oCheJKUOmKwDDsT1cVu6f2gPFuoIWVYyYoviKpS8+YAlJvfXx/UPdUZ6n/28NNdNSVtri/WzYCgWxMj7egRHeIpzV2rmYaL/nDRvKvNk1GOf85kqGCzMRDc2NkrLPd/qS9UxgIfXXNJgDrMjELY4Nu34RBpEL8pR3upDWdPQF/cjd25VYVz8IC+y/FA8kqUk95kO9YwqdKenVBCrKE6OewjiUMaY7upCO9K4rg4n2tbvlQtHF3Z7ReeuW+0hW4FDX/qEDOf7falC9r1KpsYznrgfOPEFn3E0NquAhy+cHJXRoUHn8/1l0hDBsU3r94OHcs1cfE79+Gfde95T5D4KH+nGGKyrIIrxnVm1Y+4wREiC+5txaWyhLk5BVnugVH2gVD1ZPVAUV8BS/6GXOtACWeWl3gZCsimOMMJMsdVr6rK+zgoFTBC3b7Anp0rrOrnw5KfsUuqOtlbtCgFcPEMcAp2pyUmRqVHpSL9epPeotHbp+kpx8PU+UwXRfdBdXd3S2b3el6rk8gsi3bvcTDGOTTs+kbrA1pWz8kgR7EV5mAaOuJ8796dPaBshi4eC/9qS+3Sbe10RTvJNq0+zY9sH4amyS+NysTBubFVf2LlVps88IU0N1Ydp9XidU/xe477i5yXk//7f+1xpWtZttXt9S9K5zWcceDex+f6pCRkdHfZ+HsIYaWGWeErbr54/WRDEe15ut+3k/uSrfk2eRn8VEMaOOsy946vBd+SqCakU93dT/IdTbXmxLPX6yPJAUbyELOSPPl4mnQ8WiPOELC8FweuEMf6jztejrqtwuXORIMbTlRtbVDTulPNPfFLqVPC2t6owDkGSzRg7QWwpwp2Z6bnv3ESAWI6hSz5TBROFV47o0WVPgJ2P/Od+3+cc+TPPi7z4aZENe909xXZcqvmA1vIlBXFIg0XlOhXGKtpzf/q4LkOWG4pGslTkPqX+TsUwrnqBAIZvSY5tvLrN/EA41v24bmlcLghj9Ma7jcHVU6Xv7S3LjArxAK5GiWnt9pnSTI7kdZOK30lchN02UsAeEGbPV5jRXZ5O/LuZF8aTE+Ny+fQxmT7/rMjRz4jc+GYnfht1zEgL4+4dNs4k7yj2X6EjyTgwHhGSQTqGDhYola+UhSxDVi4UxdeAUgdN1sGINF0f7N577/W1hFwbnBBG6n+EjAYy9Rv3o+BAUBILYgRhsI0H5cxjHzdh3NbS4oMkBDp+5ljTRsxqaEA0hlccFWEfVppzC5hVjZbp7+uT/In57+Xtft2P+ZwGimO6jccfEtlyswva7FhV88FtUd7KIR+navHDt+I2DQCldb0GhxTGy0mtCGIK/+Un90n1cxCgEJBBAKvZP4jk5PhWi/yDjfOWxmUnjJE2dqgo3rBPZp/9kMzA71TBUO8FqdtQ8M8NG4pvQ+n+up/zudLM9B6Vji27fSkDPHU/Ag/WUiVtPiw8GCsWxhPjY3Lh5BGZOn9IBfGnRW7/Jt0w+H6MGV4YY98Dukxz95ZkHQDfqf0M3aLuhGSBuDnE0HZseeJyuj6LUvVkbUFRvAyUOtDS5UC1/Qm5ZqgudcLYBTiuok7ad90mM/VNknv/Kcl9MO8uS8bfaCyIzRpUQN4iJx/5iM3StjY3+SApBE0iLa0aEDW1yuhIceBXt+seGe67JMPj05I/d1Tyj7xP8l/+C8lfPivbd+6W+lveIo0N2U+mzmJiWLfzlrf6kid/1mcqY/TIF9x9yZtu1G3GzLbucwh647yVQz5OQ9+QT7epQRi3dKowfkz7EbI4KIyXj9wn9FjFpdEQxDYzGx3P0QzxQoVxfedmke13y9Dhz+vqx/GRCfnPlX6f8MxTfyddu2/xJRXB2w/I0NnDvlQhh/5J1m3eLsNjE/aKp/zDfy35Jz4kQ3h/MgTx+JDv6JiZ0v2dGjOR29qKWWQ/XqiNj43J2ePPFwTx3d+lYwMEcTAVxPB7ut7cHz9qJv1n9NtskNaOLh0nEKrGMVFICZmfOH5GPl2OU1Btf7J2oCi+xqQPsDRZbfMdfHzyNFk6EMQUMEEcYhuf2XHzS2RU4x85+bAILvHDWX6kKmyNWBAjmEG64y45/vA/y/TooDQ34kmiuGza/etep8uqCBwcKH4QTNe2/XLny18rWzdvlO6dN0j3/f9Cul/5fdK9ZZf0Xe2VmaOfk6tfqDzgH/v0e6T7jjf7kmPDS75J8scrm5XNH/6SyJGP277g0nA9MvW/D3bjvJVDPk5D33Rd2jTAxvfW3K7BYeo+O7JoKBLJUpD7mP7A06Vthhj3DOOY9sc37itOjnPUYdwvLrtj3ccDlsZlJ4wbWlR8YpZ3PC9Dx75iD+sKdL/uR3yumMFLp+E8fckxreuauXJUXUuZy6Ej8kdVlL7+3XL2zBnpbGuR7pd+q3S/4rul+95vlM71G2Xv7t3SfdfX+t6OyfER/aljhI4DbZ1diWwdGx2R0y8ekqlzz4i8+CmR+97hxgQbI7woBngdIE6q2lii+33qy/Zaqhmtx0MZbX323VjviGSAIjXMfHFwtbE12sq1k7UJRfE8zHfQLJawjnhdyMcW6gi5JtiMsCfJakbrd+y/Sa4MjsksXqPR0uEEMQIYBDdN7S7QwfKxIEYK23WvCePx4X5pbPCXxGnXDg2g6lQUD/ee959V4PiLL8jw4IAvFRgfG5XuB96lIvl7fU15MMss936PLxWY1g3AZw+eO+JrsrEg8akPiOy5X2TjAa3R4zEEuXHeyiEfp6Fvug6mgWpR2dfhy2lqcbMmhCwCnghYWnIfhRAe18NZU8wQx8d7dAm1/ijKVyeMXWqvOtpyq0jvMRk68bi7TLkEUxPqm7/4u9L9sm/3NQW67/k6GfzEe/Qj9TPmofuGl8nGHXulq73FbUuKU8fn+supoasmaPHk7JYWHRd0OVz9c+rIIZk8q4L4yCdF7n+XGxPCSdMwXmCmGOK4udPlIY4xthz7rF0lNIM295U45m4SISUJf8NIYwvE7Yul3DqWYv1keaEoXiJK/bFXc4AsZB2ELC8qGr1IxmXOA2MzMnlRA6KpUQ1aVAybINbAJlwGh0AGwQ6IBbGuw2aH97zMLqUey1+V+rpZabA+daqv18tU/iI+zS1bBfkLJyT/4f8mw1cv+JoC+fPHJP83P21itju6nDCma+dNMosHZ5XABPHjf+mekrr5Jre/IbiNAltXDvk4DX3TdVHbnDq18JAb/bzcH5V+ZyipHIpDslhyH5lQ/wdBrOI0COJwbNsl1OF49mlQc9avIHhDOfQN9QVhXKhvWr/dXaFy8VkZOv5YSWE88uQHpfvtv+RLc+l+67tl8JO/XvS6psDU2Ijkv/Cnkn/R+ZqpaFa6EmbxtOvOrdLSuR57JaOjI14QP62C+BNS9+p/pb4eQljHg0QQa0ecUMVzJfBMCnvgljcTxirKD39cTjz3hIyMjePbi/4RUjmVxtel+oFK10FWLxTFy0R8kMx3wKT7hnI6T8iyU6RJZ+0kPrC0ZZ0MXTimkVevE8O4XDoWxBbwwHzeFiwIYuQxO9x04FVy6tGPyshArwV3MzMzsmvfQRPU3V2dbrkM8l/8v5J/+K98qUD39v3u9SUDFyT/8feoCP4ZE8L5D/4XkYGz0v0d75HuHZjdzWbj1p0it7zNl4opEsRbb3OBWgh4EZaFvJVDPk7VLHxL1SWWrkuVw6yOfq+5P3rY5QlZADwhsHhyHx6FetTjUkVp8polmB63qAvHb5FvCGVv6gtsPE/KSENfZ5nCeMMukZ33lBXGLbe+WYYunfKlbLrf8jNS37VV8l/684KvVBt57hPS8vLvlzveMvfqm/xDf6z+973uipsMbH96dWxo3ySbtu+R0eFhOXW4IIgbXvdT6v4bzBJhjEEF4wfqcDIVT682gRwJYy+OZ577iBx79nFpbVH/G8BXFwgDFSEZxHF0Vh7E+Syq6UtWLxTFS0ypgyVdX0251DoJWXoKwUX4q8PsbUNrl/SdPSLSf9oJYgtivBiOBTHEL1IEOFqHtcWCGK/lQGDUetPr5PRXPyYj/ZdlamJcOrq6pXn9Njl39JD70AgLyB76I1fQ9eBhL3O44fXStfdODfh+WkXwrzkh/E3/Rbpvfa3vkA0E8YknH5LubXt9TYElE8TpuqScroP5S6nt6dSh7E3J/eGXLSXVQ1FIFkPuQ0PuCplEEEfHbyKQo+M6fexb2VsJYRzXhXw1wrila6PUt3TMK4w7N+2Q7ld9f8FXwl7yzTL+6F/J6dSl0fC/CSpi80/+sy8UGLp4wt5NX9+xUZpb2+TkkWdk8txTJoib3/yzOiQ0mt9PDKGnpiaK4VdNHKulhbGNM04YTx36sJx44Rn9LvCJ9oOQionj6DgPqi0HStWT1QtF8TUkHEDxgVQqD1DOWoaQ5SSRxfonh0uncd/tpRPPiVzVwAezw0EQWxATC+KQOhHsZgPqbR1BELu0XhobG2X93W+Vs49/QvK9F2VwcEi27tov0yN90qRtATxt2j5Ht2Hj635E1uMeYhXl+cNfdB08ndtvkMHTz/pSZSSCeMdBX1OgWBDf6gK3EOD6ANbyVo4C3zgt6oc0WLocGcQwLpu2ciSQ7d5FV879wZewiaQKKIgd/B4WRu6f+t3rhiBC0zPEqCs6ppH35bQPsLK3eYVxIT9HGO8oLYzb122qSBinwavxWu55uy85MJsMn75efe+G1/6QbHzldzv/e6T45Nxs73HBK+o2bN8jp488K1PnnhY5/Anp/Pr/pIs7IRyEsc3q6hhQh/EiHj+yhDEuq46E8eSz/ywDeJAYvi5CKiTEz0hDPhCXs/Lp/mRtQ1G8QBZ6oMy3HNqDBRb6WYQslstXeuXs4SdVEGvQUySI1eYIYi+Gzfwl09YGN6PCuAHvr3SCuLGpycTvjle8XS4981nJXzmvcU+rNK/fIQMXo2AOn4fP3X6nXD30aRk487x03fZGkeYu38FRj+CpT0V7hVQniPXzQ2BbFOSiHAW8cWr1cV3Ix+WU2exwhiBO8poiIJ+ZktzvfwGbSkjVUBhXR+4fekUmvCC2e4hxTHpLXsMEyzrW1ZZDGG9cemG8Y+cu2X+T+rsYf1VQ/wtfkr5nPyd9Zw6LtG1w9/967GnX6qPw+qiBK5dk6rwTxJu+/ZfNz0NsB2HsxgU/ZviriQrjhxfFQRhjfDExHGaMtazCeObIp2Qsf8V/OrDrkVyWkBLEcTTywcoxX3spFrocuf4gWiWLZLEHTrnlQ9t9991nKSHLSwgu6qSvr09OP/sVkX4NrOJLpk0QpwOaIIZhxfcQN6j4bWjELHFDkSC2vNr+136X9D7/BRm8elk27dgrUyMD0ljvt6O5XaR1vb0HuWnX3dK89UbViRoctmTce5x6b2YpEDCeeObh6yCIQz7DigSxLyczxiGvhks37Z7GSRXGD2GTyTxQBJKFkvvbCyqI1a9A/E7j9Uv+eLRjEjPEPo9jvsgfxHn4hChv/ZF6W2ZhnMdtLxUwqz5mdDjlQ+H3VQTXdW6RpgOvlNYt+80X21OiPbNnHxfp3iV1Kl6DIN71/b9lfr5BBXEQxg0qjFGus7RZh4cwcxzGER0zYmFs4tgLYxPEBWEsJ74os2N5vwWElCfEzyGeziK0letTjoUuR1YW6oVIKRb7R17N8um+KIe6xW4HIdUyNTkh+VOHRAY1KAyCOAlU1CoUxJghMGGsyzSqMIYIjgUx2qDDD7z+u+WqCmO8fql1w3a5+qJ/P29Th4ribuneeaPU6XY0yrT26XdiOcICQntVUnmGxqbk4rkz0r11j68pUBDE90eCWI89O/6QhqAW5SjAjdMFC+J02QtiBN6JII7qJvHAn3HJ9XwOm05IVfBEwfzkPnDGCWJcnRFfMo3j067YQBnHdnR8mzjOOvY1XS5hvPNekcsvlBTG++98heSf+5zztWU4d+6sXDyZEtAtXSaKu7a7E4jNjboOjAcwJX9U/XTnVqnv3CTT558xQbz7B35bx4A6E8JBGLsToxDG6vebW3RcUN/vZ4/nFcaoN2FcPGMs555wvx+bKOZMMSlPiKORhnwgXS5HNX2zWOzyZHkp7yXJshEOjPgAQT5Ypcz3wnJCqkJjC/z9TZ96RGRswAti/yAUO2uvVqUgdvcSO0NwhD5OEGt/95FmN7zheyT/4sP6ES3S0LlZBs8elu7bXmeX6uXPvSgTg70qiPPaGZ+r2xMxfPYFqd+435fm0tK5QfJf/XvZu2+fdHW4gC4me4ZYj8MkeA3BLI7NKLCN00UJ4iB443yUhn4hj6Acl3ROjknu9z6DXSAZUPyRhZD76+Mi4+prTBBjhtgfi3ZyKgjk6LhMH+fwGWkRbD4iVWdlbwsQxvCp6/bersL4JSWF8dW+q+ZH+48/JSMDV33tXHAFzvhzH/Ulhz2osLld8hdPyKT63wFdF3x/9+btklf/LGP9Ute9Q2bOHzJBvOedv6O+XL25jQVOGCN1olitqVm3WccACOJKhHHw9TgRa+MPhLGORyaMNX9FRXyFVwiRtU818TCOpWCBkI/rSG2h3ocsJ4s9uHhwkmsK/t4uPKMqslsFcbsXxF4MI61UEGufWBCHWeJGDYIaGuotANPOWMyCJoji6WkXZA4fe9Seoor2QRXD3fvu0s8KInhWutdvkO4Nm3zZ0bxuq9RpkNre0SXd6zbIlm07ZVIaJX/1iuRPuQdwdb/0W+XqxbOWj8m/+Eg0Q4ynTKsgNnDsqSVBLMpRQBunyymILfiOZoxDHwTrE8MmjnO/+ylsMImgIC4Pv59scn/xgjshOKXHVyKIcQzimItmjOdYxvFe5D98anXBQh9vWcK4qC7Kq99sanG+asM+9VsQxpeeN2E8PTFu9THd++6UG26/WwXuacm/8JCMjY3JwZtvk/XqSzu7umXTtt1u1jlF9947zK8b+rnd6zdK/txR9wqmDftk9ormj3xCdr3jt7UDHLrrCmbUp7uTow3S1NziZ45xQtQL4nLCOAjiYOGkbCKMfTp00Z0gJGQeGI+T+fCejiwl5Q4ctKXbS/UP9eXWR8iS0qsBTuu6bEGMYCUJXJwADgZBDEuEsArfOYLYW3NzszRoPwjiwPT0lJz43Pv85XrrZeTEV6Vl3RYLSPMnn7FXJmF2Ii2GA+i748a7pD+fl8u9V822b90i3Rs3a1B3u4wP9fmeBWY1YMs/q2LyCf3c+JLptBAOdt0EcZSG5UIfE8ZDNluS+52PY7cIIQsk93+fUkGMGeJYEON488dafOyZRcekWcZxnymMQ9nXpYUx/iXtvi4pa38IYhWZKOIE48z0jGyEMN51n8jlwzJ8+PPqElTYpzh/9oz60j3SfcsDsnHjJskPDMilK73S2zcg53BbCU5AZmD+d9NW9b8qiHGSsfdFkU0HRfpOqSBWv7P9Tjn7sd+xbdGNc/8wHuAkqI4BrW3tyb3FJYWxF8dujNFxBWNMLIphQRSbeWGMFK/KIqQM88XT6XqUS/UF5drI6kW9DlluwsGVPojicjofyullCFkucn99zD1ZNFwyHc7MW0CSClaQmiH4cQEQniyN4KacIIZhphh9IIzrdVlc7nfi8x/ANc7u8+wzmmTs1BPS2LVJ6nRb8s9+RkYH4ieOziU/0CfNDXXS0qhqe2pMei+d9y1zGbx4UgYf+3uRFz4msv/VThDjKddxAIt8YiGITaXXRBBHfZKH+0SfgRmt8UGb3cr974/oNhHOglYGv6cCuT96xJ1gSq7KwHHnj0ETxD4f6sPxZ/UhD8s4/mO/EtJywtiXbfwPFoSx+kw8qMp10zrdFhgE6cZ9tzthPNon44c+IkMXj+ty2YyMDMuVi+fUZ6rrVZ/Zomk5xofz6oc/LTJ8WQXxDSL9Z5wgxueBugYVxv9HTn/wQdvGMA6YIIYY9oJ4jjDWPiaMLcVGwP9jrFErJ4xx+TQEsU9zf/yo2w5CShDH1XFsXSoPQt90PVmbqMchS8ViD5pSBx4PRrLcmCBu3+QFsYrDkoLYp4kg9jPEJoYhhL0g1nxaDAdBDDBJPDU5KVNTk3Liob+1+4bts7BezNSc+rLIsc/K5NmnpbF9ndRtOiiTF49I/thjMoYHbS2QiaE+u3Rw9ou/K9KnAeOB1xYEMY6zYEVBbLBQ9gHsUgjirDYLuBFo+z5FZTXcMxiWD30gjMdUGA/3YjcJqRgKY/V/PZ+3+/PteEqfeCoSxCGNjj0z1Ic8LMMPLIUwNrGpfhkt2j6rn2szxbotuFQZ6ca9t0rdrnvtipuZp/7OTigO916wZRbC9OS45I8/IePPfsyduLQZ4pNOEHdtd/f0+m0y/61jyOkP/Zpuy6wW681T1tX7B29lCeNEELvnTWDscII4pLpO5OcTxo0Qxl9x20FIilKx9WLja8bnawsXoZLrRrkDigcbuRbYPXQ2Q6zCcKGCWAMXXCaXCGINcNKzxBDEdsW0/7vWVcjJL/6DE+JpQWwzn5p/9oMyee4ZqW9qkfqN+6zfxIlHbMZi8PwxmRwdtnWVY3J0yO6Byz/1URn71HtEnv+IyPY7RPa+UmTzTW6/sE1m6cBUzcI6b0k7gllYqXyGZQliqwtlBNbIhxTtcRlp6BcC97C8N7yuqcahyCPV0pN7rR5TeKJ0fFypWVmP6znHIVK0R32tPi7DH6R8QuI7orRSYazeEwISmCDWz4IgDmlsG3bdIC17X+JO+uXPyfRDvy35Jz8ig2ePyNjg3FtJ0kxPTtj7h/HU6uFH/kpktF9kx51S173LLs/GPcTSscVtH3x1WhirQD394V93ZUPHCwjjSBCnhTGuOMLYgUuo5wrjYBiTvBUJ42AqjP/wYf+ZhMyFMTcpR53+EfCvoASVHjwhn5WWMhvMUmlseOhQnL70pS+1dabh06fJYsn9/WV3Ly8EcQgwLPBIBSVeDCM1QRxmhaPZYbyL0oniLEEMSazHhv69H/3I74p0alCFs/z4LKw3CGJcwoi8Blz1b/4PFoDOXDgk9VtvsWBrZnRAZOQqroF271DGbAUMl3yH7cYri/AQqpFekYvPuaAO79dcv0dknQZ2COjS9w+XDVhD6oPhon7pfAnT49jl44A65JEiqA5pibqi5TUFlmJbNbj/hR+xtJahKF4YH37wHT5Xu9h9+eaPCr5OfxTKsT8MeSujPVi6DAvr8BavM6SYo7Cyr7M+zuydvvDNWg+/G/yvS50PTm5fsbLzxRCavWdelFn4yoGzamfcibONB53PxKvt4DcBHiI2NS4ydMnNBLetd75S+zV2bbFYZPbS8yaIO77hF23dQ5/+bdtM22eMIZhJDicSYDOTsv+bfsb6Olz8E64SCunk+LhMT02pi5tS1+ZmvUNa7AOD6WcEw0w+thsz/dOaIq++v+fHHvCfSWqJd7/73T5XzFe/+lU7TixGidLY7MRMKi1loFQK4nyacm3k+gLPS6oETn0+KukTQN+0xaTLhCwVub8552Zq7Sx7anYYFoK+ELghCPMBWbEgdoMMBHCzzQLMFcRYfHBoWI5+9PedIEYwhpkPNEAEn37YCVnMPKjoc4IYJ41mpG7LzTJz8XmZnRiVBg3W6hCsYZYXr1BCIIaA7+zjIi9+SuS5f3YzGae/Ihbg4VVNN75R5ODrRXa9RIXxXjcrXk4Qm8iMykVpMJTjtjJWsSD2bUV1SNE/vYx+LlIK4gQKYrIYen78Le6YMvPHXOwbwnEb+tjxGPUNli6nfUTa3yAtNWMM1QlfnLTFsQJmiiEg3Yzx7HQo42S6ptpn896bZdOtr5L6fffjvXcie1/h/PzVYyInvqi+8pPOb+I1fH0nXBv86u6XSf222+3p03gQ4ixOLh7+hLS/7T/qNsAv67bY66mwqfodwG/jhKadVMBYoaZjyokPvkcuX7zgyjYOFM8Y1+t4gtnicI9xmCmubMYY9T6fjF+aNs597R6pbdJxdOEYKlilVNK3mvWRlQNniktQ7mtJt4VynKbzacPsb0hLWTxb/LKXvczWl4YzxWSh5P7qqEgH7iPuUINAhYXAIgQcCEAqEcQFERwM7bEgfvHFIyJHPyvSts59FtaPgC8IYlyCh8BqZioSxD74tABPA0U8HVvFcH1zmwVNM1MTMotZYcwSYAYEsx3oj0gtPDkb1tRu+4xgztr02HMWylFAmimGfd7a1HTbXEAct5cw6wtD/1AOeaRqlvpyUR1S9E8vgzK2B0ZBDCiIFw9ni9Uv/sY/OlEFH6j+zvk/zB84H1iog2/0ZicOkfftVg79YovWAUvWGaXxjLGuuw4nLH1/+F/Uh1lirL/gk5HGftnnLfVX8Wg6Mtgvw/1X1GUOu1lW+BLgP6uuuV3aujZI5/pNMjY6KvnLZ/0M8Sel9Wv/vf88iFa3TcOf/i1b1q1DvzOcpGyOZozho+Cz9r1Kdt16n7S04KnZLg4a1/VjphizxCHNmjHGmwKSsSCkNkus/j68SxozxBgDkKKs40LPj7zSbRepGUrNFD/66KP+GMieJY4NJ25CmmUgnY/TQLocU66NXD/Uq5FrDQaDOCXkutDa5YVwLIIRaPnUTB23GQYIBEMYNMKAomkJQQxrUoPjx+IvPvuUyLHPu0vy5ghiPPUV79tV00Cn4Wt+zgVCSfDjBTHy6/bYPW0z48PadVK3R7dBBW9d+wap69puM8h1uEQa1rXN3SuNh3gBC/70mMNxZ8deuuzrrBylVh/afH2yXKgrYYsVxLZsehmUwzZREBOylPT8229xwspEHY45fwzaMe/zoQ5pcqxmHa+hHCzlM5J1RmnwQSaYG/xRjp8qJL3Pshli9PfrT2aK1dxJdScoLT8d6lx9a+c6ad+wTdbvukE27LtDNh64RzbdcK9sPniPbN5/u2zadUA6ujfI6MiwCuIzKoifsytvmt/0M+4z7POcWNUf0vHGn3DfAcB3hpOb8Ywx9gP+/uSX5OwjH5KpySkbSyB+MTuMGeM4zZoxttc1hZMQ4YRDMB2LXIr2MI6pNTS5B6gRUgWMz2sb9SRkMZQ7cLLaeKCRlUDufSe9IPYzw8nMBlIEYwg0XGpiGFaFIMbrliwW0nW8+PRXRM497t5/bPcr62dkCeLpCRPEFmDB8JRlBF8W/Pk6BJu4F+7yEZnVZWYxS4CAEccV+mmKf66MY80FjWZz6kM51ebXY32sHuVU/6JlQnvKNIB0eWx3KIe835fQJ96/kGYug7J+Jj5boSB2cJZ4aeD36Oj5t9/kZhuDMA4W+4P4GI6P49Aejts5lvIZyTqjVN2j85NoLm4zf2hpJI6R6jY4seryiTi2OieSp1SIDuf73XIzheWL8zMyOjosg1fOukumj3xSGl/3k7aOZP3aD+t3wnhWOt/0U+47AOWEcd8pOfWJP7R7iVGPk6ZVCWOsw8amlFm9WlGqn43xhpAFUm0Mz/h+9aPehFxPSh1EoZ4HGVkWmnEfMQSxDyAsiECAYdGYS7XsLvFB8DJXEOOJoeUEcZ3+7R55+qsiuPQOD2EJnxcE8RkVy5MjThBPjdsl0xa8WaCFQM8FYRZoWl2U4rLvKxDGI1rUIMwLVPxDalZJvqjsgs2SdZYP5uuK+kWGANHy2N5QDnm/D6Eua/8yl0HZf6ZCQUyWAwpjR89PfaMKYxVvybHqzY55n4+P23CMJscqDPUhH1vKbyTrdMe2CbukDwRrIV8oQ5xq3gRtMCdqg2DFLLGVNZ1SPzkylJcZ32euGHbrGh8dkaEr55wgfvFTUvfqf6nrC4LYGd4tbyn2Dehnd71ZhbGuxygpjHVsmBqVU5/8I1e2saVyYWzL2NgUDGONNxt3kPqxDGXN53o+p8sRgj9TPW6iNE2pelI7qNcg14r4gKvm4OOBSpaS3PtOqEDFJcxepIZZYlgiiDVY8QFIuF8N+VgQ4/LoUoJY/2jlyAsaVOHSO3sHcYYgVkHrBPGYyJ3fasEjAi0ElRZ84e/egkrM1rj6QgCqdRDaV16UWRXWsTA2Kwoyy9QnM8ahDkFdVE7a4nJcp5as35cRKFoe2xvKIR/2wdfZvoQ6n85ZBnmYfoZtMwVxDEUcWS56fuobllEYw6L1+GPb+clwrBf6OH84t5yIWlgscr1B0E7pPowND2kZwjf0DWlhmfExFcRXz3tB/Gmpu/+HbV+cAI4FMZab1iFB/blfFtb1hh932wdMGPurgGJhjPFGffbpL/+DGyv0R0EYOzFcLIyDIMYqXF+3INYVpTaGaT/0DeMZ8hh7SM1TTRwd961mObL6Ua9Brjfpg44HIVlW8CoiBCkWPMBCUFGwRBBrYOFmh+tNBDc0QhSXEcQWLMI0eMMl003tfoYYbbrOohniIXsYCqjfcrMu5oJKE8ZYHimCSaRJYArTYMtM83iC9ZWjth63HI4d//lJ3lup+lBO6nwfS0M+LmdYWDYd/FoZ24U8Umy/r7N9CXU+TZbxliyv67ZtpCAmyw9PNBTo+cmvr1wYJ8dyqPPtVo7yRebXA+CTi/wNjnlvmrfYILJQTgRuMC272WLMEk/LxOhIUo9lkv5JOisTY6MyfPWCCuLnRY5+WuSl79A27I9uh+5LQRC7vHpz3V08FMvvB9YFIXrz17rtA3g6tc0YB2HsQ06MO/1n5PShR1wZI46ONw0qhucK4yYbh9yDvfCpbmwqytvW+HwQw1YOeUKKYdxNsvAeiiw38x1woT3ux4OULAvhMmYEDMEyggsEKUEQm/BtalIx3CStLS2JEA4WBDH+ZhFo2YO18ARXFdDJ+hNBrEIYMwheEMvLf0iXc8EklnUBVgguQ2CpKQLTWBAjDTPEV150Qtv6a9mOHZ8meawnrg9ln4ZyOm+zx3FbbKgPpuXkc7B9PkXZ9gVpaPMW8kk/tIc+Pg3rVSiIi6F4I9eCioRxfCwnx7tP7ThGOfRNGTA/ifWlDX009VexQMQW1Yc0zPjqZ4QUs7uT46NaLhbCM1qeifpPaJ+RvkgQ3/PdbtvVEmEMX4sy6nU7kkuqvTC27dK0a9ctIltvc9sEioSxH3cA0vNP2bbgn1XpmFMsjN1bDGyGOIxR7j96+wzSYFi3GlIbk1xd7vcfQkdC9M/S/10qIT9frD1fO1k7wGuQFQIPPLLc5N5/So96CNUgiqOAwgcZFoComSBucIK4CYJYraW1RVpamqW1tTURxPX1dfq3G2Ym3GV29r7LIIixbhPEj6pwHXPBEQQsuOWtUof7gy3AQnDnAjGzOMjEsWEiGMIY9V4QI+BCikuwe4/punW9aI+DS8v7wDHJx+WoPa5Pi+GkHFtYJmVhXywfp9h2b0X7F5bxyyXLh22hIE5DQby88PstZl5hHPuvJEW9T+14Dv0iA/DHIPYzia9CGpnWm4i0MsSoy5sotdSbfs7U+Jivd/1iYex89qxMTozLWP8lmb30gsixz/hbWZwADjYLP2sp9kHX41+VVBDGyId1T0vTvpe5BytqXwPryxLG+n2eO/y4bYeJY+0eC2PMDofxCLhRyv10aGptkcVl5G0MYqhLsmHcTWLoKa4D4SDkwUiuOckssQ8W4mDCfvpU2+tU7GIGOBHEzSqGWyCKW6S5WcsqjrEaBEP2+g81vFM7P9BfCHxgo14QT41qUOQDI3DgtVK34y4fbCFwKwRhhaAy1GlQheAOQam9hzISxJaqjVwVuarCGIIbyyBwjAPLOG9lFywWysGiOrPQr5Sl+4R1qNk+hDTsS5RHau2+v9X71NYDoyAm1wcK42LKC2O12I8lqdaF1I5rlJFXA+aHsbyvM3/iy8EnJfVRGtrU4lc1oQ3CdHpS/aTlo3pdNhbGUxNjMj5w2Qviz4rc8nW6bfC12Hb4Vk2xv5rajDE+A3lYkTAuPHgL627p6Jb2+7/X3d6C7cV2Yn3B/0fCeHboii0XWwJ2FdusZlrXVWVjYxrSkMf44yv8ZxEyH4zPaxt6iiVmqQ8kHphkSYnFaggeElw+nJmHILbZ4IYGFcFeEGva7AUyUrQhOIIYxnsnYf29l/z61UYHRM5CEPsZYszkghvfJHV773fBFoKgEEDCkmAy1CE48wFaCK6wvlgQ4/UpSAfOqjA+7i7NtnVofzuGfJqU8ZnIu2BRfxTycX1SjszCMuSjPrYPsUXtRfsS5ZN2n1q9T5PPoSDOgmKNXC+KhHE4hmHBp8T+LD7Wk2M+pLqIibXIVxQZ6n1b4nMKZrFBaLeyT/XzZ6bUH2p//MN2oa/rXxDG05MTMjnYq4L4eSeID75Bu8KXen+L7QyvpbJtx6qQelEMi4WxLpcIY2ufkfZXv0uktVuXwcJqWHeRMNYxZ+iiLW+CWLcPM8YYT/D6KFevn+n3xFHIFQjjmA1qbr1hbLOqOsn9nu4jqWmWOp5e6vWR6w88MlkCSh0cNgAt4MCJl+GBR5aC3F8f0+AgzBJbpOAaYnwT3i9s9xKr6G1swuXTjTYzjNQMl7Zp93r9gbIFYhosTWvQMzOugjQRxF8tXDINQdy5VeSub5e6XffpH7YLniz4CmmcRxoLYqQIqhD8IY+Z51gQI8UsMoK8RBhrPwRROIawnAVULngstrgu3Y5yNYbtRxqW9ftStH+hPlrG8mjT5XzgR0FMrjc8ATEXJ4y9X4qPdT9jmxzL4bgP/UKKPupfCz4CaZbFbX656ISexQaR2QywCXaXd2nUZnmI5kmZGlJBfPkFkeOfF9mDE5RBEPsUvjT4Xnyu7oedwPT75IQvxLBLY2GM9xDb52n/9vu/T2TbHbYK+4F123gAYdxo6VD/Vds2zGqPDg+pINbtM9O+fh/sszV1o5atrASuh0ujvJ2AILWK/e174nyl2N9gieUWsj6yMqGXIKRWCPcRJ4FCMSGEwCXUuE8YM8UQxhDAMAhlu5Ra8wh4wlqOP/uEXDh1RGMlHwwhqEoEMS6ZVjHctV3k1q+Tupe/U+o2HtBRxAVSSEOQZWlRHgGZD8qQxgEbAj6IYFwqHQtiu7Ra82cfnztjbIFdCCh93oIr1AWL2ua1jH4WuCH1+5G0YR+8JeWoLUmxPTAK4lJQpJGVQM9Pfp3zRcmxHvkOHMNpX5Ac+9oGP5z4j5BmGdrift7MR7i8BeShvwrJuG9BGBfSGfWX0yN9KogPq/N+SAXr7bof8J3qNxNBjCtxNB9OKprvgt+F39Z12b45H54WxpiBdvUQ4V4Y3/I69f9vE9l8s1sf1h0J46nJcZsdHh8fk8amZsGTp6cmp/Rjp6we67ftxz/sG9aRGAhpwI9OyclfNcsTQkhpKIpXIOGsE88+kSUFMxMIDJJAIY37e6vTFJdPQxgHcdyAvNZhUXfGHgHPtBw99Lg0qFBuaGyWgd5LGk9NSktruwY9GmDtuEfkhjeI3PvdUn/Pd0jd9jtccOWDKaQWXCEfzOpgCDZ9wBkLYqtD4KaG4wOfg8AqFsQmktVOPSzSd9IJ41ldDv0T08/F/vpgMakLZm2lLOpXzvz3VChj/5APaZS3Nl23/x1QEJOVBE9EZDNXGOOY9j7CfEh8fPtjvEgQpw31auYHYFoXZp+TZaLUtyFWsFnaOf3Q5vImUCEyh/vdPcQnVBDjBKX5V/hML4wn1Z+ijHqsL/jgkOp+mP82/+byZipcMQOdlM0iYbxln7Tf9mZpf92/Frn5LSJ7Xi6y6QZ7zkVb90b5pRuelMZmFcTNLSaMMZZAEEMY47Jqtx9hv7BpUVpEVE43kZqH8TUpB0UxITUDDvdSZ8sxQPhBArrZJSaEEYggIIGmnp7EJW0TGg/NyKHPfdCeEtqgAUyTBjK/fvdR+Z83amDT1iktB+6Xpj33SuOWG6Wh0z1dOohEBEtJGSmCxThNAjCfjwVxELxB/GJggxjGfWqxILYAdEZ6fuDOgjC2gE77I7DCviIN5Tgf2opmkFPm96U47z6zqGz7pesLFPUJ+dDH9aMgLg3FGVlpmDAOPisc04lfQRrV2ZU6oS1tvj7zyhW1II5t+di03nye62/CeE4frYW4HOkXuXJY5OQXpefnfqjgL4NvnRh0whgCGcslvlf3Ieyj+VEneoMfQz5+h3GxeWGMbfDb2L79Rmnfd6903PBK6bznm+RXbjmk24wXFuCp02o6puw+cJMJY7ssG4Z1zPh9CfsYG7bX8iCkAZTrJPc7H3dFQgjJgKKYkBog996nNSbwgtjiBR80IJAIptRp4OF6ueBFoxAX1KhNTkzI1CRsUsbHVGQ2NKoYbpbmllb51TtesKXA+o1bCgFStHwhkPJBoqWh7NM48EosCtrMgvhFqgYQyOEybdRjXbr+IC573nl3sTDGvuPz/f4V5zW1bfWWKYzj5SLz+1jYp7hdl7HvXy1ev/XTNv/7oCAuDQXx9YXff2l6fiIIYxzX4dgPfgKpP/6TYz7yEbE/KGt+Pcibv/B1EK5WDu0Qn1E7yrpts7ilxQTxl5wgVnp+/Gu8L1WDf8S6IIhBuCLHhDEM2xylug/On+vnJGX4eldfbFrv98MJZJ/Xf13rNrjPU/7rnkfciVZvuCUnjB9uDFFLfHJhf83C/luKtQVCAakfAwkhJAOKYkJqgSCI42ghBBDBkoDCBRwIXOzSNQ148C7LifExE8YQxLC6hhZpbm2TVrXA/7zyBqvbffBWXY0PiCxIdPlCIOjqCmkIvFKGoCykReYFcZjVwO5pENfzc++09afFZc8PvkSk/7T2H9N++MzCfiZ5+x6QYvuitvDdWP95LARu6XywQLLvfv0KBTFZ6VAYl8YJY/grHOs4tpF63xEEcVJfzvwymZZqx+fFdbEQtnIsiI+oIH44EcQBCOOef/l650/ha+FMza9iX7xZHj4ZfitKdX/C65iCLy8vjLFtuo0+v3X7LnvnPcaNX1IDP7flM1Lf0GCv9ouXteXU3Dq8me/0ZmVfzKonhJB5oCgmpCaIz5CHQMGnibmAKpyVt4ecTE1pfDThRLHa2NiIjI+OyoSK4o27b5CWllZpURH8YN+b5NfyX2uzxo14VZMa7i9zwZMLbFzQhIDIBU+FNCPYshkLlJH6gCwWw7Egtno1Tylx2fND9zlhPOdSaljYf28mjLF9UV3yHUVmwRq2OdQhj+XCsvF36w2/ilBvgRsF8XxQjJHVQLEwVsPxbYJYU9SZf4v9RdrgF7Lqg6Hd94HPQ5r4Lt8WC2P4ubG8E8SnVBD/fLEgjun58be4TPCz9owG71tLCWOrc76u4OO9ANb8XIOodcIW9yBDELfAdNxobm6RX+n/Wnlw4K22+eNThXUEf5qI6iIL++3bzKdGdcD6WMaKhBCSBUXxdcacfES6TMjSgcAgywoBRri0zWaITRRPmhjGLDGE8PioimIVxm7WeFz6rlwyIWxBjRqeTt3Y0CgvPvklXV/hPrMQOIWgqZCmgiykJoZTgZgJ4MiKBDHymrZv9PtZmp53vcwLY8wY63qT76TwHTjTOrSVDF7T5vcns81bWBfSCApisprgCYryJMIYxzoI/sXEavAT3swnlPIbwTd5X2Tm2+Dv0u3xMua7dL1BEJ/+igrid2l9aXL/1O/Waz7Y+9VEGHufHNqxbstjH3xZP7/g670A1vxcgyB2Y8uLzz5pY4edSG10J1NxEuH0ufPSe/JZWyfMxqUiXxz2GZba7zntPm9GSAHG3yRNnf4R8K8gg3JfS9wW8llpKbOX2/s0nbenLabySO+//35bb5oHH3zQ5wgpTe69z4i0rRdpaldrEWloFqnXAEQFrNTjVU0NUqcprF7rcPma3delaT3q6us1VqmXGfsb9n+fU7i02v19dm/dLVPTszJ44Zj+8bsgxoITbXdBCvIuWCqkPpiK00QQI++DMDMvhhNBHJu2r98jsu9VUqfpLPbNAiLsOVJ3TCZ5PJV65KpI9w578qlrCtuJPvE2R3kzbKdPrR0p6oLpdmf2j/tiH9FvloK4AijCVh4ffvAdPkdKkfudTzj/WgcfW69pZHg/r5n6Xu9/C2nohzL6hjLMzzojj0tOQl1IQx18HZ7K33tU5OxjIq/9aefrkj6a2A+Xr2vulIbZCZk6/5z6xy/pZ2pfbB+WgT9t9GOGjRehTc22N+yHSzFOxPtVh7ED9d6Abp39MLGLrO7Txp0HZVIFc/6sivjgq82HhjRY8KlIg3mfCovHDBP1MF8/NSY9/+Zr8elkjfLud7/b54p55JFHfDxTn6TpvHvrRnEeaSkDpVIQ59OUayPXD3hPsoLBYEHIogkBRRJsRIGGf6In8u6MPGZ43fsm8VAtPFwLs8Xj46OaH7cZ4snxMTvTP60CdVaDjf5zR2Xw/IsWlGD5JFiJA5eQT4RhSEMwgxTBDPIhsPHBTbAsQbz1NpGbvkba9twt0rpOY7Y2qW9uN6vTvBRZu3tN1F3fKjJw1s8YY5tS34l9L1Ee22wW1dlySOP21DqScuirqS2nvwq8koSUhYJ4ZcLfy/zYQ6zsWPfHfpGVqg/m/UaYGQ4Gfxfy5kSQDz4GZTX40jBDfOarIm/5z+oXuyMf2Koit818Y11zq/ORui2z6hu33PV69Y9vcuvAtqf9r/lmTYOfNn9WnNoJUStj/zAz7MYUN65Mqk1pV6T+9U22nim5evqwCuLDbl8Snxqn3or88jwWj3fhuyI1C+NpMh8UxdeYcgdl3MaDlywpFiTo31Q6aDArBC8IZFwAEy6fntC4qGBTKohhFtR4s/djwvyyCHCwnsSw/lAX5y31eQuMQqCFNFgUkGUJ4t0vNZG7++7XSkNrl7R3dksrrL1LWjs61bqlDeUOLWtdC1Kta+1YJ62vepdoFBbdY5z+XjJsTkAW9imuw/ec9V37vtpW//qflp533uN/OYSQtUjTfd8dHf/BL6h5X5tYkY8I+WDel8DfJeuI2mJhjHWNqyDufVHk7OPS9M0PqgbuUGtXPdwhzZpvRmrW7sra1qLlpsYmGR6blBte8Vapu+Wtui79PPPNmoZ3wCOFr0SdtXv/nUrt4YpWVtM8xpZiMYzxwpn19xYvU/iOsH+hDinKaPNpSQvfU/QdISU1T6WxNuPw2oOieAUw34HHA5MsmhBomIWgQa0osHBBhwUoXugikMF7iU0cq2HW2J3tTwc3WDYERiEfm68z0Ru3a97qNMAKgRZSs0gAJ5fBhTpt3/9qqT/4WrnjNW+T7g2bZM++fbJn7z7ZvWeP7Nq9R3bs2i07du6SbTt2yrbtO2XL9h2yZet22bRlq2zYtFnWbdgom9/2bpHB89GMcYnvJalDvlS/DAvtSMP6ZVZm8vqZpCycjVzZ8PczP5O9J2T91/zkXD9hIi32JZoG/1DUV8d+tMHfJXWhHubzWB+WtxnioyLnnpR13/t70tm1zl55tE7944aNaps2ycZNW2TTZthW9YdbZeu27Wbbtmu6dZuuqV5ufZUK41vDQ8P85yfCWM18OdpgsU8PKa46Qj4Y+vt2pNNIMc5gvPH1syFFf5/a/qGM/UM+WKo9qa/ASE3COJtUAkXxdYIHILmmWGARBRcWdESBgm9zl745kWsPyfIzwYVZYbVwtt8HNy6o8QFNksYW2tOmbRYoaWBlAZbmkSbC1wdgcTBm9drnwOukbt+r5I5XvEnq6+qkQa2xoV6amxqlrbVFOjvaZV13t6xfv042btggmzapAFYhvGXLZg38tloAuGPHDtm5c6fc9a7fUGF8wc8Y6zbF30swC8h8W9gva4vzOKbVwjIoJ3n0gYl0fPMvufv8CFnlUBiXp+cbOqRJplUY/4T3A8FHeAu+pEjwRYY2+LusNjOsR1P0sxliFcQXnpZbfvofZLv6uG3btqm/2yKbN2+STSqKN27cqP5wvWxYD1sn3V1d5is72lulXf1ma0uztDQ36RbWyf57HpCG279B153hm80Xo4w23277EadOGNtJU4wlSFNW6J+y4Fctj/30dUm93/84b+UoX1QO35MaIfPA+Lx24YO2SlDua4nbQj4rzTI8mCidhnyph2zBXvGKV9h60/BBW6QScn/4JZG2DSLNHSKNrdFDU8LDUupdioc/1LmHS2jGle2BLDH6N27/8cOb5aPgo8hC4BICGlgIhkJgpeUk6PKpBV7x7ITve+C1Urf3fnu4V51tIzbTP/wC/2wffLmMGZrWY3/r6+TkB/6TSPsm972AsM3Yh2T7o/1I9i3kvRUth3a/r1pe952/LgMnnpSet7oHzpBsKLZWD3zoVnly/zwq62+6X/o//pvO35qvjcweSuUeUuUeyoUy8toGf5runzaAh2r1nRC59Lzsy/25zJgvCnEHOri81aEU8lZG3tf5fpZFXmOPvpOHZPbwR3U7Ug/fMkPem7WHfQn7E7YTPhnb6vy1/xGl9oEOvx2F1O1L4l+DmU+Ffw0WRHY0ltgJVc1bnZYnR6Xn/3m7fQxZm5R60NbDDz9sD9Uq9bAtxAShHPJxmmWgVArifJpybeT6QVFcgnJfS9wW8llplgUBHKchT1FMlotcz+dV8EEUd84VxUnwglQddRK8eKetKXLJX73+rRZStSQtF7yE1AvEEMQkAYsPYoIls8I+HwQxnjC97xXu4TC6VYVxJckUttsIfXydz7sk9Cv0mfjSH7qndON7AbEQTvYhbL/fPzPfHsz6IS3sLwTxcO85mfrqX0rPT7zNrZ8Qsub56cd3S1PnBun/xG95f5sSjLGQDO3wqaGfBubFy/jlwMSIE8RXjkj7N/+yLhV8MhKkiD2sZPVJHj99P9fmsyFjVS4/dfW0yLHP6HZA+Op2ViSM4+3FtoZUzTbdb39C+Nw4xUbAp4Y0Nu+D4WODT84cT3wdxpHJEen5mW936ydrEopishjUSxFC1jo9uddqcOAFmgk4H0QUWRBwSINp2V/65u4Fi9siK1kfBSkmbH0+WBC7SQCjVkoQ77xXZNdLdNOnZGZsUC0v06OwQZ+qJXXBBmRqxBny00hH+l3dsKZmfTKp6aSmdXdrwDTSq5/r32McB2H4LiwNdf67su8TQZsP3EK7fZe+nwZ305PjMvXi5yiICakxhp/6Z5kZH517f3F4AFTwycF/wPcF35H4FJ8PBv+Ce4ivHjNBXPf6n5HRgcsyNnBFq52ND/bKeP6qTGg6MajpEHydN80XfCB8orPJ4QHnD4OfVLOnV+95hfPDwZ8HH215b/DVYQyJ6218CO0wlNPmlwupnUCNy5rC5vSL6kI+fFchH1JsLyGElIAzxSUo97XEbSGflWZZmBWO05DnTDFZTnJ//BWRFg1uMFPc2CyFs/rhjD7SOmd2Nt+nc9C/cfszR4oMUgRqIU1ZHJiYIaCJzIImH2BlCmLts+mgyP7X4EOvDYc/rt9Vl/tuQDq4CvuCPPYRhP0v6qPbrvXrvvM9MvD0x6XnO3a6voSQmiL3gdPSddsbpaGlTfo/+duR343MrlBRPwJfbO0hRRv6+DzAJdP9p90s8ct/yBbzPyqkmr6e4SsiFw75WeESM8bJLDG23e9XsHhcsaElPb7Ah4YUGZ9aPh5TQj74We9r02OKjSG+bmpcev6fb8HKyRqGM8VkMXjvSq43EMWELCsIHBAsxMFDYqmgoqR5kRqf9U/WGdWFemuL8mlD0BJbliDGZd/b7hAZ7ffWV8KuioxkWW/1tvs+kfEB3Q7MGOt2mPj1hu/K8gjKfMBm+x/qfNBmZQpiQohIz3fukcHnPiPT4/6Bfomwiwy+r8i/RPnQH77GZoiPO0F82zeKDF1WwQpT0VrKRmCxn4t9pPrP2BKfGnyuNwje9bud78Z2mB8PfjvOx3WRhbEg+PZ0u40tJSy0TeO7i+oTQ33c5r+34LNRR0gGjL9JgDPFJSj3tcRtIZ+VZlmYFY7TLONMMVlqcj2fc7OfTe2FM/tZZ/Tjs/kBZJM/e83o367LIkXggToftMUWApMkWAmpWhIcqZkgHnf1sSDG5+5/wD7KkWyEz0blkE+qUm1xsdK2qxp0Nra47wn7aPuDffD7lRjqNLV1hf3FfcQUxISQArkPnLEZ48HP/74TmYnfVd8R8mGGuMg/awomR0Ty50QGzorsud/VgaKZp5Tvjsshn1UfF+NCelZrWEU1ZqrjGeM4NQvbjhTrDvuJPNaHFCuzHxHwoSFFBil8bEgji/2xWTS2BFEe6iZGpOdnvxsrJmuYhcwUpw2zuOk0y0CpFMT5NOXayPWDorgE5b6WuC3ks9Isg9BNp1lGUUyWg9wfPeJEMYQeHrQVnnaaBGPqqM1Ze0v7bfvz9n//CEpC4GKWFbCENAQsSL3gDYIYwUuYJU6CGjWsGzPEyef51MDn+dQIfdTG+m22o+fn3unqFknu1/+h8B2BEIBl7Sv2074Ln9769RTEhJAiCsL4D5xvAYn/9b64SFTCtA9eG4d3nA9ekJ5f+BG33CLJ/drfuatxIGSLfL7PFAXvUd34oMsHIYxttIc3BmGMbUd92Bddxnyo38+szzKCL0cKX+rN8rHPDf5WLfjkZPzwghjjCO5NRn50QHp+/ods1WTtQlFMFgNFcQnKfS1xW8hnpVkGoZtOs4yimCwHuT/4khPE9gRqBC4+mAmBGBy1OeuQZqB/t/qjOI2DlSRoQcDi00QQh6BFgxSI4viS6XB5nAY5SxXwLRUWOGJfw3cU9q1oX7F/vh5QEBNCSgBhLJdfcP5kjg/2+UQQax0E8dAls5XkH3O/83E3jsQi3srBUB/2Ldq/OWNMyGNc8amNLSiHfORzzeBzNY3Hlnh8sbK24X7id/8Lt1qypqEoJosBnokQUiP0/OirfNAQzqTHojRYXI98MC0XidiMcqgL9XhPZGJjxYYgL0lx6bT2X4GCGPT8zLfptmlQhu3FflmQ5gOzRBD7MqAgJoSUoec7d4tsucX7D+87zCIBaIJP/TXuIR68KCtNEIOeH3+L9/06RtjVP8HvR74eZXvnPMy32zLB/HJFeaRhnam6tGHsMBEcyiH1YhnLEkLIPFAUE1JrWKCgAUMsXmMLAYu1+0DGgpy4T5z3bcGS/sF8UBTyEMGJjbh1WGA4uyIFcaDn332H2AyHiXjd5qyZC0BBTAipABPGW2/z/g8+JBLESCHocO+uPSzr8or1jz3/5q3Ot5tIhQjF+KL+3ny8F8aTYQxQS8YNmB8zwngSzOqj1NYd8qm6qdAWpSaGnfX8+3f4LSWEkNJQFBNSa1jwosECzq4ngUlksagN+TlCN20+8DFLl2GxEFZDoIdgCcGLicmVLYgDdgkeHlKGfcR3YsErTjK4faAgJoRUgxPGtzo/YuZ9CfLwm/bk6N4V7x97fvIb7GFWJkpt1hZjjBp8ZSKMvSXjgvejNmbEBmHr8yZ6fdkEb2TW7g19Qn8zfL4XyYQQUgEUxYTUGD3/6o0u4ErOsvsAJZzVj4MWK2ugYWf5o/pyhvWENBHBSDVgQtAEQWxiWLcB26PB3moQxIGen/0e93AZ+/6wHxTEhJCF4y6lhjDGSTY1zBzDb+Ipz6N9q8Y/4j3APT/xNuf/TZiqfzSBHI0z8Rhh+ai+yDDmBEuXs+riMj7bfX7Pf/gBv3WEEFIeimJCapCeH3vABQ8mimEhqIhFrDfUWb22Wx3SkI/rI4P4tVQFsM0Ko6yGz/EicrWJ4Zief//96j1VGFsQq4IYdRTEhJAFUrjHeMr5SgjisYFV6SN7fuqbVBx/nRtTwsnD+LJqmI0bfpxIxhQ1G4fivLaHMvomed8Wxhwzv76wDs4SE0KqgE+fLkG5ryVuC/msNMvwROl0mmV8+jS5VuR+68Mq8Bo1V4dHIro0DarsT9v/7evfruWDKAyzG1bW1O5bRjlKbRkNmFapEM4i9z/+2PZ5Le0TIeT6Ya+Aw+uOVDiuFb9i+xSeol1qjAHhibw2VLjxwlIbY2AYX4L5scUu0y4eYwB9cm3Cp0+TxUBRXIJyX0vcFvJZaZZB6KbTLKMoJtea3Hv+zonj8NqMghL2SchrQGKBis8nhjoEJr4chLFfjkEKIYTUNrn3/H00vvjEDy0OjCM2uBSnyRgTxhsYxhhNoxVwnKltKIrJYqAoLkG5ryVuC/msNMsgdNNpllEUk+tJ7sH3qXeIz+wr+vfqMz6PNBWo6N9sOGPf8ws/7LoTQgghKXIPvr8wvsQk40uJcSaYh0KYBCiKyWKgKC5Bua8lbgv5rDTLIHTTaZZRFJOVRO6X/lS9ReoRBBaU6N+7/h0jz8CEEELIYsj9z/fqT4wpKLmxxaVWwXGGlIWimCwGiuISlPta4raQz0qzDEI3nWYZRTEhhBBCCCGVQVFMFgOfPk0IIYQQQgghpGahKCaEEEIIIYQQUrNQFBNCCCGEEEIIqVkoigkhhBBCCCGE1CwUxYQQQgghhBBCahaKYkIIIYQQQgghNQtFMSGEEEIIIYSQmoWimBBCCCGEEEJIzUJRTAghhBBCCCGkZqEoJoQQQgghhBBSs1AUE0IIIYQQQgipWSiKCSGEEEIIIYTULBTFhBBCCCGEEEJqFopiQgghhBBCCCE1C0UxIYQQQgghhJCahaKYEEIIIYQQQkjNQlFMCCGEEEIIIaRmoSgmhBBCCCGEEFKzUBQTQgghhBBCCKlZKIoJIYQQQgghhNQsFMWEEEIIIYQQQmoWimJCCCGEEEIIITULRTEhhBBCCCGEkJqFopgQQgghhBBCSM1CUUwIIYQQQgghpGahKCaEEEIIIYQQUrNQFBNCCCGEEEIIqVkoigkhhBBCCCGE1CwUxYQQQgghhBBCahaKYkIIIYQQQgghNQtFMSGEEEIIIYSQmoWimBBCCCGEEEJIzUJRTAghhBBCCCGkZqEoJoQQQgghhBBSs1AUE0IIIYQQQgipWSiKCSGEEEIIIYTULBTFhBBCCCGEEEJqFopiQgghhBBCCCE1C0UxIYQQQgghhJCahaKYEEIIIYQQQkjNQlFMCCGEEEIIIaRmoSgmhBBCCCGEEFKzUBQTQgghhBBCCKlZKIoJIYQQQgghhNQsFMWEEEIIIYQQQmoWimJCCCGEEEIIITULRTEhhBBCCCGEkJqFopgQQgghhBBCSM1CUUwIIYQQQgghpGahKCaEEEIIIYQQUrNQFBNCCCGEEEIIqVkoigkhhBBCCCGE1CwUxYQQQgghhBBCahaKYkIIIYQQQgghNQtFMSGEEEIIIYSQmoWimBBCCCGEEEJIzUJRTAghhBBCCCGkZqEoJoQQQgghhBBSs1AUE0IIIYQQQgipWSiKCSGEEEIIIYTULBTFhBBCCCGEEEJqFopiQgghhBBCCCE1C0UxIYQQQgghhJCahaKYEEIIIYQQQkjNQlFMCCGEEEIIIaRmoSgmhBBCCCGEEFKzUBQTQgghhBBCCKlZKIoJIYQQQgghhNQsFMWEEEIIIYQQQmoWimJCCCGEEEIIITULRTEhhBBCCCGEkJqFopgQQgghhBBCSM1CUUwIIYQQQgghpGahKCaEEEIIIYQQUrNQFBNCCCGEEEIIqVkoigkhhBBCCCGE1CwUxYQQQgghhBBCahaKYkIIIYQQQgghNQtFMSGEEEIIIYSQmoWimBBCCCGEEEJIzUJRTAghhBBCCCGkZqEoJoQQQgghhBBSs1AUE0IIIYQQQgipWSiKCSGEEEIIIYTULBTFhBBCCCGEEEJqFopiQgghhBBCCCE1C0UxIYQQQgghhJCahaKYEEIIIYQQQkjNQlFMCCGEEEIIIaRmoSgmhBBCCCGEEFKz1M0qPk8iyn0tcVvIZ6VZNjMzMyfNsunp6SSFveIVr7D1pnnwwQd9jiyE3BP6/c3o78x+be53Vwk9L/1/fY4QQgghZOnJPfErGqNohjFKRbz73e/2uWIefvhhaWhoMKuvr0/SLKurq5uTZhkolYI4n6ZcG7l+UBSXoNzXEreFfFaaZRC66TTLKIqXh9yhX3WZenVIl8ZEXrHJieJqeWpAZH2TyNCUFXteRpFMCCGEkIWTxCgNGqNc1BjllRqjTC8gRnmiX2RDs8hwbcUoFMVkMVAUl6Dc1xK3hXxWmmUQuuk0yyiKl4bcs78m0tagf+m+AtivyP8O93csbMB5TAecrkaXD+sLqwlC+RX/3lJCCCGEkDQWo7RrjBITYgpwQGOUqRBcVAhmlh/rE1nX5MphfWE1azhGoSgmi4GiuATlvpa4LeSz0iyD0E2nWUZRvDByz+kAAzIHGY/lXUX3Ww9K/u+OiIxNW7m4ny+EOqTqx7rfcZvk3/tc6QEHaVw3Mi09r6RAJoQQQmqZBcUof3tYZBxKVynq5wuhDmmIUf70WTdTHOrxI+4X162hGIWimCwGiuISlPta4raQz0qzDEI3nWYZRXHlJINMhx9ksn51qOubcGlLvci2VmeYRW7WMi5VUqtrrJem5iZzWLP2u9Df27T7ncxO6qA0oTauAnpMUwjpE8Mig1NuwNqgIjl8tv5uXeoNoE6Xo0AmhBBCageLU6qJUW7uKsQnKDc5i8Wa5evrZHJ8QmYmp2V2SuMQzCojVhnW+CQ/KXJyxMUqiF1wy1f47KwYBbeSaSyzmmMUimKyGCiKS1Dua4nbQj4rzTITV6k0yyiK5yf3PC478pcwJ17dgyIGmGYdVLa0iOxtF+lulMaOFmnraJO2tjZpaWmV1pYWaW5qlsnJSRtYJmBj4/bd1zfAQcKJOkfZ0tYq7Z0dMjU1JVPor+nE+Lj0X+mTkb4hkSEdgAZUID/V7wal7mgm2TZPf4S8CuueV/0HVBJCCCFkjVFRjIL0rnUuXuholPqOJuns7pL2jnaLTZqbmqRJbWpiSkaHh2XGn6QPKeLIZo1jWlq1L+IZtdnZGZmY0FhGbVxtsC+vMcqgzA7o5/VpnHJoYM3GKBTFZDFQFJeg3NcSt4V8VpplwYnFaZZRFJemeKCJ0e/+qjp8nFW9d71dOtTU1SpdOsB0dnRKW2urXL3YK6P5YZkYHpPJ4XGZHfGzvDjDijOpMAwW+t9mj3VV9lAuWKsWWhukrgVnb9Whatqs6+9Y1ykbt26WhsYGGVNBPdg/IL2nL8ns1XGRFwZFrmjaGd1/7P5E8EeinzXLmWNCCCFkjZAdo/iBP8Qo92iMsr5Jmte1Sff6dRqjdEhrS6sMXOmT/NUBGR8YlenRCZkNV6chThnRFLO54Y0Z4SGhmE0O1qQiDmlbozS2awyk1tLZJpu2bJbG5iYZHRnRGCUvfeevyCxEOQTyVU1LxSj6+atJHFMUk8VAUVyCcl9L3BbyWWmWQeim0yyjKJ6LDTQdkeMO4NIgPCzr7nUim1qkdUOHrF+/XrpVCPdeuCLDvXkZ6xsWGdDBCAIVAwuWN9MfSDG4YB0hBXBa8FtIdYyRRk1xCVOoRx3yuMRJB7e6ziZp6GqWto2dsmPPTlvt8PCwXDp1QabOD4k83q+frSIcgyU+N0Y/s+d+imNCCCFkNVIyRsG4D+5WIby5Wdo3dEl3d7es6+qWK+cuyeClfpnoGxW72qxfDZc9Y/kQnwBcFo2T91bvqpIUsYm/BcydzIdpvSYWo0Akb2yWunUqkte1Ssu6dtm6Y5udyB8cHJQLR8/I7GWNjZ7WGAUP4bIYBSsOH6CskhP4FMVkMVAUl6Dc1xK3hXxWmmUQuuk0yyiKCxQNNDE4u7mp2Qaa5s3tsn7DetmwboNcOHlWhi70y/QlHWQuBRGsvxfM/o76mWGcfcWvCvWWYoUe1GE0gc8KfgspBpokVcOgA5HsZ5ClUVPUYYDa1ir1G5xA37xzmzS3NEv/1T65cvS8yDndrqcHdODRZWLwsTgr+2peVk0IIYSsBsrGKDtaRW7tlsaNrbJh40ZZ37VOzp84KyOX8zLTO+ZeDTnkZ4ARA+Akf7gHGOV0jIIUcUgM4g7EJKiHhavbLB7RHxDFiDfiGGVzi9RvapW2zV2ybc8OE3+D+bxcPHxG5LTGKC/k3XIx+OwVHqNQFJPFQFFcgnJfS9wW8llplkHoptMsoyieZ6C5pUtkX7u0beqSzZs3y2j/sPSfvixTl0ac6Bz1gwwEMR44Ma0DjM0E6/Jh8Ilnh1E2ww8PnBb8lpn+wPiQnIVVi8/KQt+GOgw+uBQptG1pkYZt7dK+pVv2Htgn+YEBOXv0tMycGHJnZjHwRB9rUBwTQgghK5bcM79aeAtFDGIUPCjrQId0bF0nmzdslNGBYek7dVkmLwyLnFQLsQdiFczOYiYYZcQoiEOQhj4hRkEaE4QVYhPEGijGsUmIQULsEgxXtyG2gjhG+/ZWadjUJu0qkPfesE/6+/rl3OFTMntW4ylc4YaYJvXRKzVGoSgmi4GiuATlvpa4LeSz0iyD0E2nWVbrojhTEGOgUSEst3VL59b1snXTZrly+qLkT/WKnFbnjXYMGhDBNshEQhj5Sc2HOvdrKqQxwVchNfMVyaCjhrowEMEwuOAsrKVqYfDB/ccYNFGn+bqdbdKypVN2HtxtD/c6e+SUzJxUcYwX7WOgSlErL9wnhBBCVgslY5SbO1UMd5oY3r55q1w8flaGzvSJnB0txCh4Y8WwWohPkOJZJuES6RCjwLLQcKIoDbEJ4hKkSYziy4hFEIPgyrYQm4SYBVe5dXmB3KyicE+HtG7rkp0H9sj42LicP3Zapo7mRZ5cHTEKRTFZDBTFJSj3tcRtIZ+VZhmEbjrNsloVxbmndX/W+3frBXAmFbOpL9sgbdu6Zce27XLx6FkZPqUDDc64QgTjUiMMOGFAgeEyaTygAgMNfi36fScDDcx+qGNCfYyvNuC4kIeZAPZ1IW9plA8DDgafJk1jodyJp0vqoKLtdTvbpWVHl+w4oOJ4YkLOvXhaZg7rwPOcWrisOmwWzsi+hrPGhBBCyPUkUwzjJDyuDtMYBWJ425atcun4eRk60StydKgQi+B+YYhfxCeISxC3hAd96v8kFkFipj80dDBCXQD11qY/kIbYxPL6A3FIyIcYBXWhjJgKcUqIT2BdGqMg/kCMsqtdmre5E/gQx+eePyVyTPcFDw9dwTEKRTFZDBTFJSj3tcRtIZ+VZhmEbjrNsloUxTbYhCc2Bn+Bs6n3b5Sm7Z2ybes2yV/qk/zRyyKH1TFjMME9wniAVpgFRh3ux0E5vuwoEOcjen70f/qcbsezuh14OiTWe37UOfxv/UXX9gfe8YcBJlgYhOJ86GNPq44GH5xtxeyxtkEct6o43nXjPsn3DcilZ3Tg+bIOpGmHqfvR8wo+iIsQQgi5HpSMUV6mMcrOTtmxfYdcPX2pIIbHNB7BQ7YQS4RZYAhhnOhHingEMQrQooH1ZsQpIUbJfe6X7H5gi1HwcKxetShGAbk/1DgF8UdWXBLn0Qcn7nECPxHJahC93bqf2qduV4e07eqWvTcdkN5LV+Tyc2dEvqT7l0b3bSU8pZqimCwGiuISlPta4raQz0qzDEI3nWZZrYni3LFfd844gPfpbWsVuW+DbN6xVeomZuXy4bNuoMEAg4HIxLCOJBhsMMjg/mG77Aim63C/iiJi8ZtF7vM64GzyA04QxfoZPW8vDDhZ5P5YB4MGDCjq6GBh8IkNAw7Wa7PIapE4rt/XKR2718uWbVvlwslzMvKsCv9wL08A+4XB74Gf8xWEEEIIWW5yxzVGwRgfwOuM7ui2+4Y3b98qDdN1cvHZ0yK44gsPzgpiOMQoKI9qHiI4XB6dwbwxyhe0fWOzE7F4mwYsJYqzyP2xxg2IQ+IYBTEXdinEKFgnTuKjPRWjNBzokvYd6+yp1eeOnZbRZ664Z6KEkwS2P9f/LRoUxWQxUBSXoNzXEreFfFaaZRC66TTLakkU5079hv6MHAQGm9dslpbd3bJrx04599xJGTt81d2Tg5lgvP8XZ1kxGwxxjJlhG2j88inmG2RiigYcvBYBD+3Cqwje/l98j8rIvffn/VlX3S8zzYeBB2dlw+wx8rgUC5ctdTRI08F1snnPNtuf80+fFPmcimP0sz8r97dFYUwIIYRcGzJjlAc2S9ve9bJr+045/cwxGT+qAhHPNkE8glu5IIYRo5gY9ifstSqLqmKUL2rfDSlRXMGJ+zRlYxSUca9xiFFw6xcuD1eR3HyjCuP9O2VibFwuPX1a5AsqjldQjEJRTBYDRXEJyn0tcVvIZ6VZBqGbTrOsFkRx7jncmxPNhGLQwQDypq2yaecWaZiqk0uHzriXy2OAwaVCEMXIY1YYfUsMNNUMMjFFA84iRHFM7i9/oTD4IE3EsebxOqdmDD5a9p9bt6NN2vdusFnjs4dPyuRTvSIvDhVmjfEnhkHntRTGhBBCyHJQMkZ5g8You7doPDIrvc9ojPJ83s0GQ6DikmnEKDhhX0YMLzhG+ZIuh+euIEZJRPESxChYH4Qx4pQQo6AuFsf4XI1Z6nd1SPue9bJpy2Y5/+JpmXhSY5QjqXuNr1OMQlFMFoP+pRNy7Zkz2GBAWd8k9W/bKXtu2Ccj5wfk0heOiTzV78Tp+TEnhPFye9xDgxRnYaPBBoNMsAWDe21i4LgW6bt6vve/S893/lc3QIb3D2LQxIM38JAwDLIYSHsn7Az0rArx4acu2vuWd926T9a9YZ/ISze4/Q/oIGWXehNCCCFkSZkTo2CM3tcuDV+/S/bctE9GLw5K75dOiDyrgthutdIYJbz5wmIUTZcjRllCMZVr/EPJnf1NF6N8h8YoFovEMYoa9sOuyNM8ZsD7JmXmzLAMIUY5cU523LRXul+7R+Se9S5GgSAGjFHIKoSimFxzbLDBGcXgPK/qgHJrl7Tcv00O3nBQzj19Qka/eN49WRovtodYhKDEJUsD6pwndMFIH4ZBJncClzgtkmU8eVcYeHTjbcZb9wMDDwahQf0Own3ROPOrA9HYM1fk7KET0tjSJFtfddAuKbflAhh0cLk3IYQQQpaEzBjlrnXSdvtm2bN7j5x98riMfOGsyCmNUS5qjIJ2CErEKDiJjxglGqoXLYRjELWn45QFxi077tgnsqtdcid/w/Z5TowSxHFRjKL7iav2dD/HD12Rc8+ekJaONtn0qv0ir9zk+gQQo+DBYISsEiiKyTXFnuwcPzwKZx5ft1m6btsmm9dtlBc//4xMP3x57plX9INjxqVInkQM5/+P5OQP7AX0uSu/Lbkzv+l7LAAMLssojEHP9/w36fm2X3SDhw06uk+YKcfZWBgGI5wIGJySyWMDcvX58zI6NirbX3pA5LVb3DIAX0VDneQe4qBDCCGELJbMGOUBjVFu3Srr27rkxEPPysxXrtiMqcUoGMdx5VqIUTCWe5ZUDAfSM8ULjFdykz1y6eg5kSf6nJhHLHHs1504LhWjQBAjJgsxisZmiFF6j5yXyelJ2fZyjVHeuLU4RuGMMVlFUBSTa0bu2V8tvhwJjvh1W2TDjdulcbJOzn7xiLtcGi+2x9lXDDAQx3bmVZ2s97MgDDS5ehXDeEKin101WhucOD73W65cDVmXJi2TSO75rv8qPd/yX9x+Yv8w6GCwwRlZXFqN70EHntlLYzJ0+LIMDQ7Kznv9oBNe4wAaeTaWEEIIWQyZMYqOtxtu3i7NM41y/uFj7nJpvG8YV7GFGAVjdcal0svCnHhkgQGKxk3TV0Z9QYHgRaylu5E78h7JPfVgcYyCGWPsI/KIUSzVZfS7mDk7LIMaowwPDbkY5Q0ao8RXtTVpjPJZxihk5UNRTK4JNtjg0f1By+Gs6uu3ysabdsjs6JT0PXbGvXsYg5CdcVWHioEHZyozzrzm6v7AzQ5fUjGMQSkLnKGEOK7msuplEsDlKDoji32FYbDBO5ghjvX7mNXvZfj5KzLQ1y+77zkodW9yT6g2ZjVtqtNB53+4MiGEEEIqJjNGefM22XLTLpkempDer5x0D5PCCXiIR1xijNliXN2VEaMsG4hRggUWELc0tDa5fUwzofuFfYKQfeHXJPfIL5e+sg3fAepx8v7quAw9f1ljlAHZedf+1Iyx9m9mjEJWPhTF5NoQ3mUH4IjVYW5SQTw9PCH9j50VOe7vH857R9uvfSAIU5dL567+juSa/tCJRgxOldDZ6MTxV/+XryjDdRDFAA/i6vmm/1w4I4tBB98DLlVCnQ6+s8OTMvzsZem7fFV23rbPZtntOwrgJMBnOOgQQgghlZI75AVxwMcoW27YIWO9Q5L/qo9RcLk0hB6uSoMwxtjsdR9YVjGc4IOUQmhUNbmR35WZSd12xFylQGwBwdvVJLmnH7R7jS1GQX2IUXDiPtzyhQkNjVdGvDDeEYRxPGPMGIWscCiKybKTOx7N1MJxvnaLbLlpp0zmx2QAghgP1MJA093kZj8x4MCRqu8F4cxrrkHF8JYWNzBhMKqWfR2SOz3P/cZL8LTpxeAuVdJ9D4MOBiCMKZ0N7nUJ+t0MP3dZ+nv7Zfvte222vXA2Vo2DDiGEEFI5sSBGjPK6LbLpxh0y3j8qg09eEDmDVzPqOLteYxSMzyFG8cI0xCjXhBCfLCZO2dAss7gEuhL8iXc7caBYjIJ9DzEKYjHMBONdxo11MqtCeviFyzLYr8L4zn0ao6Seg8IYhaxgKIrJspI7/usuA2eIy5zv32j350yPTEr+iXMip0ZEWurlhp94QORAh8gd3c7w/l4lDDS5zj9xzhn3Gi+GNne/cUnSA811EMj2vsEwY3yLfhe3qx3otO+n/tZ1NoM8cviKDA0OydY7dou8erObUQ7g/ceEEEIIKUtRjIIZYh1PN96yQ2ZGpiT/5HkVxBqjdDTKHf/uawoxyp06Dvtx9pqJ4YDFJIsLTJo7Wiq/0g7gij08WMtT9CyUW32MclC/G/1+6na22ewxLqXGc1C23LZL475NjFHIqoB/mWTZyD3jziwmp1N1IOm6dZu0NjTL1afwOgMdbHBP8OSsHP3zR+SGb77PzRZvUoetfRNBPPP70tTa7O4xXiLscurHfsWXIsKAcx3EcEzPt/6iyG060GzR/cZ30t4gDbr7M/90RvCky9mxKRl+8YqMjo3Jxjsw6Gx0l1v7r5qvaiKEEEJKMydGuW+DrL91u421fU/qWGuvhdQYZXxaDv3R5+SO73q1yDrEKDou312IUa4piE0WEZ/kZn9fJodV4Ja7dDqLlmK50PN2jVHuWCeyWeM1xChtDVI3OCWzn7zoboPT72zoWK+MTU7I+jt36Hdb/B5jxihkJUJRTJaF3NO4R6chcYB43H/LrRtl88ZNcv7x4yIvDrnLlHAGEmcsBya9MH6JDjqNJoxzTz5oi/bU/5hMHukX2arOdynZ2+7eR1hENNqEbF2d5P76P/rCtQEv1Jc97XY/jwniqTqZ/sApN6jgQRd2j7EK4xNXZUqmpfOOrSI3dxUuU1Jyn+YlSoQQQkiaOTGK0nrzRlnX0S2XnzotckxjFMyO4go1H6MkwhgiUMVgiFGuKYt8Q0Z9d7PM9lUxSxxoLpYL9naP3W0ao2i8pt+jCeIPnnP3GE9pHIIYJT8pw2f6ZLaxTjru3iZyq8Yo4TkxmuQ+9d9dnpAVAkUxWR7i1xrgsplXbJTde3bLiUdfcK80wP0sEHh4WAXuER7QwUfzR//iK3LwG1UY24xxs70WwHi4170wHvf0LCVbdGA78h5fUDC4ZA0w1/BIyZ3XwWaHH2zagiA+6S4/Dwbxe3VCZvrHZezSoLR0tUvzPZvsXiEb5MMTqTnoEEIIIcWkY5RXb5Kdu3bKqcePiLww6MbZ8F5ei1Hc2JsIY4zPG6MY5VqRjk+srGP9++Y/cZ87+1vS1Kwx1LnoVUyVEn1u7uL/Ftneag8xNUGc94IYD0gNMQqeD9OnMcqVURm9mJfWdR3SfJfGKMmJCP2B+4sZo5AVBEUxWXLwpMLk7Cvu0XmlDjYH9sjZ507ILN5DjCcawmkitbz2waXR3pke+0sI43vdLCmE8TO/Kj1v+08iT+qyENK4fGkpUSGJVw8YWYIYZJ2dXQZyl/xg48++FglinEho0O2AIMZgjbOxg1MycXZQxvMjsmnfdql72UZt1+8owHt3CCGEkITcszrexzHKA5tl9w17XYzytMYZuF8Wb7jAA6UQo+CqNh+f4OT9oT9OCWPEPNebSmKUgx0y0a+CGA8KWyD2TBZctZeeIbYYRdeLGAXfGyY8MCusgjmJUfZuE3npBsYoZMXCv0aypNhZ0/AkRww6966XzbftkrGBYRl74ap7eBQGIRN26hiR6n87EwvRB0eqlghjPNEQg84hFcZv+gWRQwNuHZhJXkpwufYTGfcYB66BJs5d1cEGT9fG2df0DDG+m60qlnFCAAMNBmo8BRODt+aHjlyRkaFh2XBwq90XVXTvDi+jJoQQQlyMEu6PxRipIm3rzbtk4EKfjD/b62ISXDYdYhTEG+h31otJL47nCOPk/uRlplQsUkGM0r6xS2YX8bDSXN/vuHuIfYxSNzgts/+kghhxG2KUbTihH8Uo+P4Qo6gNHb4iwxqjrL9RhfHdqfuLP8nZYrIyoCgmS0v88vvhKWm8cZ10d3TJ1efOi1xQZ4yHVmCwgcPEYOMHHDywwmaDw6CjDvbYXwVhrOvEbO6zKoxf9R9Ejg659Xdo/VKyu73MgLO8qjjXr4PNxpQgfr8KYhtspqTnXfr9hHcEYobY3mOs3xXuL/b38AwevyJTMiMtN2909yMD/C4a6iT3CQ46hBBCapxUjNJ0YJ10tLbL4JFLIpdVDEM0lopR3vof3XjrT96bMP5OFcbRyftrQlY4Ul8+Rsk1/aGMD464p2kvhP0dto9FgviDZwsxyg+XiFGQIq6bmbX7i2caRFpu32TPdDHwu2iqZ4xCVgQUxWTJcA+d8KMNZoNfs1l279sjp558UeRw3jlPDDZwmkgx2Oj/+AmOPV/rBx0I4/yUE8bfcE9BGOPBWLjU+sSwe23TUl96g3t502MLysuoiXMD/8fdC+wHm8apejdDjEuRTBD/ku+p38836KCD7w5nYm2w0e8Cwli/r5mhCZnKj0v31vVSh6dC4hKmQOohGYQQQkgtMSdGeWCz7Ny7S04/c9ydbEeMgvEUs5vhXbzpGOUtiFG0HU9Y1vH50J9AGL/Kjd8Qxhqj5D5XGLOXHh+MVBmTtGzskOlLC7iXGBzsdDEKJiJavSD+kBfEKnjLxyheGPdNyHT/uMYoY9K9RWOU2xmjkJUH/wrJ0hE/QGF3m2y5ZZf0X7oqUy/ikmetg8gzUayGwQaOMgMbdHBpjT8DeeyvHpWDXx+EcZO7xLh33F1yvdT3FwMI7TDgLKMYBrk8BLHugw029dI4XS9Tf4MZYgy4k9LzQ3MHV5tRD99fGMCR14F65KR+3xNT0r1vk70yws7U4muenZXcx/+bWwEhhBBSayBGMXRQvHe9bLttr/Rf1DETb7cIAq6SGOVrfiGaMfbC+DtUGGMcx8NAt7YsyyuHTGxnxSSoKxOr5KZ/X+pmtcPRYV9TBTeoIMY+JTPEUyqIccm07j8E8bwxiqZJjDKlMUqfTE5OSueejSK3dbk2PBiUMQpZAVAUkyWh6H7cqxNSd/d6Wb9unQwcveTOyOKVBsE5IoWY0/+l3vPX82YddCDo/JnIY+9TYfx1Kowx6OCMJS41xmVAmFGGSF5K4PzTLIM4zg39rhtssE+YIU4EsT/7+oOlzzbbiQO7RCn6TpHOzEr+VK8J+8ab1rv7e9yZCj7QghBCSE2SvD4JwyFilD3t0t3RKXlcNo0YBW+3SAScH1vnjVG0rz95f+hPPu+EMeKH9RqjbG6W3MO/7HsvEQscwhu3t8vY+bzItO5TNdykohX7kswQqyD+sApi3D88NFk2RrGTC/gOEeuFS9EtRtFFz/VLQ2ujNNy8TqQlego4YxRyneFfIFka4vt0Xr5Rdt28T84eOSWzRwbdwAGHaE5SO8FJTs+WHGwC9mCteMb4fV+VA0EYQ0zCWR/W9eOsLoTyUgIxqYPAfPfpLJTcsApizHL7waZxqk6m/jYSxO+s4OFY4RIlfLf4nvDd9k/K9MCY1Guxe5uK4ju6XZv/3eQ+xjOxhBBCaoy2cCWbghjlhr1y5oUTLkbR+CKZIU5ilNKCONDzxp/3MQpmTSfl0J+qMP72V6ow1s9CfIJbvr7yv3zvJQDPNgkhSZvGDhDgIUYpEarkJnqkrbXNvXe5Gm5WQYwYBbPrsSD28VjPO8sIYqVwGbUavs8QowxMytTVUWlQ+dG9Y6O/oo0xClkZUBSTRZN7vHiWuGFvpzTWNcjI8T7nFDGbC6doothbhSSDDgYtHXSOQxi/7e6CMMalx3iFAl4DkFwatUTgac87dTDZpIMbBPISgAdx5EZ/zwtiN9g0TgdB7C5HKrrPpgzuEiUM3v67xVlYnx84fkXH9BlpOqCiOJ5J55lYQgghNUTRA7CGp6R+d4c0NTTK6KkBu7rKxt1w4h4prEJcjKLL2y1PUyqMH5I7vk2FcXLyvklyjy6RMG7UOAcPu8JDqvBMFTwDZafGKYhR4hnXiEbd18EzV93l3pWA9dyqcQPe8BEL4n/2grjSk/aKxSgQwiaM/feL+E/Tvhcvykz9rDTdoKIYT7QOMEYh1xH+9ZHFk54l3r9Hzr94WuTksBfEwRlqJ4g4zc53Bjam5w066Nj9O2qaHn9/JIzX6WCAM7KPqQC3S4WrBIMMBC/OIrfo4QBBCoPAxGdiYIAwvqXLL7Bwckd/XeTGTl2nbjcGGx18nCA+5QWxfldjM1V9N4Xv1W8zRPGwyuHxKanTVXZt2eC2Hfvif0e5j/JMLCGEkBqhUcd2P/7hlYV7btgn5w7ruBvHKDC73FdN+1Ydo0AY22XFKoz/bySMcQJcY5TcY2Ve+VgpO1QA6+bJlQkn5DGuIwZCjHLr3BgFs8Tr1q8vvLFjPhBLHezQwMHHKEEQf+R81SftExCjhCvacBk18rqemTEXo3RuVlGMuIgxClkBUBSTReEcPTyZGu7TUefcWN8o42cHnfPDLG9qwKlK9HmSQcefqTz+ga/KQRPG6rghXHFG9tGr7j158wERjGUgJuGw4ahhyOPsqxkGBJ/HmVMt507/puRO/oaJ29zh9/iVVUbu1G+41yT5h1UkgvjvIIjdPslo9d9Nz9f7B1rgbDf2JwhjTQeOXZKZuhlp2tftBk2AB1o0lbjOihBCCFlDpGOUln3rZGZyWsZP4R5brQuX9YarrjRdUIzyen/yPhHGn5c7vjUSxmpFV9VVQO7C/5bcJbXLvy25K7/tJiAqjVFe0BhlV5u0tGlMhPhmPja1uDgBkwv2OSqIVQg7QexjlGpP2is9Xxdd0YZYJcQoKq7zJ6+oxp+Rhn2YLNDPBYxRyHVEjyZCFgHOJqoPM7tvg+y9ab+cP3pa5NSwu+TZLpfWRj/YWL8F4gYddah+0Dn2fhXGb00J46/2lb6/2L9kPzmji5nh2HDZTqapg0aKVwbAfH8beJ7/tXlf2p87+5vuMicIYj/YmCD++1gQTy9oIAb20K0w4OAsLvK6vlk7CTErHRtVFONyKwzYntxH/qvPEUIIIWuUOEZ52QbZvmenXDp2zj2oE6939JfzJjHKIijEKDrWFglj3YYgjOOHkpYgd1mFcK+K4CB4Q4yC+GNOfALLiFGw7Jd75dz7nnSzyxDnpZ6RglvFtqslJ+3rnSD+/yJBvJgYBU/rjmMUnMTXOAxXtDXVN7rZ4nBFm4cxCrke6FFDyMLIffV/FUQuZolxVrKlVcbODKgD1DqITwjixBY2SxzT8/qfKww66kCdMMbDtyJhfEg/P/b9qMd9tVgGl0phkAmDRzywFJX9IFOy7M2vJ/fsrxaebhmRO/9bbvY6GmzsoVr/cFoHG90eDDYjCx9sEjCYY+DD4B7OxGoe9xLhvh3cQ5U8aASG7SaEEELWKHNilO0aozQ1y/iFITdeYqzE2BlO3i9FjPI6xCh+bNdYxYTx21UYQ5xbjNKcGSsAzAbn+n6nEKNYnBHFHpXGKLhcPOSxDEQyYgPsM9YdgxP2WzU+spP2LkYxQfzRSBAvZYyC73ncxyha13/issw21kk9ZovjExiMUch1gH91ZOFg1hPAgano3HPLATl79JTMnhh2jjSIYTg/PGgBDnEpgLC1y5TcoHPs/Y/Kwa9VYYztwWwwzsieG3UDAgTpwIRIrxqcrA0qqcEE9xXPsXS9L+OBXqEuQyjHgx0ue7LBBmdo04IY+4B7iHX7Fz3YKHYmNgzsNvhpqgPZ9NikdLS1S9smHXDwvkHUA58QQggha5I4RtnVJntuPSDnjvkr2RBDIDbBuBnSpYpRgpjEFWk6DifCGCfvEaPg4VtPRbECZoYhhkOMYvFFFFuEmKPI0vW+jBgFsQnySYyiqa1bU8QHqMOTrHe1u4dchZP22scE8ccuFJ20t1nkRZLMFuPzw2yx/g6mRiZcjLJR45P9Hb63gt8ZIdcYPTIIWSBwWjA4tzvWSXNzs4xczHtBps7Un3kNj+RfCvEHer7pPztnbeYGHSeM746EcbPIxTEVw+OFwSAMHpmDDOqy6jMsCOOQhgHI5+2+npHfdYNNEMS6DQ0QxP+IGWI/YC6RIE7A943vHt95EMY6CPWdvSKNbc1Sh0uocbZWNxPk/pmXJxFCCFmj6HBnYMy9rVtaWlpk+DyuZNOGIIqDLWWMgtcRYf128t4L4/eqMP4WzBhrTAARCmF85D2SG/g/LkYpiiOqiFHiE/VxXTCrC8v5z8HEwc0qQvHUamwL7k8uEsSFGEVevsHFXEuBnXjQ7xrxSYhR1PrP90pju27Lbn+bl1YDxijkWqNHCCHV4969B8+l1j8pLds7ZXRwWGYvqxBNZoe9mThWW0Ls4Q04gxnEMYTxByCM71IR6gcdPDQClyuFwcQGGpgfHOJBIx5EEov6xJbuj/t00DesF5dk4WEVEMR+sGmYrJPpWBCPTEnPjyyhIFZ63hzu21FL7tuZlrErQ9La1ipNmzvc0yuxrbjfCIMjIYQQssawGAVjIMZlHaO792ySvku9MouryMKzN9KxyhJiryOCqIxilEPvfUiF8Su8MNYYATEKYpWlilEsFvE2Zxm/XqTY/yRG0TIE8aAK4o/HglhNBfFS0vOmdIyilfq9jF4alMamRmncgku5/aw0H7hFrgN6NBCyAOJ7P+5ZJzv375Hes5dFrow7p2oDjnd6ml/SGVFPz1v/oznUeNA5hqdSQxhj+/BQLTzYwQaYMDBkWTSwxANR2sKAgzQefNKGfYdDDzPEEMQfVEHsH76Bwabnh5f++zDw2WHQsZMRuv+6LdPjU9LS5Qcc3US7x/q2bsmd+U03sw3D/VeEEELIKgNPmU7GMh3X7AQwYgAIv9u7ZdP2LTJ4ud/FJ7AwPlqssowxCp78nMQoU14Y3+/iA2wfZkyXKkaJbU6MohuEFJ+DuEh327ZBhbgJ4qIZYrWXeUF8bNilS0WIj8IJCb8tDfqvdV2HXeZe0dOyCVkGKIrJwlAnZuBsnwqt5uYmGb+Mh1doA5w8nJ0miUBbJnq+FsLYDzg26EAYPybbXn3QPXQLFA0M8xiOiCB6i/Jq1h6lRW3+c7AM0isT0rSpXQWxfgVFgnh6+QQxwABjg7ymdnkS6mZl8GK/1GHww71BGPgwsOIp3RiUcQkVDLPqhBBCyGoDz+8IYxnGNRjGOMQom1ukqbFJJnpHnCCz+CSYLotxc5mwt0NA5NkzUNRGIYy/IHvffLsbc0PMUKmlYxSr8xbn05a0+eX7JqR9x7qCIA4xCuKplxZmiHu+7Rd9bokIYjjEKJpFfuBcr9S3NNgDW60d9Wq5Dy3x5xNSBhwehFRF7uFfdhk4LXXyLZs7ZODqgMxiltguidGGMOgghS0jNujgkmU4dHxUV6NcvXJV5LQOgGEgiS0MECFvg4S3uF/SDgt9NI8HVGTVx3ZpTCaf6pXphy65/TdBPCU97/ol7bx82HcRvncMPggA9LsZz49Ia3ubNGxUUYzgAU9/xBljnEUPFh5KQgghhKwmMOsZj2cw3Kt7ZsTE38DVvowYRZcL6TJiD5lCjALhqR8n3Y1y5vQZ91qodMwR4o44n8QZaul+iWmbJsV1vt7aojose25URh67ILOPaqwUYhRceXdfdMn02VGfWTrsuwjfP05GID/qY5Q2jVHWaYyyudn3VnBJOSHXCP61keqBk4LY0v944fvO/bslf6XfPVEZTjUZaNQ0XY7LkuaA+3JwuRQEnw6Ek4d1e4oGhmDaN07nDCzBUv2K6iMLAw1S/V+0zPEhL9KbCmexrwX47mHh0jD8HvR//WydtHT6S6hx5lrr7J7nxLDhhBBCyCoDAjgezyCSEafc2iXb9+yQgUt97k0UmK29HjEKHgCK1x/h1iWNoWaO5F2cMEfgal8raxrak7bYUv1gSdmbFgtiONSHvKZHfYyCGWvEKJhdj7AHhi0Hdum6t/B7UJoaGqWpU7cDMQqqXDUh1wwcGoRUB2YYDfVYt3RKQ0ODjPUPuwEonPmDM8PAA2F2LdjT7hw7PhfbUDRIBNO2JJ8qV9LPhK+vC3n9X7BQjlKAdUMY4/VQ14JosHe/D1eXv9wv9S06MOOp2BfwQDRtwIMsEEzAeEaWEELIagRxSRjLYCiP6Ri3pVVjlEaZ6BtxYyFu5wpjJMrXKkbBk5W7dfzVjy2KUUI8YXltyyrD5o1R1Cz2iMzqgoX6kPcptgfrQIyC26sgVMGzKtqXC/v+fWpXtGley4NXB6SxVbcDJw5wGbdNvsxK7p/+iy1GyHKDQ4aQ6oETw8vw17eoP62XGZyBNcemP2KD01tmcqd+MzVgwLQhDAjJwKA/Qjndb04+lH1e/1sZaZHpjzl1UX2Mrif3peU/I21PoS4acNQmZmSkNy8NzQ1Sh9cxoA2z+vj1QBjDkpMdhBBCyCoCz8kIYxkM4/bVcanDyXKNRWbwaiQvslx8ostgHFyiZ57kLv5vyckfSK71jyTX+SeS61brUkP5tMYoGF9DPGGmCzWoabYo9kjKUb+knGrT/y4NpuUiQx0yoewNZPXHuiDYlZ7v/e+WLgcWo4TfA05KID8+LUMXB6S+SWOUTSqKEdMFluZXRMi84PAipGJyX1RRBwflnVTXtvVy5eJl9z5gXJIbBhq0q8Nb1odKBTCwJKJY8zA4/GTgiNtCHfpE/ZAPbWa+DfVmyPt6kNSHggd9LPUGQt4sVC4z4YRE+F34s7EdHR3S0NHsLk8Kl7ojmAhPtCSEEEJWGxi3w1iGq54wBp4dlc4t66Sv96pI/4SbOcaY9/+z9x4Akl1Xmf/pnLsn56TRKMtKli1bzgYHwGQwLCxxgSLt7h92RTRL2IVdECxxYYs1OZhgYww2zkkOsizJymlyzh2mOuf/+c6959Wt11U93TM9Y83095s5fcML9d7rrnPO9+4LmBZF2YVeOl2Y/WMprPjzzOSGrvBwT1y67QIYMRXtfG4By3KKWJphmvdhnjift32aWWxbf5zX23MMPyL+OUlXft7iHT+F3kuL5ycw/E4mZ2Vmalq6erqloTPmKDrJjFexkcsE/9LI4oGTAl1NsnrjWhkfGg0PkYBZoNFpLsouMYWDv5MLDKjH9hzTH2k7DSwVlpvmyxmxnYKmG0gn52ZFu/C5y3CiwANNmgAo9XUN0timAQejxfh96Xx1mkTAKIoJIYRckWgI81hWh1cYIeR1NsnaTetl5NxQOGnvOQqmwRAbF0FhuiyE7cnWC+HxgXDiHuEVOYXnKFbPm/5I2xX5SGrJNF8fDKT1lLTL6yjzs2q78NnLlKOYaT3JURrq6qWxRfMTPCcGLO5XRMhFga8UIQsH7/+Fl4IDu7ZD6uvrZXIkXjoNB+cODOUiA84FkY0Qq8G5p+Z43fr1R9VSLQtS3udlzgCmOTV3M5nncuNBBqXfs6M2XBqUBtxXjAdqYKR4ekbqG1UoN2sfjiEhhBBypaHxq7G5SRqaGmQWsRyXAe/qlHoVyOODYyEGZvevxhI5ywIotP1pEMKLfVgm8oSKHAWG/jC5osxMf1Qt1arlKFlfYsBLB7uKPpTn2+38speCNEdJcsfRoZHw7BM8mAwnMgi5jFAUk8UBx+XW2WiieAqiGGTT9AfscvgzDwLmxPWHO3PrQzt2eL+TTY91D1gWvGI7H2xSsH8p2b5HM3LzOLquwqd/NTYuDcU3viMEmjTgTM3I6MBwGBXG6yoQcDRJaKxvkKZmDfbYZ0IIIeRKQ8NXU0uTNLe0hDbegdvWoGGtXmZHcD+x9rkIQ91j4zwUOqIYbrnAVBnC3POH1IDlJmqeo1SAfhReqi00R/Fdqti12Ki2u9X6dF2XJUfBZ/vvBOjvY3RQRTFyFH/2ScwnC++5RE/CJiThAr/pZNliTkwNgqqjaW7AMYvzuKO7RBT2/3YIEh5UPCgYSSMNOqh6oAFp282Cj/dHA7GwfbTSTX94HT+8bu1a+MqWjsIX/5cU6v5fbCnZdsQN0QAzNjhqI8P2uoqS/t40cWhuapaWttZLsUmEEELIpUfjdEtrq8WyesRsiGLcz6vVWbyX3wOyx2WPj1UotPxJEMMXey/rk/HVkPngmo+1nmMAn927rK4/0v6sjTJaypwcJTH8qGh/GYHoxS1e/uuZnJGRvkGpx5VreBq2P/wT03K7SMilgKKYLJjCs78VHiZxk5oGnDoNOMNDQzKL9/4hAMFxwcEBrRe/79di4xIBJ7kQR+kBIo8tqz98PX4m1tpeqjlYja8K+2liGIa6tzERJP02bzSAMl3vBVJofKcUVv2FFDb/tfyn694t2/7Lq+T2r36FFEb/b5jBzojDQhMBaFbbrZo41EEUY7oGIdzD09nZEWcihBBCrjw6OzpUGLdY2MPtQchRRodHZBYn8fGUafR7PNRKPkcpDP9REMOIjxcLLpt2sZqP99k2RGyDq2DLYT2x7jmKjRAn/dWolaNk+UjsB1VzlForXkLSbQSao0xPz0hbe1vIUTBivK092MbL9EpLsqyhKCYLB8IXAnhQTWlua5GJsYnQn44Ko+pO7pISnXbqu/1j3dH6dmT90Zxs2VjxYJMGHeDLYX3uyFGmTh3T02loo44KCuClUvj4+V95YEEar3RYreJ341/Jj+x4l/zETe+VX7j7o3Lja2+XtavXSEPvpIw/fkYO/9Wj8sRvfkTksf6wcPzo8Jn6I352W3u7vfbAzsRqEGpubpaOjs4wkRBCCLkC6ejskFYVxbglCLGtY0WnjAyNhHfepu8jzuJiGVwqLZvbYmsJ8Eun8/jnZnlD7Mj6Y+lk64iVfI7iYDkYcrE0DzHTun1WnCer6w/L3WIbZOXsgnKUiyLdJhBLXL1mD0trVUOecm4yyzsJuZTga0XIwkgdfEOdtHW2y/j4eBDFuAwG5JzbpaLw3G/FmpL/TJQ1LVYq2gr2zc2Dje2v/QjzInhgPz3oWOn12LYgg/nTetKuMN0PvM9ww1/ZaG9h+9/Ij177d/Kfb/on+a+3/6v8t3s+Lrvedqfc8RX3yNatW6V1qlHkyIiMfPGEnH7PM/L8/3lAzvzL8zL9WJ/IYQ38/lAKu1xL0fVnn43tiLS0NAdR3KGmk1o0ADU16roJIYSQKxSIqcbGJnu4FkJ3z6oVMj46FnKUbKQYP1CGAhR6luBS6Txf1Ljs+GdVK91A1tYfWV0NIKy7pTkKSp8vy0lgaRv1pK3/53yGtRMDsbhkYP3+Gf6ZSnNrS/gd+hOoCblMLLEXIMuJdhXF05NTwcm6KIaTvhz455hT1R9Z6fW86Q+fhuCQ9XldDVigqdP/0dCXBRZYbJs4TutJ2+ta2Gdk9ZwpdeMz0tXULs2qaRvOTMrswWEZf+KMDH76sJx699Oy9w8/J4//5oflyLsek7EHjsvM0wMiR0fDk6Nr4a9Wwnbg80EswPS0Lov99HunlQacWU/mIYQQQq4YNNbhGSfNTU3S0txiIhcPkJydQQBWEA9TYtMul45xcMlI12efoz9QpjlHPi/weF2RM8R2SrUcxZZRQy6SmuUiqSXzop61UVaxS43vW/p5ukMNKohtpBgnKi7HdhASqZvFTYZkDvMdlnSa16uV1WxGHXS+rGYQLl7C7rnnHltvnvvvvz/WLj2FJ/Sz/L6OQyOy4z/dK6ePnbSRSzk1Ht4BCLGGEcuhKSm+/VfCvDnwQChpVmfXokLMX3IPz25CLZbWztUB2hjhhDDEpTVYDxwn7j3BuiAIvXTD+r20uq4nq3u/9nkd//FrxJnl8WmZxX7hTLOdbVbDax1gCDq4JMsDUNaHMs7n0zwIed3WoR3YfrykfikZ0WP/0p+Wwqd+VWRFU3iKY09zeJ3WymbZeef1cvSFQzLxieP2yorNr7leetaukmc/9IgU634wroQQQgi5MijU/z+5+U0v1fA6K31nzsrpP368nKM8pDnKac1RkJvgUuoxjb0xR8FzOSwmLyXISR44Uz1Hyecnnnd4aXVdR1b3fu3zOv5jk9McZVz3CflJrRwla6PM9cHSHMUNy27rCJeV62cG8ao/rIz1TGAndSyHbUOpx7p4+33aOZeQo2hu0tMYStxHjBzlrhvk6PMHQ46C43c2/O6Kb/6FuGRt7ruv+mc99NBDKrYbzPDWFC+rGU425MtqBmqVIK3nmW8a+fKBrxkhiweOXZmdJ5gUTv1+sNOVJtfAybaLrGkJL8A30abWrY4Rl8vA8MogGIQcHKUb5unWec0Z64e4uXPG5qT9ZnGam8YPr9ep469DqfOZabehDsucFoIGgswcQYy6WhpAbN2x1EnZtqC0uv7IthOmfZh/qdGgWXhXleARfTBOtmD/PNBOTkzKyPBw2CZCCCHkSkPD1+jwqIyOjEprS2tljhJjn5WIfbGN/CSbttQgnMKQA1geoA2L/0lfZuhPrdy3ZDlKtm6YLp+ZtvV/uZ6a9mnaZe8Mxgn2lTDN2WCrtL5Ky9Wax61Vw8n99WoYONmi+d0OzfN2dYnc0i2FyWKwCdj/lcJ4MAOfY6Va/F3MYNstR9GG3xZGyGWAophcGHBg7szgydLAgjrMhSxei5AaRohxBhWG9//BcDbQrUkXzgxtNTvLqqaCeNNLd5Y/3w0OHX0Vjt9N+/NBwQMFzAIIgo9utlr9bJ10tXRIZ2dneGolDK90yIIOLLcOt/z6bdui6f/ydsYS61lq/PhnJA2tzmBb9FBasNOOifEJe0KnbSMhhBBypaHxa0Tj2Jia3Q4U70cNJ+418FXExAjyk0tFlpdo6XUzb6cW+93SnAKW5Cj1Om9FjoKRb+QoE0mO4uI4vx5Y+hlWT7ZJ/4dtjqXaDT/0mrl5nOV2enxhGLiA4Qo+H8zAsYeQthIDHtH8qjWMCsOAnaSIv5/UbCMU7B8hlwmkxoQsnuhDjbwzM4em4JKeWuZicz7DpdhwiKkdH5VTe44Ff5k5bq3UstTxp4EBAcPNz7Kq8K3TbasbwcyB7mvWCC6zklFMj/PZZUHR0nX653k9C3y6IrOkz0vMe6nwVfvvI5YYKbYzzLgUS2caHxuzM+y2jYQQQsiVhsY7nNxFLLNQB3GGblwZVQvkIpeCEFrV9AdKj//zGTbF8wdYjRwFuUh9mqPsXDs3R/ET9/kcJTX/3Io8JWnbts/KyaPHpa6+zkaozXS2zPQHconMMF9qmmPMZ0a6wvBDf2qpn5UZIZcJimJygYR7pM0rGlqah0Q1lp89W90+F+3zsN5gD0b7QmIP9QXDUxxhD6s9eU6mT4/kHLt+lpVej+bTfV63LGDMyKwGGxiCCUaFZzS4TPeqQIyUPnkwCHQEz/QsLKxa0Mm2w9u6kqwP9cS0y47TUoP1+rr9d4FvutXrpKGxIZw9h7jX3Zoam5RJvFoL20sIIYRcaWhMmxqfsFg2PjouMjhpca6uXoOfxcJoFgtjiXzkUlErL0DshwC2Mk7Pm1/2XDVHmZSps+fLUXTZajkKPj+t+/aYpfVyX+lon8y+/7jMPnBGZj99Otinon0y2idOBft4tI9F++jJYB+J9uHEPnRSP0BJfzdmKonVdGsuXY5ESA0oismFAWcFUQzcmQEILy8HJsP75WClaBqopDQV3jmHMutDGftQmsVpZnFan4q3T58xZ51Z5uz1c1PH76WbBwgz9fgIHAgiarP2sIopmR3RzxqektLnj0jpExpsMG+FGI7LWqDR0tebfo6bTs62EfX0DKz3+9nSS0Uihv33hAdMzPq2q01PTGkyofuN7SGEEEKuNBCWxybtjRjjI2OWM2CU2F/PVI6DavWxRI5yKdBVZ3HfYz3MxLDXUWrb8wVYlp+oeb6x1DlK/vO9jXo+R8H/P9wT8q8Bzb1wvNz60VazEu3YV2Hah5wNdZRuveNaqgEcK09OYmHm+WV7GPEn5HJAUUwuDHW8uDe13oML/pJMgMVSrfj9vybF74v2vdG+B/ar4TIfNzwJEuZnO1HC/EnW6WXUQ+pkcamQO3SdFBx8LK1exZIzr5VBRw0BBZcl+TZgmzBdi2x9vkwWbJI+/4zUsGxWz5tO08Lql0IU62qL/+6/x99F7nejYKTYPhv7ovs/OzFtwti2lRBCCLnS0Jg2pXFsVuPaGG4H0tiGHAWX8VqOgviXWsxRLBYuOfoBWC8MuYnlAlpau4YtNkdBv/7P1unLLDRHybZLzbc1s7hemAtzH8TwgQ6Yi+PeKHRRntHy9JjICdioFL/mF4O9Te1ro33dL5mF/ASmn2c5Cn4xyFEaw9Vs2JdLed83ITn4SqYazHdY0mler1ZWM9zPmS+r2Yv+lUzPD8raH75TxsbHZPChY+HsH8QqhCsc9/CUFL9end4lwl7rhAd22YO41JGmr2SCuaNF3UV7GhhT8CvzQOABBQHHgwmm6f9gubovZ6WaBxtv56d73datDTyt0R84sVTo76H4sp+WwgMa8PFUSH/ABR6GoeWNL7tV9j7ynEx97LjI1nazutYGmT08IsVVPxZXQgghhFwZFEb+SOrWtdrl0k0qqsb3DcjmN94o5wYGZOjhE0Gs2Yn2mKMgTn7DL0mh88+yJ1UvhvrGBqlvapDGpkZpbm6WpqYmuwoLI9UdK7vk8O99ITxEdL4cBXrPRftlzVFyffm6z6OfVfzGX9aOS0PhM0mOgqdbax5SpznKza+8XZ7//FMy/VHNUTa0iRwdsZMBfCUTudTga0jIBTE6OGKBwRw8nL07dZRw9JeSzHFrpaLMmYtPlB5MUsNZUDsbm5SYD8tmQSJaxbrjPNWsYl5sa+zTRbJpVmobT3Jcap4rhdJ/DyjxMVqFI27QIG6XT2P/4xlnu2cJfYQQQsiVhsZVi2Mav6dGJ+yqs4mxifI9xWmOgjbyFoBR0FjNg1HmhtYmaetsl64V3dLa3CL1k9o/NC0zp0Zlau85GXvstJQeOCy9H9gtp//xGen9u2fl8O88WI718+UKnodkdWx/0g+7mBwFy6d9WVt3Lu3P1qH96frQvpRYfpIYfg/6+8FAEEb8LT9BHyGXCbgIQhaPOtLxoVFpbm4KZ0PzI7KX+C+r+IqfqXTqbh5I0kDkfWbaHwNnCDCwpD8fwDwwZPXYD7PPqWFZUPG2riPt8/6lFMUa3Is3/RcpfvevhrafkXaLycD46FhIHjCyjxJJAUrsDyGEEHKlgXiqcWxmXAXrGGLbrAz2nZOmlubyVWUmvnReLwEuS9b4aAK4pVFa2lqlubFJ6sZmZPb0mEy/MCCjD56Qwfftk7F/3C8zf39IZv9knxQbfkiKHT8ixdU/LsVN/0mKO38ixN87f8ryE8tRKnIEjbFet/60HeOvmcfjWJol/Xmxa/mE7ofXvX8+S/OQbFktK/rV0H8pcTHsvxPPUcbGgyjG5dqEXEYusXQhVxW4Z2TvUDD1lTgb29gEUawBB5cGpcEGIuxSkzp5DybW1jINMBZA0j41CzJuOq2irYb1WFCIn+MB4kKs1rJLea/MnkEp3p67bAhJAD7Cg00UxsNDwzKDdxriniATxLotboQQQsiVBmIqYpjGtNl4BdT4uRFpVZFrtw4153IUlKA0JW0tOs/ZcZl+dkDGHzguE+9V4fuuQyJ/dlCKPT8mxa3/2eJr8XU/H+6N/Z5fC8ueD1y+7PHecw3LL3L5iM2T66vISWKc9ravs1qOciG5So1lim//lbAflwpcVo68xHIUbeP3omUminH/NN5Ugsunj5efuE3IpQJ/goQsiOIb3xFrisYYvDS+paVF6jtUGFvAic4tWuHd/y3OfImAI0+DhJW5wJJOs4CUTk/bSX8WFOJnWMCIdfTXCCCVy0ZLl8kvt67FduOiGJwMZ6fx0Io8c+5fqpO6hnoTxXbvNwI2wLZAHOMYEEIIIVcaiL+IY37lk6YkyFGaW5qlvq0xGSkux0PkKMWeH5XRP3pOZv/kQBj1ve4npfian7N7aYs/+D/jyi8Qj/meG1iJWBvb1hfb2bSkbXU1E8TpfIlluUXyeflcYz5Ll8kvd6nB78TzFPxOtN3Q3CRDpUF7Lo39Hu3kPuZTI+QSw78ysnjgK+GgSuH1B42dzeEvKQaarLzETqx478+WnXgWRKKZU/cgEstsPrTVsjOvyXw+jy2fWBYs9IPn9NVoZ/25ZbyNh0tcKNjWz52V4st/JnZUAccfvweY/kfw6VzZFV6/NKw7gmADsC2eTBBCCCFXGojbHscQH8HItMxMTUtDm8ZaxEAXxHaLlxpio2JPQ75YAVyF4is1R/GcwXKMvGFb0zLtV/McJZ/LWB8srhu2kByllulqK9uxvNT4SLHf7605yYq1q2QS94Tj0mnsvz04TA37Tsgl5tKqFnL1kfpJdVpTEMVtKor98lwY/qoQcODoLjWpM/dgkQ8e3k4vP0r7vW7r0LavD2YiNte2evK5br4Ot3Tb3Pwz11zgKDFeWQUx/JL7pPgDtYO4PXk6O8OK34matntWr5CpsRhw0GfbqD9wXxVFMSGEkCsRxFWLYzCNs/ofz82wHKVd4y3inQth3FZkYuwypMBp/uC5hucB+fZCchTEa1+fW60cJVumhumqqvbrcsXv+B+2+ZcKy1H8xD3KmDN2rugKohivd8KvRzcH4JWehFxqLoNHIFcVcNDO4REbdWxobgx/SS6+ssCjdqlJgwGCBS638eBiASZXn2PoV/MzsWlgyFv+s9L5vW7r02neX7FMYlva4g4sELwuyR/iMY8YzsDl7PYaCBgCjtiDRDq7u2QaL/8/Ox7OnGP7cP8VjKKYEELIlQhiPGKYxTNVhAhn+4csR2lsbQo5SnoPq4kxBMFLDGKsm+UNaparaDvLS9J63tCfzJfPJWrlGPgMlL5MWmJdPl+t5S81yFFw/P33gP91ddLe0S6zeFAaTtzjeTXgMmwOIQBugpCFkzonDT6DZwakEU+gxlOUYS6G41m/Sw3u/SkHnMQqAoqXahZ48pZMh2XrSQJHLfPlq02rZXg3MUbWz4cLYdhbzv9+vgr8/YgecPD70P8T4xMyg/c04oX7vj0YfUYSgWSCEEIIudLACXE8mAnxDGYjxjMycLJPmlqbw4MtK3IUXeZy5Shp/E9zDc897GR+7KuVo+SXtfXF/vNZunx+WhUrfld8g8WlBL8L5CgujGOOMjmhOQryEYhi3Rwz5HeEXAYoismiKL7+52MtMHZmSDo7O6VhlQo9BB0XYVrFCGXhX6o8AGoJKUwUy4JY/b6V7vhRZsEGZbSKM7Q+Xc3O4no/2t5fpT7H4jIm0HU78iLdDfPgDCkcPgI4HiaBp3rvHxL5Un9ZBF+IEE7x12S5IEbw0bL3zFmZHdTPPjkWhDm2E9sBQyAihBBCrjQwSgwx7PEMl1Br/Js4Oyzt7e1S39MSRbHO6yJMy8L7Lm2OYlTNUWLOcL4cJRXMvkxWev8CDOvyulbL/bFM25cD5CjIT/wSas2L8JCtU8dPyWxpIuQo9jBQNV7FRi4T+tdIyCLxBx/AqZ0Zl8nxCWld1RH+mkyIaSUGHBNjl5KtbSJv31o+m+jBJw0YHlSyM7BoV+vTMl3WLW2ngSXri+b1NGClpv+L3/drdmKheM/PSPGun5Li3T8txVf/nBS/5hel+J1Lcw9P4XP/M1x2hEvFTAxrpwac1ZvWyVhpRKRPRbhui10+je0c0QTCjRBCCLnSQJxPYxlO8uLEb/+EPRC0uUdzhSxHUfNcBSepLzF4ldOcHMUNMXi+HCWzJK/wMl1HVtf58tPmzJ/MY9sT2/ofOcqlxnIUu3xaDXkK8kXNWdZv3yhj54ZFTqkgxrEAKDCdkMvApfcG5OoDztPZOyQTI+NSb/fsqOOCo0OwcbuEoriw+i9iTeloFNnVKXJdl8hK3RZ3+DAEhPRsa4WhP50Wg4O3s3XE/nSaL+f96XSr63Qcg02tIjs7RDYv8j7iCwUj9h5w/PehScDqdatlclCDzQmMEut82Ea8mgmj1TCcXSeEEEKuNDCa6LHMDTH6+JhMjI5LU0d82JZdshvj4iXOUSro0hzles1Pdqmt0BylIr+AxXxijqE/naZ1Wybp83bF+nJ9VU2nY/83t4ccZdPlzlHi8df/dWo9K1bI9NBEyFHwbmndRBPq330ZLucmRNE/Q0IWifrRDBVS5473Sktri9R1qaOHIzMRpn9aUYwV/vWX48xLDByqgxHjdSo+t6lzv2ul1H/lhkrnb4EDQSSxqmdn03mTPl/HnL5kHb4+/8zru0VetioIdQjiC33i9GJBwPFR4nhGHA+wGB0elRm/dNr3Z1ATh6FoEMiEEELIlQbiGV416PEMsQ1C+dSY5SjNbZqj4DWIOIEec5MsR7nEt3kZWzQ3QQ6wXcuXrpS6168r5wow5BCLylG8jH3eNkvmy9al9XyOckuPyN0rw4ACBPHay5SjIE9EfpLkKJqkyOC5kswMa44CUaybZ0bIZYSimCya4hvipUAwFV/Tp0elqbFRWtaqY/Wzf83lgGN9S0zFKPHjAyKrmoOjxT1DKs6bV2vgWa19frkSzINEFky8DwEjF0QsCHlfrrTlfB7vV7NAE0sEXhXoXV+5I5wVRrurUQqP3x83+tJQeBCXTuN3oJZcltS9ZoWcPX5aZs/EkWLdTLsEHpeY+T1Y2B9CCCHkSgMxGCd2Ecvs4ZHaRl1D4NSJYWlu1LwgzVEgyC5hjpJSOPX74Qq2Ds1PcNJac5T6bs1PVl7iHMXn93k9R0EfThBojrLqrdeFHKXTc5TfiFt9aSh84X+Vb+/CcUeOonlbz9qV0nfyjMz2TYjAPMnks07IZeTSegJy9QOHdmRExgZH4z072nZRhmDjl/AuNVg3eLQ/nH2F6IQg1s+q02A49vf7w30pCAJp0EmDTd4sgOSCyxzT/goxHOsV61BD4OufkMEHDkvX7RtD+3IEHXyGBZx43OPlYms3rpPx/mF7onUGEgbce+WiWDebEEIIudIovvEd5Vhm9xXH0WKI4xNjMj48Ki3dMUex/EQNohiGmHmJKBz/vXDSHjmKx+bSpEy/76jI6cuRo6hVLB/ryNPOjkvfx/fJqru3hRzFTt43SeGxS5ij2HHQz/YcxU5M1Mv6zRtkrFdzFDx0VLtdExe/fwGvoCRkicCfHiGLJx1VPDoi546eDZdQw/lDmOXOxBY++Ctx5oun0PDOUHm4L1wynRPEsx84HoIhzjYiQHpAgC0k8FRYDCgVAShXT+fX/wZGYXG2WoPz4KdzwrjzEgadNl0/Ag0Mx1+PPe7VmZ6clpmhyXCiwNHkAC/Ez+wHGXwIIYRcmaTxzG6l2qD5AUZYNUcZPH1OGpobpQ739sKQoyBOxhP4S5mjOIUjvzvnpL2c0zj80VOao2iJVyMiT0hziMXmKFk+UitHiYZ5sV79b6CMDyXLhDGutvOT91+6VDlKPA4xP0GJHGVwoCTTeOo0TtxjGrbPt5WQy4T+5RGyeIpvjK9mgtNqaZAZDTpwup0bV4YgAzEMx4cSDg4BYalYo8L7wd7wvl848FZdv36WCeL3qyDG645gA2q4tygNIG5p4JnPKgJLTgCn8+ikCieOtt/bpMI8E8YIOgjIut1LHXRsBLotHAs7E4sz4hqA1mxeLycPHpPZk6OaHKjhsiVM52sOCCGEXIXYyDFiIS5R1rg8ebikqUiDtG/WHAX9Loo9R0FMXEIKB39HZB0EscZ8F4IuiC1H0dxgKXIUN89RUFabnuYousu2bjyMDJ+fCmM7ed8UhPGjS5yjPHF/yFH8eCNH0fxt3baN0nvsjMhxzSN7VRhjGwFzFHKZWVovQJYX7rjA8yUZHRyRumZ1qAgyODNaEXTqpPChJToT+4nT4aEQLohVlNdXCGJ18nD2P3+TyPfsqAwKsKzthv5YT+etmCfpy+ZR0/8WYBKKP/A/pfi1vxhGqbEdOCOcHzHGQ8kgjB/59bjUEoBjjuPt9+rguKut37hBxs8Oi+weDL8TbK9uN7aTEEIIuSpBfAYQYc+UZOTcsDS2a+xFHPQcBfEyCuOlGi0uvPBbYZQan1EhiE+GfAB5yshUyBW+7b8nOYUufLE5SsU8avo/n6PIHStEXr0mjBRbjhKF8cdUGL8sjhjHEfUlzVGQs+ESchwPz1FUGK9dt04m+1UQ79c8Bb8PbLT+Z45CLjf6V0nIBYLLkhwVgEMHeqWtrVVat/aEQOBnAy3woK59F0lh+I/CqwNMEMO5QhDPysy/HgtBJwYb+TkVxAAPkPguFcavWRvPoqp5wEjNA0kaVKyMbe+3dzRrPSujRdJLkItv/oUYdNQQCDX4mDC+Ixkxxv07D1980LEHeGGdOCmB44xgo8entaNNDu85IDO9Y0EUx3hj208IIYRcraQ5isbfof290traKs2bukKOgtwE8dJzlCW4oq3wpMbibZqjQBAjJmP9Lohxwh51zQuK/yHJFb7mF82WJEeB6f9aOYq8dYPIbSqKsX1vWBdyFLv/OuROmTDGrVgujL/4v+LCF46NEvsl5MgLkaPo76C9u1MO7d4vM33j9opPw7efkMuM/mUScmEUv+IdoQLnBSe3b0hGBoakdaUGhOjwLNDA0FZnWPjwfw/LXAwYZcW6NdjUT0AQHw3BxgSxOngXxA7OPF7XKfId24M4TgNNZjqfBxqY19PS6nE+/Z8GGojhavfkFt+iwhhnYrFdOBtbIYw14HTHoPPQRQYdBC8EXwQcjJ7jeOt+b96xVYZOnRPZo4IY2+7bnd4TTgghhFxlzMlRDg7L6LlhaV+l+UA8cZzlKBDGS5Gj4PVGOGmfCuKPqCD2k/ajKohrjIAWv+6XzLI8JG+ej6T1fJ+LY/2f5ijylvUi3605EEawU96owhg5ip28DzlKEMZbQ46CfKu7KTw1+mKwUWI9zqko1mO+bed2GT6hOcqzpXDpt283cxTyZUD/Mgm5CNIzsYdGZPBArzQ1NUnz5i6xe2kQaBB47EysGsTsBVIY/MPwGgETxPVBEP+LCuJshFidOi6ZrgW258YuWf3zLxe5e1VwwH7/TXovTj7YpKWZrksLF8LVxHBK8av+W7xvRw1BR+uDn1JhfGccMcY+Ieg8eGFBp/DUb8YArF9nF8R6zPFQkXO9/TLTPx4uS0J/5HzbTAghhFzxpDnKgWEZOtYvDZqjNG3oCCeTkZekOQpi6AVSGNIcJS+IP+yCGDlAbUGcUvzGXzarzFGSupvnJmkdpf43e8VqkW/YLPK9O0Q2xidvV6H5u3bNFcYf3x+FccxRepCjXFjeUHgmyVFcEOsxb25vlZOHj8lM35hd3s4chXy5ufBvPyFKdiYWwNntG5Kx0oi0r1ZRHB/0ZO8sRoDAA7hwJvbj/yMusHAK5zTY4FLoTBCr78crDVJB/I55BHHClmu3m0AtfuuvSPHt0XBfD95r7O/wywcjLfFqALsHaAFCOE/xq1UY+73Ofin1pw6pMN6UBJ1GKXz21+ISC8Mua0pHiVEisDTVyzXXXyt9B0/b/d728ApESf1v+0MIIYRc5eRzlJndJZkYGpXO9SsqcxTET89RPnYBOUpJcxSMqmJ0FblQhSBWwwjxYvOGWjmK5yX5POXeNSJfvVHkW1XMQgjfqHkY8qbzMHF8UK77X28WwRsqcPIe2zuEEWMVxi+P9xjjqjYI4wcWmaPgnmS/3Q3HJclRMEpcOtanOcpgfKiW7oP+Z45CvlzoXyghFwkuc3Eftn9IBo/0SUNDQ7i3GPet4NIkBJ7sTGzDoh66Vej/P+HF97jHpTUK4n8+kgQbdaYLFMQNXc3y1McfFvns2diTsEIDzqvWirxpgzT+ym3S8j/uFLm2U2RHh8jmtjjThWMP38LTJiHgY9AZ/KQK47tUGGMUWwMOnpRZ+NSvxiUWALbZz8Ai6MQzsC3tLXL2xOlwL/FT58I3Hb+jWRX3PANLCCFkuQDR6DnKPs1RDvVKveYoLVtijgIxnOUoob6oHGVAcxTEb6wLI83nVFh++ITGe01WcBJ8bGZp4i6epP1qzVHevEGa/vvtIt+5XeS71L5bBTBEMC7dXtsScoJFsudjT8h1v/PVc3IUu5TahLHuG07e47WbiwHL5HMUzeVaO1qlFzkK7iV+rsQchbwowJ8hIRdF8SuTM7FweurgRgeGpXWlOmicfcVZQr90GsHHgo72LYDC2T8IThjLqlOdI4g12CxUEINrtl0jM0/0VzzkIgOXUOOzNrXK1IlhGT8zLLK1XWS1Bhk49CWg+A2/JMXX/3wMOho4U2GMoIPAivcaLgB7oIefgUUgxjbGM7Dbd10jpcO9QRDjcihPCHAylhBCCFkm2OuZHOQfLwzK2MBQ+d5inJRGP2IpSuQtyDkWQKFPBTFOTqeC+EMQxJqfIPYulSAGuDQaOcrGVpk8MRTE5BKy75NPyqbfeL3Iq+KTqSHoIYw/qsL4HhXG2EeMFuOWrQWQ5SgYHfar2XDiQW3nDbvk3KGzIk8yRyEvHvQvlJAlAPft2Fk+tUPDMrKnV+q0vvL6DSHQQAxbwIFoU9PgUfjE/JcoFU79fvmspy5br/555r0qiBFsICjHFyeI6zqa5NCju0W+oGKxGrhkBw/kwD7oJtpL9Y3Yt4QU3wBhrPuQjhi/tCyMC09pMDkfENDxZIGdZLDg3ihdq3vkxP6jMnNmVOTxgTizovvAM7CEEEKWHWmOcnBYhg/0SX1dvXTvWhvip52sjzkKhJuKuPPd6mUn7XEVG0S1C+IPJoJYc5QljbmWo8Q6uLUnVpaGmdEp6T9wStbdu1PkJbpu3O4VT94HYbw9Ecbz5yiFR3+94pY3Oz4xR1mxfpUcfGavzOC9xI/1xyUU5ijky4z+lRJy8RTf9AuxpuCM4Jf6ZejUgMxotb6nOThHBB04VJQxABU+Wj3oFE7+nsj61uBQXRD/kwtiNdx/sghBDLZu2SqTT/dJ8buqX55cfM3PVQYcIwYhnKFdYuzsNc7GYtRbA+jgJw5J9924lBpBpzmcZa1BYe//DgLago0eoxjE8Y1es3q1DB3us9+BXTYGUCz9LhBCCCEveubkKE+XZPDMgNXrMdKLS5PTHAWjmu3IUao/jbpw5vfDPb5+tRYE8b8dj/E85ChLLvDsVjVYbIMjKiyXkNFDA9IsjdL9mm1hBNxP3muO0vfRvbLqlRDGur8QxvPkKOHWrnhs7GSDHk8cd01VVnT1yOixcyqI9fin+8IchXyZ0b9SQpYIf8ojnPbwlEw+1y8zo5Oyasf6MFIMRxoDjZ2N9XqOwvEoiDFNnaldMv2ewyqI4/05CAyLFMR1zQ1SOnim8qxkNeCU804aFndtqbGHgPj9Oxp0Spkw1n1H0MG7/XIUnv+t8ECPeMLADGdgVSBvvXa7HH56v8zuw6VVg3GJAM/AEkIIWbZko8X64/SYTDzda6Ojq6/ZEGIocg7kJSbiPEdRYZfDrmLDbVUQ0Ii/GE11QayxvPi9v3ZJ4m3xddVO3CtnxmNlaTj6+d2yftMGaXrb1vLJexfGH1FhfO+OsO+1cpTnNEfByQLLUfQYQgzbifuQoxx97qDMHhguv5cY6H4xRyFfbvSvlZClofjmXwjBBmAE86lz9oqm6akpWXGdCmMEFw84CCR25rC+4onLhaO/G96jB4drgng2CuLgkOWnb1y0IAbrtmyQgSePh3cAzodvf55LMFLs2D3ZdpkS9nEyCOOXbQ5BZYUGncfLQcfu5fEHVyDYoIyXJLV1tcu50/0yfXJE5NG+uAQhhBBCLEdxVYkc5clzMnyoVyYnJ6XrmtXhZDTyEouvSY7ymSRHwUl7PPfDRR/i9gdUEMfbuorft7inMy+afCqC9onRUF9C9nzoMVm3c5MUuv4snLxHjhJFf9+Hc8L48d+IS+nxweuX0sumUUIQ67ydq7pl4GSvPbPFrmQj5EWG/sUSsoT4C9dRwBHiMuqTAzKrvrNxTVu4pAaBxh6+oCVEsgYfBJ3Cwd+xB0hUCuL4UC0I4h/dFdZ9AbRO6TrxcvjzYZufRB1UIZQvoSgGdmmX37+jQaf08Zwwfuw3gjj2+5dw5hUnGfypmfV1smHDBhk8eDYI4rMTcc0BnoElhBCy7MnlKLNPDsjImZLUtTZKwwrNP9LLqNMc5QHNUQ5rjrIuJ4jf7/cQT0rx+y+xIAbIR6qlIx86GStLx4kH98rqG1UYN71zTo5iwvhVKoxxLHC7F3IUXE7tl03j+HiOghMMdXV22fTQgd7wXJfc6DZzFPJiQP9aCVk6im9Rx+lBB5wek8kn+mTi3Kj0bFotdQg2GOlEoMElwFaq48Qrj2Cd4QyjCeJ3l+8htmBTaxT3PLSv7ZbDX3hBivf+bOyZh/TF98Drfm/uJcTOYg+FgFMhjHF8cOYV24ZjhgCDM9l+eZce02tv3CWHHt8js3sG7V6pFAYbQgghpEqOcmxUJp7uk8nBMVm5bZ3UIaZ6joJ8BCXi7xbNTzap2buIoyD+V4wQh9u6it9/meJsPhVxkTw1I8WmQuhbImbGpuTccyel+5aNUpgqzslRMmGMHKVHjwseBIZ6mx4ziGLke56j3LRLjj1zUGaf1/zkBd7aRV6c6F8rIUuLBR0AR40RTXWCo3tUGA+Pycbb1YHCScbRYDvLiPcAb2mPzlQFsQasIIg12KjjzV6flAayRbB2xRqZffZcbJ0H3Dtc8TGxcZleJm/HrkIYH5Tul28JQRqBGccOxw1nsO0MbL2s3bxejj5/UGYOD4t86kxcEyGEEELyzMlRHuuX0d29MjY0IhtvizkKhC/iLHIV5Ch4PaM/ywPxGYI4XsVW9RWPlwo7cZ/kI6jCYo6y1MJ4qn9MRo8PSOddKownVRjj2A3He4x1//s+FIUxchQIY5y0h+HY2ZtGGmTdlvVy7PlDMntEc5QHmKOQFy/6V0vIJcAfugVwGfUX++yymaHSkKy7dWtZ2MGR4oEV3Rp42hvLgrgfgliDzQ8kwSZ7RdLCqdOAd+p5Xd8jC7x/Jb1M2oNNEnAuB8W3/reyMNagU/rYgbIwxrH010d0NEhbT4eMnxuW8UMq+j97NjyVO4FnYAkhhJAcaY6CXOTBXhk+qHmK5iirb9ho+Yj142Q93g2M+Iu8BQ/7tBFiLfM5yuXANzuXkhS/9VdibemF8eSxIZkdmJD1r7pWCid+b87J+74P7ZHVEMYQxRDCOHbIUdobpHN1t4z0DsnYwQGRz2mOUpmiMEchLyr0r5aQpceEnT3pMXpuLWcfPCtDR/pkbGxMVuxcF87A4i8QZ2QhiHHJ9D+qgO3D5UgabPLOEvezLJJV69bI2J6+hT/8wi9FSgOO1otvLwecy0Hxq/T4WcDRfYYw/qgK43tUGEO0NyPoNEhze6t0tXTK4F4NNBrQ5cRYXDrAYEMIIYTMZU6OomF19uE+GT45IJPTU9K9Y00QwtpvIi8dIe7XslqOcjnwW7wc1NOR44gJ4/Qk/0UyvK9XOppxm1u7te344VkvGC1X63VhjI80YdwgLZ1t0jzbKEPIUT5zRuQ4cxTy4oaimFwyTNi5T0bZPyEzXzyrQeeczNTPSvumHgs6dY318R7iwzrPeHDwO9ql8Pmcwzy2+CcsdjWpA8d9tgsFZzHTAGPVpH2ZKDz9myJ3rgyXIfnDt1QYX//Vd9lIcUNLk6xesUrOPHNEZvFgLd6jQwghhCwYy1EchPlTYzL98FkZOV0yYdexRWPwymapx6gnBPH7VRDjpD1yhGs75uYol4O8KAY1UpRiyw+LnKwUohfM5Izs/39fEPnLA9YsPKs5yh0r7BYuP3nf+8E9cuvb7slylFU9K6X/eT1mX+wV2TdsyznMUciLEYpickkJr2mKDQSWwyMy/chZGT0zKI3tzdKxeaXMaiCaOTYi8qo1Iq9fJ/KK1eGBFu0NUnjof8WFdV23/NfwvrwFUtfeKIe+tEeKL/+Z2LMAqpxxvdyauPDCb4msaQ73W9+pQeeNekxwXF62SnY/84IF6I3rN8jJJw/KLN67vNBLwwkhhBCSYU9V9hiPy6X3DsnUw2dMGDe0NUnbhm6ZOa75Sa+KYc9R7tEcZX2rjR4XvlDOUS4Lvq1ZOX+CUtz6n8NlyxcDRoMf7ZfiTf9Fiv/+V6Ww+3+H295waTlO3ic5ytNPPKWCuFE2rFuvOcohmX1iwF59RciVAEUxueSEdwMq8N14qMULgzL5iAadUxp0Whula+sqdbAqAvHgKFymhIdZQBBilBRB5+Fft9chGDhTi0twFvA06FWrV8vsweTl8AvBRoqjgfMEnKWmcOC3dcMRbPQY2GXlarjMHJdw6fGo12CzZetWOfb4fpl9SoMNLpvOwTOwhBBCyALx+4s9R3l+UKYePSujKoybu9qkVYVxlqMgN4EY9IeF5nOUS42NFMe8BIXbPBRf//PhcmqMci8GrPfIiMgnTkvxNT9nXYX9yFHiSXvka8hRcBxijgJBvH7tOjn+mOYoT/SLfJ45CrlyoCgml4f8Qy2eLskULlM6ec5e09SzDffvRAeLy3FwL4853ehwtV548H9K8XXq3Bt+KLznDvf1zBMMWmZ0+QOVl+ycl+zSpLhiFPN8xlKBy6ULR383vOMP+4199qCLb6kGn8bWJtmwfr0ceWRPeJr2A3PP/jLYEEIIIQun+DW/WDVHmXys13KU5o4W6dkecxTEZJjnKB2xjRzlclxO7SfuUxZ48r64/j+KfPL0wubHw04f7pPizp+wZ6oUntEc5ZjmKHiPM3ITO2GvhsELPAA05ijrVq2VE48fkNnHVRB/hjkKubKgKCaXhSzouDOG8H1OhTHuMT4e7jFed8OW4GwxSopXItiIcRJ4dJqdkf3Mr0lx109KceI/aOBScYjXA+Soa2uUE88cWti7iVOqjUBf4tHiwr7fFlmLJ3DrvnqwwT4jMMfRcwTllV0r5MRjGmy+pMHm4xrYcjDYEEIIIYunao7yxIBMPnxGc5QB1aKzsvb6zSFGwxCf0xzFRGI5R7lk+MOzPC1ZZHqCK/eKzT9sgrcquEXtmZLIB09K8VUhf6qao6Bs1hLHQevNna2yqnulnHziYMhRPscRYnLloX/NhFweim9D0EkcOpzp8yWZ/qIGnaP9Mjw0LDvvvjH049H+EMYINn5G1q1LA0+817i47j+K/POx4MTxsIe4+g2bNsgs3tu7WCCKUxGMatJcSgrP/ZYUjv2e2KVIfjlWFP+27zgDq8GnbUWHFq1y9onDMvuFs1XvD2KwIYQQQi6cqjnKM+dk+kHNUY71y+jIiGy9bWcYGU5zFMTvNEdRS5+HsqRYjoJKkpgk1YWCAQO7pBr5BIQwXnm5d0jkY6ekeMd9UvyeX5XC87kcBZdLe46CZ8TgxIHmKT1rV0rrbJOcfvyQzD6sYpi3dZErFP2LJuTyUfzaJOiAeI/xzKdOy8i+Xjl+8KjsuOt6aexsEVmhQQdOt00tFcY4Owth/Nhv2EMuil/5Dimu+XGRvz4kgjOU/ZPSf/CMCe5F4yPFaZC5gIAzH3YZ0uHfEVmj+4jAamI47huCrb/nTwPyxm2bpW5oWgaeOSGzeKXBlwbiWsow2BBCCCEXT0WOggI5iorFGY2/w4f65ezJM3LNS2+Qxq6Yo0A4u0h2cYx8BTnKl0KOsqRUnLhHPRQXit1v3POjUuxSw4O0vvmXQ45y5HcrcxTkJGmOAnGs+75p+xYZPz0kpWdOhkuzH9YcLAdzFHKlQFFMLjsh6OAypdiBoNI7LrMfOyVjL6gw3nNYVm1fJz1b10QBHAOPBxsXxqirZeJYnXlxy3+2y6rH/vA5u/940WRnYSMWcC4i4iRkYnhda7h32M68amDB/sBw1hmmAQgPINt+zQ459exhGXlGxfCHNeA8N/fVUgw2hBBCyNKR5SgO8o+TYzL7yVMyqjnKsd2HZOWWtdK9ZXU5J0mvbLOT3FpCUCY5ypLgJ+6BVfXHEr2PGK9ZCjlKFPzIUSB+sV/YJxwHnCRAjtLWJDt2XmM5ythzvSL/dkJkz9wHmzJHIVcS+hdOyOWn+HW/FIVx4szRVmE88USv9O49IVPTU3L9y2+x+4OlR0UkLif2UWM88AKOGk4bznulBp4n75fCF/+XFD77a1L8Bl3/hZAXxWhcZLzBK5bsrKsFmiiGse2+/RgNx4MqEHzaGqRjZZes6OiRw194QWbw9MZ/OipydO47mhlsCCGEkKXHcpSpJEdBtjw4JfKRkzLxpbPSt/+katEZ2XH7dSE3QWz3HKVH47rnKCghjjVPKTzhOcpFxO6qJ+5D9UKxHAUP+sxO2Ov2QgTDUMd+2RVsWmq+smLdKulu6ZRDDz4v009qjvK+YyKnx+PayjBHIVcadbNKrJOE+Q5LOs3r1cpqNjMzM6esZtPT01kJu+eee2y9ee6///5Yu3IpfOCX9YDFBkrc27KzQ+T2ldK8qVPWbF0vQ+cGpXSiLwQEPFgLZ0ZRH9egNaEGQY0AhsuevG9c59P+4qvDqwQWgt0HdFtPCAzYFrwH+Oz4okedMSpslxnBcHYV99+4oY2zyhDC9WpxhBivMti+fbsce+6gjB8btPcCyuNzL5cGDDaEEELIpadqjrKrU+ru0hxlXchRhktDMnDsrOYhOgPu0UV+gjwly0W0bnlK0jeG9iJzlEd/XeRmzVFWqlgdUpH+vOYKyFFev8gc5VnkKCp6cVI+5iBmyFG8jhylIeYo2l/f1CA7duyQI88ckMmjyFE0J3u6+m1qX64c5b777ou1Sh566CFpaGgwq6/XfCuW1ayurm5OWc1ArRKk9TzzTSNfPiiKazDfYUmneb1aWc0gdPNlNVtOohgU/vmXgvM19BhOqMER371SGnZ1S+vaLtm+a4fsf26vjJ0bCcFlVIMKgo5WrQ0xjBLBCALZgw/6UKoVXzn/06gLn/5VewG9vXZAF7d7lBcQcAqP/0a4rAhnVDMRrPtjgSXWPdi4GHaBrNW1m9bLxMColA6cCQ8Iw4MqzlZ/pyAFMSGEEHL5KLxPcxTEbUOTA+QbuGrt9hVSf02XtKk43nH9tbLniedkYng8l6PEXAR5jecmmO6lnczXeXWd/sTnWuDVlHLHinDifjiK4jOao7zhPDnKE5or2uXPMM1TotC13MRzFPTBkItV5Ch1smHLRhnrH5ZzB07L7EHNUfC6pXOTce1lvtz5CUUxuRgoimsw32FJp3m9WlnNIHTzZTVbbqIYFN77i8E563ExUOCM7HVdIjd3S+P6dmlb2y2btm6SfU/tlqlxdcgIJpjHA08abGDTWodINqHsFqd7n5bFV/xM+EylMPxHYk9b1Ekmik+PSfGN7wjTHlXxq/HEtrNaUEEJ0ZtZMp/+z4vh7tUrpKOpTU7tPiozp0bD6PCzL64zr4QQQshyp/BPmqMgfudzlJ2dIi/pkcaNHdK1YaWsXrtGDj63T6bGJkI+ghFhz1GQd9jJ+lj3HMXzE+tTc7GM6foffRDMhU/+qsg98cQ9RDGeNYIc5StijvLIr4fcw3ITWFL3nCTNT9Lp+t8EMerIW7Tas2alNM82ytm9x2X2rIp9XL321Dn7rDwvhhyFophcDBTFNZjvsKTTvF6trGYQuvmymi1HUewU/uWX9ADGBko9ThYsVBibOF7TLis2rpaVa1bJ4d0HZHxoLASb9KysBZEYVLBsGpB8Otari1gbdf1veAmfZaY/UELQ+hlUCGPUGzRwWBmne8DxAOTza9Pe6YcApP9dDJ/Zd1ymzqgYPjAk8vnecPa5ChTEhBBCyJeXwrv/WxCMab6AvELjOoSx3KA5yspW6Vq3QtasXysHn90rk2OTIc+AgE5zkDRHyfrjtLSO/MRL/Z+BzwSeYyBX8TwlM+23UmfwPs9RkI/YsjCdL8lRIIY7W9rl1J5jMnVqOIxI493G2NYqvFhyFIpicjFQFNdgvsOSTvN6tbKaQejmy2q2nEUxsMADp+2HWo+VnW3Fgx4QeHZ1SWNPi7St6ZKd118r+1/YK4Nnz4X5cYYVZ2IRUNCGoY6gkwpk/W/rRbABaKfAZ7nfggND0EDwQJ8HkjTIeJnOizYuVdKioalBVmuQbJiuS8SwBhuMRle5DAlQDBNCCCEvLmrmKHh45o3dItd1BnG8YaVs2rpZDu87WM5RbKQ4l6MgP3FhnApnrBegiNUMzSuy0nMTzz+Qj6R5CnIRz1PSHCUZFa5vbJD1mzbI1MiE9B08JdN9YyKHNEf5oorh0pQuMJcXW45CUUwuBoriGsx3WNJpXq9WVjMI3XxZzZa7KAaFf/AzsvF4+2HH2VY8EVGDjlzbKQ2rWqV1dYds2rFVJibG5eTh4zKOe3qwAM7C5oMPfni9WuBx3GfBeaFuAcZLNQsusY0S82G6BxmgXa3d7bJ18xY5dfC4DB7vl9lzEyIHR+YVw4CCmBBCCHnxYs9DqZWj3Nhlt381dDdLy0rkKJtlfHxcju8/KtOTuExNF8CJ+vxJfIB1em6CPp+eJ809vPT8JJ+beDsdJVbwxotNGzbJ6SMnpHSkV2b7NUfZNyTy5EBNMQxejDkKRTG5GCiKazDfYUmneb1aWc0gdPNlNaMoLmPiGA7cDztKPXZ2VhbiU4WxXN8pdatbpL6zWdpXdcqWa7bJ0OCQnD15WkYHVYD6cnaZki6HM7HeVwv4LHdcVoelbf2BS5P8kukYYOq13bECQWaj9J3qlXMnemXy7IjM9qpQx3v8ni+Fba8BxTAhhBByZTBvjoI3UFzTYW/UqFvbqgK5RTrWdMvm7VtkeHhYTh8/JaOl4fJyfkUb8hTvq0ZINwLIRdD2PrQhgr2ck6M0SEtnq2zdslXOHjttb/aYGhgTGVAx/MKgyNPnwoBCDV7MOQpFMbkYKIprMN9hSad5vVpZzSB082U1oyieS+HvfyE4d6DHLpRqOIOKe3E3tYlsUdvaLnUrIZCbbJR25brVsnbjOjl96pT0ne4ti+QUrAfr9BLAacFvme/SH/honH2NTe82dO4AANbTSURBVPuh/5tam6W1s01WrVylcadezmiQGT5zTmYGJ2QWr0w4MRoennVcg848UAwTQgghVyY1cxS/NHpDq8gOFcib26Suu0nqOzRHWdFhb5/oXtEtvb19cq6vX4b6VZjmwfpqnUvHRyJf8RL5CSzmKI3NjZajrFu7zh5Q2n+6T0b7hmT63LjMllQIH9KcaO+QyMkrP0ehKCYXA0VxDeY7LOk0r1crqxmEbr6sZhTFtSn8HQKPOhT/NWSlVnBmFoEBAhm2rsWeJF3X1ij1ai1dbdKiwaFn5Qq1HhkbH5OhoSEZH5+QyclJmZpQm5ySWT32dQ3qDOuj81NrbG6StvY2aW9rl3YtMe/A2QEZHijZa6JmRnQ5XDaFs61HVQjjXpwT8wcZQDFMCCGEXB0sKEeBQN6gOQoE8mrNUVobpa6lQZo7W6Wtp0NWr1sjnd1dMjo6KiMjIzaqPD46Znmh5ZMzMY/Uf41NjdLQqNbUIE3NzdLW2ird3d0yMjgsQwODVo6XRmV6SEUw3qGMHAUC+LCKYeQq5+FKylEoisnFQFFcg/kOSzrN69XKauYOLS2rGUXx+Sm86x3hrKwdcv2BMhz+UEKgosTlSwhAa1Ugr1HDgzC0rw5PWmxWh6frqNMAVo+g0qiOUgMLHBaEsf3eNPignJ6YkunxqXCP8pROw+VFeLdgnwaYM+Nlw+jwAqAYJoQQQq5OCn+rOYo/jEtzCCMWFTnKyqbwGki8Zgk5yoomqevQPMUuew75SZ3mJY2t2q+5iZ+sR6lpvExPTsnMlOaKk5o3ahnuU56WWVxBh88oTYY85bgKYJyor/GWizxXYo5CUUwuBoriGsx3WNJpXq9WVjMI3XxZzSiKF0fhbyCQ1cn4rwalHt+sDiBgEQsQSHAvMgIRHoYB0Yz3BpsFoWyXHuGybF0klGoILoMqePFuQDNtL1AAp1AME0IIIcuHBeUoLpKRo3SrKIYwbtWcBDlKJ9paYhoMOYqXeFAXRqCxPPIcvJ7ShLAapi2SKzlHoSgmFwNFcQ3mOyzpNK9XK6sZhG6+rGYUxRdG4a9+PlRsBDn+nlDEar6v+1dfLqWffSicWV0g3fe/Qkrv+OKCz7YCCmFCCCFkeXPZcpRf0Bxlngd65rlachSKYnIxUBTXYL7Dkk7zerWymkHo5stqRlG8NBT+4ufgfcIZVUQY/9WhhOGeY9xjs1gwUnweUUwhTAghhJBaWI5iI75VcpRt7SE/wcjvYtDc0pZbhjkKRTG5GCiKazDfYUmneb1aWc0gdPNlNaMovjQU/lQDkAcevCYBl0CPxkugw69uYUAUJ3GKApgQQgghF8OcHAW3aOGyaLCYHAXLJZp4ueQoFMXkYqAorsF8hyWd5vVqZTWD0M2X1Yyi+PJQeOfPxtriKP4ARTAhhBBCLh2FP9EcpXY6WpPlmqNQFJOLgaK4BvMdlnSa16uV1QxCN19WM4piQgghhBBCFgZFMbkY6mNJCCGEEEIIIYQsOyiKCSGEEEIIIYQsWyiKCSGEEEIIIYQsWyiKCSGEEEIIIYQsWyiKCSGEEEIIIYQsWyiKCSGEEEIIIYQsWyiKCSGEEEIIIYQsWyiKCSGEEEIIIYQsWyiKCSGEEEIIIYQsWyiKCSGEEEIIIYQsWyiKCSGEEEIIIYQsWyiKCSGEEEIIIYQsWyiKCSGEEEIIIYQsWyiKCSGEEEIIIYQsWyiKCSGEEEIIIYQsWyiKCSGEEEIIIYQsWyiKCSGEEEIIIYQsWyiKCSGEEEIIIYQsWyiKCSGEEEIIIYQsWyiKCSGEEEIIIYQsWyiKCSGEEEIIIYQsWyiKCSGEEEIIIYQsWyiKCSGEEEIIIYQsWyiKCSGEEEIIIYQsWyiKCSGEEEIIIYQsWyiKCSGEEEIIIYQsWyiKCSGEEEIIIYQsWyiKCSGEEEIIIYQsWyiKCSGEEEIIIYQsWyiKCSGEEEIIIYQsWyiKCSGEEEIIIYQsWyiKCSGEEEIIIYQsWyiKCSGEEEIIIYQsWyiKCSGEEEIIIYQsWyiKCSGEEEIIIYQsWyiKCSGEEEIIIYQsWyiKCSGEEEIIIYQsWyiKCSGEEEIIIYQsWyiKCSGEEEIIIYQsWyiKCSGEEEIIIYQsWyiKCSGEEEIIIYQsWyiKCSGEEEIIIYQsWyiKCSGEEEIIIYQsWyiKCSGEEEIIIYQsWyiKCSGEEEIIIYQsWyiKCSGEEEIIIYQsWyiKCSGEEEIIIYQsWyiKCSGEEEIIIYQsWyiKCSGEEEIIIYQsWyiKCSGEEEIIIYQsWyiKCSGEEEIIIYQsWyiKCSGEEEIIIYQsWyiKCSGEEEIIIYQsWyiKCSGEEEIIIYQsWyiKCSGEEEIIIYQsWyiKCSGEEEIIIYQsWyiKCSGEEEIIIYQsWyiKCSGEEEIIIYQsWyiKCSGEEEIIIYQsWyiKCSGEEEIIIYQsWyiKCSGEEEIIIYQsWyiKCSGEEEIIIYQsWyiKCSGEEEIIIYQsWyiKCSGEEEIIIYQsWyiKCSGEEEIIIYQsWyiKCSGEEEIIIYQsWyiKCSGEEEIIIYQsWyiKCSGEEEIIIYQsWyiKCSGEEEIIIYQsWyiKCSGEEEIIIYQsWyiKCSGEEEIIIYQsWyiKCSGEEEIIIYQsWyiKCSGEEEIIIYQsWyiKCSGEEEIIIYQsWyiKCSGEEEIIIYQsWyiKCSGEEEIIIYQsWyiKCSGEEEIIIYQsWyiKCSGEEEIIIYQsWyiKCSGEEEIIIYQsWyiKCSGEEEIIIYQsWyiKCSGEEEIIIYQsWyiKCSGEEEIIIYQsWyiKCSGEEEIIIYQsWyiKCSGEEEIIIYQsWyiKCSGEEEIIIYQsWyiKCSGEEEIIIYQsWyiKCSGEEEIIIYQsWyiKCSGEEEIIIYQsWyiKCSGEEEIIIYQsWyiKCSGEEEIIIYQsW+pmlVgnCfMdlnSa16uV1WxmZmZOWc2mp6ezEnbPPffYevPcf//9sUbIpaPwrr0iDc3qMerV6kKn/anrj5lpLaal+O07rZsQQgi5EAr/eDTEGI8vmichvlicmZ4QmRiS4ve/zOYlJM99990Xa5U89NBD0tDQYFZfX5+V1axO//7yZTUDtUqQ1vPMN418+aAorsF8hyWd5vVqZTWD0M2X1YyimHw5KbznhIrgFrVG9RIQwi6G3ZHr3zn+1GdnEvPEZUrLCSm+fXuYlRBCCMlReO8ZkXqNMfUNIcYgvqRiQXMk/RFKxBfEGcSYGY0x05MiU+Mi44NS/L67wvxk2UNRTC4GiuIazHdY0mler1ZWMwjdfFnNKIrJ5abw3tMiTW2aoDSHJAVmSQoEMeZInbj+nevfb7AqwtjEsSYtM0hcJtTGpPidN8RlCSGELEcK7+sXaWiKQthPuiLOIL7EGIPCUqkkzggEsccZnHh1cQwLMUbGznEUeZlDUUwuBoriGsx3WNJpXq9WVjMI3XxZzSiKyeWi8K8lkcYWTVKQqOCsvY8Mp2fuUwce//7179fqlqSgRJKSE8ZIWlwYI3GZhDi+Pix/FVD4292aiJU0Ebs79hBCyIVT+Lv9wfcOnpTiD7wi9l7ZFN57NsQY3IJjJ1yjGEaswaNtLLx4rFEstlglxhaPM24xvqC0K5PQ1jhj4nhcZGJYit9ze1wHWU5QFJOLgaK4BvMdlnSa16uV1QxCN19WM4picqkpfGAknrF3MYxkBQkKzuDDYSfJiiUsqCv6dxsroW6WT1i8RMKSnM33pGVy1OxKvuyt8I9HRMaHwr7oPhV/8JVxCiGELJ7Cg+tFjj+uArJVfaWKvIEjUvz+l8apVx4mhnH1EeKMxRqIYY8zEMSIK7n4AizE4EetGKPmojg7+YoYA2Hs4njMTsYWv+c2rIwsEyiKycUAr0QIWWYU3q9iDmfuzZqDWeKCM/lRKON+YiuTOpKaLMFJpnmfma8PhtGB+DlIjpraRZo7RFq6RFq7pfCXT8UturIo/NPpmIypIZvT/f6Rz/aEiYQQskhMEB97LPhNnKBU/yhrdknhz1UkX2EU/umkFP51MOwD/H2z+n0IfY83Fhs0VmRxR83jjseVtG1xJ5qdwF2IYTk9joQQskAoiglZZhT+5oWYMKTJQ1LWTDxwhr9aXZdLhXG2nti2BCiaJUWaHJlARrLUKYW/elYKf/Zo3LoXP3ZPnF22N6GtWd1XHIsGmdn9MflRCmNCyCIJgvhLwUe6X8VIKk4err1eCn/xZJzzxQ0u/S68r0/F8IoghpsghpMTo1ksSOJEVqYWfGqF2RVMNabVMj2GhT99JG4dIYTMD0UxIcuNjjW55EHdgJeWeKTTUksTklxykiUrWqai2s/uZwJZzUamNUFqgqk4xiiCCuTCnz8WN/DFi41+4NI9XAKOUWLbdxw3WKNMv0BhTAhZOCaIjz6qvjGKRfOf0a/AJ7d0i6y76UV/VY29SgmxBULeTnpiZBi+3vcrWhobrB7jhpXRPAbNiUUeo3BsUMb6nNKtTufTdRNCyAJQr0EIWVbYaESaRNRKKLRdMZ+X0TwpsWQFdU0+smme8CSWJUWeIEVxbCPHYfT4xXypYOEDo/pzNgriqbBPFcdKSz0O0y98lMKYEHJeTBAfebgsHM2nwKJPtec6qLBrVaG54Va7qubFSOE9J0XaVobRYb9MOh0R9n2zWIEy2Uez4DvN4E+tjP2Zj42W9elxMfN6Wiam8xf++HNxSwkhpDbqMQghy4XCPxzRBCUmJPnkwa1aIuJWMc2TmFhimic2bjYtJkFuNkIQRTGSJRtNQCIVkikI40LxM3GLXxwUPohLpZVMECPJ8/1Ljontd6NMP/9hCmNCSE1MEB/6QhCQ2SXE8B/RKnyLij2MwG64RQp//eISxoV/OhVEO0aHUzGcCeJkv/KXP2MfK6xe/zeoocQDjrTuvjVvdsIAFoWwPazL225xPmwLIYScBz59ugbzHZZ0mterldUMT5TOl9WMT58ml4LCe89oAqNizROYNGmJSUnZNKmo8XTQrKp/wwE8EVTrZuHpoLP692v33vqTQmF4v6T+PYenheIpoSjxpND4VGozPDVUSyy36yt03f4ZTtK2an66Mj4oUjohxW/eEDsunMKH4z74k6ZB9tRTTEOZ7iv2Mexfw01fJX/46nNhGUIIUSCId1x/qxz85F9mJwPLolhL+F/zyfDDKNXjuo+eGBY5+ZQUv/PGuLYLo/AXT6jIfolI24qw/oy0DrRd0RUbYyX1scdy9w5DCGM/qsUUrAfLJiV+hsJAVTMlTUzR0h/wp2baa74W/nVam9H3msHXRqt4+rTGEHszgMaTSbWRXin++JuxYnIVw6dPk4uBorgG8x2WdJrXq5XVDEI3X1YzimKy1NilySu3l+/5yi5v82QsTWBiElORwCAQYE2BrK5/x1a1v3FPYhJRPCeJSRIZF8VIZEwYa/LiCQ3abSrgt99rH6Mri+V8JPPMmb3W8vMsM3Ra+3Q/JjURRWKFGWy/1LAfvl/5JM3aU9L5iu+W0f6TFMaEEAOCePt1N8shF8Tmh9UHo4SIdDGpyXilP04MwvjEkyI7XxvXChLnDCqauWkVJNPmzFZjuYkhkTN7oiCOsQRX/KSCOIsnKLEeNWtjBaHtMSQTFFbXHxpLzMTjCEqNI5mPTWOKxxFYFMX2XvwoiuMr83BSs/jD6fEiVyMUxeRiUA9FCFkWQAx7omIJSnTKVtYwmzcGhXq0USJw4LI2BBUNMo2Nulo1LVHP2hp0cCkcPhPzZgmfLh9Kt5hIITG0e+uQYLWE+piKydPPSUNLm1p7FUN/tGaY9rnNmbfj/NZaNhk5G/YfyRUSLWyrJXXRsB++Tygdm46+Rhl68C+kbeUG+ZHP8FJqQpY7EMTbdt0khz7+58HPuYA0/6H+1evmW6pZ8MH2qqNNd4gc+IzUq98K1l5p6gPd5veNeR+aWuucPjsheDYRxOn90BWC2C1uu+1TiCm4JBpxBHXEEDMIliSGmGlMgIWYEyw7BhajIkm1kjgf5sc2EULIPHCkuAbzHZZ0mterldUMo7/5sppxpJgsNYV/OCzSvipc6oYHW9kIRTJSbMlYOYmxM5mox6TC8hCtm0BWq1eRbP9ssv5AsiT6d65/tzijP6N/t3Z2f3oqlHYm38/2+5l9NZzlx+hw1sZIMc70o4Qg1XLDrbLmJh8xrg22Z0HE2bL5rYgt/XHq+YdRE5kY0W3wS6bjCDFM99FGg62uJbYR+5HNk06blM57v1dG+k7KH72GI8aELEcgiLdee5Mc+cSfRjGZ3L5Sca8tfHLwwWVTp5T54qQft4kcf0xW3fvvw4dcADUznSoT+ntPiRx5JLwxoDEKYtuHJI54LEm3MwQJXQPiRahbDPEyCl6bQ3/g/GsWRxAzLA+atFhicSWODIeY4nEDZRwp9tiBq3vgv2O9+IOvtP0gVy8cKSYXA0VxDeY7LOk0r1crqxmEbr6sZhTFZKkpvPt4uJ/YEhrc/5U7w4/kRRMae7CJJTZw/DGhiclMZh5AtA5x7MkNhKCLYSQzM1OTmquE5GVGk5aQzLhADvWQyMQyS3C07pfAuTDefJfc/OqvluZm3fYK4vex/LWM1TkdkWRqlf4nP/PBsM+ZIA77VWH63Qz1IHpt+7Avc+bDfoX96X7ND0jp6PNSfFPFhxJCrnIKH56RG179dXL88D4ZfOZjZf/rvteFpJcmlFNBqWUmiFGq+YOmIIyPfUlu/IafDLPYJ85HMsc8M6tHjzV1ZfrvuWefFTn0YBghtvugPX4kgjh3YrW8vfEkK9appcULjx8mVFSkJDFFnab5WMQQxI9pjSMhlmgZxXE42epxBD4WJXxxEjsyUQyRrPWxc1L88bfYPpGrE4picjFQFNdgvsOSTvN6tbKaQejmy2pGUUyWksKfPCSyYnu47M5HKfIjxVq6IC6XcP4hsfG6jRDH4NGYBRnt08+B4b5iCOCpSU9iUB/XvCUVxmlCAzEJ8QiB6X255MaF8ZaXyUte/RYZG8P9vfgs+xnrWqpZgT6r5y1872rZmQOa+GF/J1UQ20O1sEcucrFOF7uxNDGs22ntuA8+j80X9033q/OV3y2NjQ0y8NTHpPgtm2ybCSFXPz9/+BUyPnxOBp/6SPkqHfjdilFi+NlEULowNvGrfsj6o5e1duzD9PGSCeONr/0u7YYvxjTMoj/QQmFl7M/V4wyxbtW4bCj3HTgoswc+lwhixI/khKoJYeyDbz/WgzrKKIjVUIYYEvoaGxvNJ+Ly6SYtLZbYx2puhBwIsWNiQiYnJ9SFTlgdohgCuUIUe9xAzIBPdoMohh/3GIL7in/sK22/yNUJRTG5GCiKazDfYUmneb1aWc0gdPNlNaMoJkuJPWm0a0P5IVvZSIUmNki+IIBjchNeiQFDMAglAoO6C61rkECSo20TxJrIuDBuCNkM/vj1b1YFsYriKU1mJifGrYQhmXFhHBKaKBrnE8ZIbpDQuEDecres23mLDA0N6TLxuxZFcNyA+D+U8YfNFyj3oys8HGxWpkY1sdT9DiPEEN26P5nAxQJJXb+b4QFhup223ehP9sMEsc8f+3WfOl/5PTLSd0L+6DX6WYSQq54f+eIW6ejqksEnPxh8b/4KHfgcE5QQky4qo9k01NUXoTTRGi2rx34I46OPSvvNb9JuJO3oV/cTpoZ5DSwTq1qpnKZg2Vi2d3TJmb4Bmd7/2UUKYpSIH16iLwqMGE9C/GhUMazW1BRFcZhXE1ONIVMhdkAUazkxMWZ1iOOyKMYJSfWtiBOZKE5jBkSxmoviiWEp/ijeaECuViiKycUQvCYh5OoGyUtKFIVmJvhAeIo0fHW4LFoTF4jeeAa/sQln9cMDUOwMv7Y9oWlWa2lpkba2Vi2bpbWlVett0qx9Tc3NOn+TWXj4lgYeJD9IoioSKpS6nSbSYRDsSCDVkIhZMqZ29BE5vfdJqdMkaLTUJ2ODfTI+2C/jQ9FifcJKnWZ9fTKBPm2n5aSWU8P9mjupwEaiZyPSmlRZcqoHwiwmeuYuYahD7KIakr45ZqM7icV9Hfr8n0nn6o1SeNdenYcQcrVz3U23hgr8V/5S49RHmLnPiQasrtPgd7L+pDS0bF0hsvVlMvLsx2Rk4LQM959SOx3qA2esbqVNO6P9wYbPnZURtdFSr/nTkXO92tcr3d09crb/XFkQY4T7vIK4bNmIcLyyKIiQGEssfoS40azxAbGjpRWxo0VjR4vFDcyD+IL5savhFp1sbxXELhQxflkZLasDbwM/XoQQMhd4WkLIVU9MBpAceMKQJBE4M48q5tLUQ5OPumwEuCx8G0MSo9akdUxzgdzUrKLX+lUQqxiGQQzj/l8YpkEQh/vHIIwrn05dkVgh2cqEMeoujKOhfvwxGT6xV7d0RmYnhmV2bDBaqVxi5ETr9j5Nq0cbPWf3lsnogJZqvn4fjfbtwNGwBC9X+rGztk+L5vuSTUunYx8bpfTZPxVZd5OuhxByNVP4dJccP3pIBp/+mPoYnORLhST8hfuGnB9x3wEfZH46aaf1rNQC4JkRKoxnjz0hs+rfgp0Lpj4v1OEjz8mMlsFU+I6ck6lhtZEBq2/beb2cOHVGpvZ9pjxCjBOS5xXE2JZUEGNEOMYKNRPDiBeNGBkuC+JmjR9+YhWxBlcdIe5gHRafbD9RDbHKrgJKzY5RLPP1tE0IIfMAj0MIudrxpClNItKEQa0OJXIaNXvwiRouaUOSgtHfFhO4zVEgI6nRZEeTFiQ7GAHIi2ibT5MdryMZwqXX/vqN2sIYJcRwNKuraE1HjmEnn5GZgaO6ybrBuIzORS8Er4lelCp6IX5RtzJnnevCuvz9yPh8PwhZwllO9rLLp60vsSy59Tb2I9fn/bo/rSs36LoJIVczneu3yeBTHw4n8+DHUh+XWfQNFX4n34aPTtv50tE63u2+7eUi/Ydy/i45EWi+0S36zHG1yVHZsPNmOXT4iEwf/LwKYjyUMY4QY/vnfagWtiUIYojhcJl0uEQVr1UyMeyxAFcZmYW4kJnFknCVUthnoBJ4Breb+fMgog9ODfNmbb9tJdZ9mq0PRggh1YHnIYRc7Vg+kCQTuPy3IpFAH7pmw6XTZrh8ujw6bJe4QRyrhQQnJDIhJwvLQxQDdGEkwEYILDlCslQXR4wxAjCfMEaChdIFcUzCXAzbJXwo1c7uldlzR/XjdX+wIRVJoNpIv5ZqI31aqo30lm3t9VKHdbkgtgQViR22HmVM9GxvtO4Jls9j05N5snZqcd50uu7L2Jf+UQrvOaH9hJCrlaEnPpAIylRMpv7B62p5Mey+w4i+x6dnJQj10Ks/7VJqFcYQwPB1o/B58IHwhdEnmrmvVEGsgrdr03Vy8sQJmTn8cBwh9tcuwQ9DEGPbfR9Q+rbj88uCGP4ePt7Esfp33ILjgji1cEI1XJWEZbLnPmhpT522+4bx7JXwWib4YJvHY5nFMNSTtvWhjP7a/bYth35CCKkOPDAh5KonJg1pAmHJQqzH5MFGi9VQNjQgWanX5CUIY5S436slXupmiU9Myl749Hvk6U+8OyQvuj4Y6hDC4dK3WRPEdm8xll2MMPYS4tguQUyFsZbnjon0H9ZdmQptvKIECaCJ30QID5+1eYvfeYPI9nulDvfI2T3EiSBGQmkJntdjwufHLJvuiaDXE7NtTwxuNm17Qtl3UKcRQq5GCu/aF3yUiWEYfAws7w/cj6T+JJYV/kiBD7K6GwjTTQzHLpulTYUxRozxmSeeLvvBzC9CJMdS523oXieDA1o/8UROEMPnLnyE2AWxlRDEsDgS7LEEFk6W1lkJHv/w38hjH/l7wVOn7c0FKojx9oIpPFhLY0l4CKkLY49j0S+bb077vD+d7kYIIdXh06drMN9hSad5vVpZzeDY82U149OnyVJS+MunNPFZGR+YMveVTHUqOOs0+anH6C6SlpZWaWltkxYtm+0BKK2qSeMrmxT/24QYrsNTrS0xCgIY89x81ysssZnSpAZPDsVZ/ymz+FRqJDta4knUlvDouvA0URPVSHws+YmlmT+R2p8wqkIWpYtalJqIFb/7JbZ981H43GrN81pldmJEZvG6Dmy7fhfNkDSlJcyecKqfa+002crXsc2xbtsfS9+XbL7K6cUfqP7dJoRcmRT+bn980jT8a05UurA0cenC0i0ITP1RbkfRW1nH8klbSyti205Eqpl7wkjw4S9K8duvwQw1KXxctxFX3TR3lh+qdRGC2EaIE0Gcmm2qghHkPY9/XpePo8q6LEaPJwZ7ZcsNd8jE+JiMj41mbzCYjq/2w5sLZuH/s5iAEnEhmr+pIHv6NNpq6u/5nuKrGz59mlwM8L6EkKsdE3WJKKtmghM10+FBJip6YTrBnES9+m9LcDRA4Mw+6namv2ejJUlIZoJBYDfIC09+yUTw2OiornPWBHV4enUQ3VVHjGO9PGIcEy9r+2iLGpI0F/T+4C0kcNjH81D43BqdvT0kSyqk7bOyRBNBKleamNXM0kZ70edlvu7tKqbHaW6f70eTFN75kK6fEHI1EAQx7sXFiUdYFJTm09zgB1LfEc28bdpOyoo6fJK3vQht/EMd/yyhx8nQbffodh3ATDUpfoWKyfMKYvdh8bO1vlhBjG0PVxGJ7HniC7psPCkL/2/xoVm61m2T00cPqCjGCVW8734qiuEQo8JJRSh+NcSpOfHMTzp6O86LOiGE1AAemBBytYMkwhKJfLJQNhPBmjhkl6hp6cLYHnKi7foGJFpIumbl2c/8qyVLSIT+6N6z8kevPBMSG02k6jX5GRke1OWwLDYAl2JrUrRQYWyJF5KwmEAiGbPkLJoJShfEsbRkUJPS4meszFP4/FppbNWkT8Xw7GQYWUZmFs7YIsGL5vV4PCr6s/kqE8OaliWRsDg/kk3sg+8fhTEhVwVlQRx9kolKLTMh7H4g1sMpx2juT6J5Oy0zA/DNmBT7ktL6YokHJtZ3qDDersL472sLY3vGAVYxryBGHeuOYhhmYjgKYrxqbx5BjEXhUxFPMPpbr+sPMSMI4t9/6RH57dsPSHNrm7R19tjoMK4qmplWw+iwxTEI4xCzgkWx6zEtxq+KeGcW64QQUgN4YkLI1Y6dXcclZkmyEBMMJApBEIc+JB52WbPf06WJCc7Sh3ZITGx+TZrwVFEIYOf/vOyYJTgrVq/TVUcxbUkLlDGEMYTweYSxJlhIrGwUNxPGMSlD3RK1nDBGtqXJXOGvnxVp6ZojjAufXyctHT12Sd0MRol1/SFDCzZHGHuClcyTTYPb9Lolt8m0in433wetpyNH6TTdFwpjQq5c7B5iuzXFxXD8nuP7jrYJSvcJ7iPyfkMt9TdzylDFj/Av+FWfB0U6O/waBCsEaUPHapFtr1BhXPksg8I/nZLC+4dFWrt121u1RxdMtx/bCd9r24+VBjGMEusOl6FGQazl+QQxLJwsnZWN19ygH9Mkf6Bx4/fvOmzb83P7brf3FK9Ys14mIYrtNpsQc0wUm8Atx6tM7MLcb1czTMP8hBBSA/VshJCrneJ/uCckBCaM00QCfeWkIQje6XjJGu7/nZDJiWBoT46P2Rl+nLVv7l6r+Z6KW7X/7/Hy/Wqd3T0yhSTGEh9dtf1DqWhiNJ8wRhKHxMpGi6sK45wh4US2BbGpYthKJKWJMC48uF7aulfK7OSYzEyM6jr1c/IjM1rPhDGOBUZhvJ3MU1GvWEdIEs1MNFcxe9cnks1k+22a7wuFMSFXIiaI7fVFcZTVDN9r+Cf/fkNkpj7B/Ub0IeZTYt3asauiRCXxVYZ51jhJf6iZH9V1hzI8zApPe27sgjDGiHEQxhDE2SXTeMex+SjdTuDban4KhnVXCmKcxHRhfD5BnG0tgkI8YYpR4J5V6+IUCOI77HkWbog5eNaE3UOM2KXL2CixCVw11DPzuIaYllg2TUu0CSGkBurdCCHLguyBUVEYZ0lDuTRRbEkIngCKs/RqKoInxkdldGQkCuRxGR8dlS07r9f8CU8UbZam5ma577mb5Kd33yrNHT3S19cnZ86clf6BAU2KmkMiZISkLQjjsiBGieQqfRJ1WRgjCYuJZSaMkWAi4dRpGClGQorS7+NzYayCuL17lQni6YkRXTQIb2yDJYxxe8xQ9wTLUrikP53H61kf3CjKaJY0xmkxgQzbpdtUsQ/RbJ5YN2H8BV0PIeRKIBPE8Dt22TF8k3+3Ucbvt9Wjz8r7iNRvZH5kvjJU8QMF1oB++4dS1+WCODzAKjwHokX9NE5m1m2PI8bpPcQ4YYeRbr+9A2v2fcBn2jrDttsl07o+E8Y6D+p4P/38glhjgMWBWTnd2ycnTp6W06fPyNl9j1vsABghbm5u0ZjQIvuff1LDUvlBjH7SNotZ7qszERxFbzY97Q/Tij/5jfY5hBBSDfOlhJBlgD+t0xKMXOKgpSccKGemJtWm7PI1E8Fjo4mNmUie0Hr3yjXShERGDcIXT6Q+8cKXdDXTMj14SkZP7pODj3xUDj/9BTm074U4pqFophTuMQ4jzUjeUFoSlRfG2q4qjJGgIXnzEVizRBjf+FbpXr1e6mZU2I8N6yI63TK0kCza8qgjZdPSHuDigjjOl9UtrUvrYVlfR7me9kfz+wvz++B13xdvUxgTckVQIYjN/0AQQ/jiO43vc+IHsu94FMbpyTT3IRU+pkpf+J+1gx8Lnba2evRVCmITrtqHEicf29rapHXlBhPGMnymLIhdDKPtPso+EDZXEId1B0GMkWJc/dOsoru6IBY5eOiI7N/9rBx8/DMydmqvTA8cl5mhsyInn5ahvlPyn7603cRwI06yalyAIMa7iXGS1uNSEMFuMXa5GHb/bX0wnAD2/miEEDIP8KOEkOWACeIojDOLyUJMJJB44DK1cE9xuHwar8VwGx0ZkrGRYa1j9HjMLqfGvV7+lGkbCUBi0rtfpH11EIQYfZjU6SefkYMP/ZscObA7ZEqaMUEYo2pPp1bzskIYW5kXxlo3AYkELiailpTC9DOvebWsXr/FHqo1MTKok7XfEsWQMIZ6KM3sOECyx3bYwHLd56tVt4QxrUfDtsCsjW330vcjrfu0sC8UxoS8eCm8a29tQZz/Trs/cMumwdRnVPM33mcWCvVa+iP0pX7MDc9AzNoQrbp+F8QQzOEy6kYVxq3SuWZzEMZndT9cENt2qZlI9m3E+sK2uiDGehp0eiqIfaTYhbEuZluOct9zT8r08SdFhk6HdfsxOaw+brykc+EBj1Ny4tBuW+cLj2t/jEVWuqiFn07N+7JpOr/VY2yDYE6nEULIPKhXIoQsB4r/4eVRFOeFsScQqakojvcUT02Oh0uox0YzcezvjoShXX4a6KzmOppcTY0mwliTRghjPMhlYkSmnvuwHHj6YU2W6uyesoZG3IeGEWMkVV7WFsYhQUPihtFXLS2Zi4aEa9PtsmbjVt3NURkbLun6mm0ZfJ7+sLJcr9fN1v3FtgNkcUaYPqesVs9GjWFJvUIQu2F7vYxWUfdpYV8ojAl58REEcUf8ji9GELuPULN5tJ35E6w51rMyVPED/3xa3pe5f0MZhLGLYe2LZqO6ELVqzU3NNmLcs36b1O94pcgJFay2Pdh2bB9K7JP7W6wj3Dtsr+LDulBXg6+uvHQa/fj8Ojl46LDsfegjIv2HQgwwQRz33wWxCnK8Ji+ckJ2W/RobvG5molb9c8WIcDRvo5xjGtfSW4UQ+wghZB7UMxFClg0QxEgOzFJBjARCS00iyglJGC2GOA4CGCPDQQS7QEY7COIwSozR4pb2ThO/QRjvS0aM24Mw7lwvcvDzsv/xz1mypT9qCmO8ssPuA45JmCVTSNqQhFodyZsncGprrpf1W3ZI3fSEjA4O2KV44ZLCkDCGZNITyDrbT/1h22DTPPFEFVSU+IFpsUzFsLd9uo0e5QWxW5p4Rquox/mwPxTGhLyoqBTEsOh75nyHk++yGXxDWqpl88J/oD98RrkM/ZlvsnmCpf7K/Fn0c+EyaRfEQQRDxJqYhVjVOvpwf3F7e7us2rwzCOMjD+v2YFvK21QX6yaMFVuX+uFUEIeHJro1YGttSw8cOCDT+x6wq4TM92M02tar6zRBPGhX8kj7KtW7Gm/sUmm/fzjEoBCbcmI463fzOJa3ynmK//VbbR8IIaQWwdMRQpYHEMLTmoj4iHEqjOO9W2jbw7aihSdRTySjxmOhrkI5XNZWFsS6sDS2asKIEYCJ4ZAQmTBeExJIXG7YtkKF8QZLjI489yVLvvRHVWEMC0kYkk5NzjShq1OhaMmaJ5QoYSu3yeYdu0wQDw302v1plixaUoeyXMdy4YFius8xsURp0yylK/dVlPPV3fxySmsjCaxm2GYvo+XrNh+FMSEvFkwQNy1WELtv8LqWmd/QOpbxE2x5f6Nl5pOSbu3NpmFE2H1bEMC4tLlemtSfpu0giCutpaVZ2lpbZf32G4IwPvh5XW3YFhPCWLftk35OPClpAtsFsVqTHgOvh+2alYGBczJ99DGRls54AkH9oa1HzUeIJ8dCfOhYYwLYDTEojA6rb64oq1hFP+KXGuKYxTe0vV/bhBByHuCdCSHLhOIP3COqZjVpgLkwjqVdahaTCi0hGIMwDq/FsMupIY5jiQQmvD8SSQxGi8OIsYnjVdeIjJ6rFMaa/JhgxKhBW49I10aRAw/I6WOHLOnSHyaMw2ueEmGsSVcQyNpuarakzJ5K7YkokreuDbJt5w26b2NS6j8rTc0uiKNpApi2sS+WgCGJw0cD7Q8N9NUo831Zf0xq/aE1Ni32xeRyrsVth2E/PGm0epzuJYUxIV9WCn+7J/gue3CefsftRF0iiNPvc2bp9z/WK3xHnIblqwhj+CrDCm3Hf5ge/Fq5zAteWHMTrrYpi+NsxFjNRpH1syGMYVt33SIN19wrsv/Tus6wXT7SbL4Y4lf9boUgjmUqiMGZ/U9amY2o+/E5/GAiiEcsZtSv2hFiiJsJXYwOxxFisxibKuq1DPEs14cYRwgh5wEemhCynEBi4aLYBbElDtEskQjJR3jQSRDHuJR6VsWkPZlap3sSkwpjPHRLf0jXlptVFPeLjA2oMB6KwnhvEMYQjkiW2leYMB5/9O+gpZWQCNo9aZpkuTDGJdCo18M0uQr3FqOMwrh9tWy7VgXx9LgM9J6xV3q4+A0jw1EQIxHUMhXEaNvnWhmo7MuV+b6035K/aoLYyyrmyaLXvY3RJ93eioTbhLEmlYSQy4oJYvgsP+llJ77wHU2+n/Z9jd9ZK9PvfaxX+JHYb31ax3pS34ICxLb5pWjBn6GMvk3LVPhaGQVsazPeAR/6XRDj0mq/3xjCuFVFMZ74vOPG26Rx570yu/cTOs3nDevDusJJykphnBfE+3Y/JzJ4Uo9X51xBPDYYBbHGA1w+vfF2ixuIN+aTM0Hs9aQ089gULYtX0Spims8zKcWf+ne2bYQQMh/w0oSQ5QQSBhstjpdRmxj2RALmCUYofbTY6maawODeL5TR8sLYEp2td6swVlEMQwJUIYxbQ9LUvkpkxTY5+vyXdJlZS6tmNcFComVCOCZiEMYQyBDGGCU2cazlbEuXbN91o10y3XfmpDS36HqRYHrimFlIHjHKjSdrG9rWH9aP0tpW98LbSZnv87pdShkFsSe7cTsqyyrmSaPXvV1VGDdL4f9RGBNyuSj87e5FCGK39Pse6xU+I/Zn/gRVLbE+9NlPnxZ9lFrZnwXDw6zK4jU1COBo6icheufO4xbWgdFitK+9+S5pvOZemXnhI9ouC+xUBKMPntoEsW4D6vDfmH/2xFP2jngbUYcPw/FxQYznTOB5E2PnLA7UbbxV40qIHUH81hLEMSZV1GOs8vjlhn67LznOgz5CCFkA8GyEkGVE8YdeHRKGTBino8ZIJGKS4XUzTTJMJGupicpChHHn5htFVu0MI8aw8WojxhDGq0VOPxfXFZKrGS2RDCIZw8hvGDHGe4zDJdV1DY0yXd8q26+7yba/9/QJna9VEzTkjiFhRMPrMNwHDVHs/YYV3o4W6z6Lz2MdPp9PROmXU2ZiGNO8Xq2sYkgykTxaHUk26iirCGP9PApjQi49cwSxXQkynyBGX/o9j/UK/xH7QSxCG9N1mq4XJ/G8z3yTmvsxO8Hno8QQrDnDk5/t6c9u6NN1trWq6I1tM10+E9X4DAWXQ8MP33D7y6Rp570y8fT7dZlKQdyEK3fieqampmx+jwO7P/7XKoi7w/FyQXwIghiXTCeCWGNE3W3fbPEEy51fEHuZmMUjxKloHsOs3+fR9tSY7RshhJwPeGtCyHLDkwgIYxPHiTCGVSQesEkVq56kqC1UGF+vArxncxDFI71htACJEd6N2bFWs7DW8DAWFcnHP/sumdHlZqZnNOkKl+khAQtJWRDEbhMzdbJDBXHd1Lj0njouzS2ahCGxSxPHpI0nZ0+pKEaXdmb9oR76fP7QF8rKeUBSx7SKS6YxISazFfVqZd48uUZS7W3UUVIYE3K5KfzNC1EQq49yQWzfxeR7aN/L1NLvd6ybz4iW9x8+LV9ivVpPfZi3gwUhmwlc3R4r1VeGeuVIMcQw6u2tLWE+LO/L2roDWDeE8cTEhNx81yul+dpXychj7zUxHKzJ3nNswtg+J6wDfn//p/42PEQxL4jtHmIVxJPD4aoh9dl1r/oxiyMXJog9RqHUdkXcSgxt/aziz39/3DtCCJkfeF5CyDKjWHitJg5IKCCKfbS4mjj2MiQpixXGeCBX2w1vEFm9Kwrjs/FSagjjPVEYt4URY62feOCvwkiwJlo+WoJEzZ9MjdHiwZExu2Qao9xnT0EQa9KKhNH2DEkkFguJIwyvjpqe1H2w5A/9Pl9Yd6ijD4T+tMzmsT4tfFr6lGnvs3rY7sp6tTJvnmSnpRrKan28lJqQS0Lhr58NJ+sqBHH87vn3z76PtSx+xyv8wvnKUMWPWfgN+xz4tTBPeXQ4+KSKUWIbuYUI9pHiIIZ9xLgsYBukrS0K47ge+0T7nIhW8ECtkZGRTBj3PfiuTBDHWWx5rH9ahenBT/1NeMOAHy8cHxshPhd8PR64OKL+v7ld6l73Exo/wm04ixPEWq+ISzF+WV8au9Cf9BFCyAKB1yaELEdw6XQqjCtGjWFILNQqEhSI3VCazSOMcbmyPXhLrW3XvSJbXx4So2EVxnY5XU4Y4z60zvVy9OPvlGmsG4laNCSYEMZnevtk684bZHZyTM6ePCYrVq+VTVt3SEfPKpmua5SxiSkZVtE8Mjoq4xPjZpOTum+KJX2WBGKd3uOJoZp9FvrRLPehDNtQ7qtrbNG8rwlTQn8yLdQ9MY51m+Z9yTSrp+bJdlrC4shLRZ8ahTEhS0rhL3FPbE8Y8awQxHGUOPse1rL43a7mG2qWqMa2WqiqOI7rg/+Z++qlstDNXrlko8JhZDgVyiaMrV0nA/0DcvTYMdmzd5/s3r1Hbbc8/8ILsnf/fjly9Jj0DZRkYnLSRpCHhgblxjvvUWF8rxz/5J+GrdMfMAA/f+Bjf6Z+e13w4XME8ajIOARxr8jGl0jdnd+hC0EQRyG8GEGcjQAjZrnozZdq6SjxO34gbCghhCwA9biEkOVI8UfeGJIHJBEmisfKiUWWYKRJiZfnF8b+hGezeCl12+abpfHObw0JkgtjjCBAGHtS1dptr1c6+pEiHt1iSSASTZRHjx2XzTuus23t6OyStVt2ytn+kjzz9FNyZP9uGTi+X0ZO7ZfxU3tlTG3k5D4ZPXNEpoYHZHJ8RHMpbJMmYZbReeKJIxGSTmtoGeqh6X2hEep1fg8x+rFtPo/Pl9WTBBnJrU3zPpT5upsn3WkJS4WxmvWpNTRK4Y8/p+snhFw0uAS4CZcAp4I4Wvr9q2rx+15xUux8Jaqhbf+sK7axTv28cOWMtrUMQjgI3ayu25ZdLp2aieMGGR8bl9179spTTz4phw/slaGzx2Sy77BMntknk6d2y9TpPeoz90vp5AE5dWivHDqwT3r7+qSxuUWGBlUY3xGE8UH1y2HLwibv/+AfhlfrmSD2S6Y/r759II4QDwZff/u3Sd21r7d5MkGcF8LnE8QmhtGOojeNU9nVTjo9ntjlZdOEkMWiHpcQslwp/vDrNIGAMEYyEYVxlmDE5KMiOfESYjeUZqkwzgQxxHDo1x/WbmrrkvZX/5DI0KkojPEu4yEVxrsTYdwj0r1Jjn7o/8jMbBDGR44cMUHc2qyJl4rSvfsPyIHdz8lY7xET3U0dK6Vz47Wy7vq7ZfMdr5eea++Wlg03SH3X2pAkHfmizPQflunhPpkeGwnbZEmnZnbI8LweU76sbtMC6Ku3EeLmuJzbUgjjtA3z5DstYS6M1bJltY4R4z/+LDaTEHKBFP7hcLgEGN8zGyXOf+/8+1nN4vf4IgQx/vu04INCG0/kR196H7G/XilcLu0GIRzEMAwPLNyze4/s2/O8jPcflxk8GbrvgK6rXhq7N0jbxutk3Y33yMabXyErt90obSvW62eoy+w/KmcPPCN7nnncRovx8MMbb3+5NO+8Vw58uGibOD2lsWDlDrskOpwk1GNkgthHiCGIe6X+DfdJXbcKZ4sRFyGIUeYFscWsaFm/1rEsIYQskjp1duHlcqSC+Q5LOs3r1cpqNgOhkCur2bSNuoUSds8999h689x///2xRsiFUfj9D6oY1cQGiR8SQDw8ykZD40OkkPBYgojpcZ6kDKMZqKtZMhffIZwZRjpCXX/ofyR4QUiOPPJ34enTGCHGfcVrrxcTzHgY10ifSP9BkZd8kwliPOjlxInjMjFcstHazVu362yDMjY6HPekOh0dXbJh82Z5+rGHZfLEcyFZ61wvda1duosqwvHd1H8oAb6XoR6+syjRrscxwX5rHULcSl/OTL/TabuiHuYPpnWb5n0o3fJtJIVeqqEvSxqRJCbT0DcxLMUfeYOunxCyGAp/r76mSf2gfc/h8xJ/Z0+cTgVwasGf6Y+krRaFbO0S1dCuJYhR+gk4COCmKHhtZBhlJoLn2skTJ+Vc/9ngR1UMY6R23eZt0lA3I0Pn+m39tcCDDrdu3yEvPPeMjPcdl4bOVXLt9bdIc0uz7H7yYZnY/2B4gKK/ixjH6qAKYjxIywWxfm79G39aXRb8VjVBnGtnIhil1yF0o6/zk7SZII5lZnG6LsvLppcv9913X6xV8tBDD2XfjXAyyW8/mGv4zuXLagZqlSCt55lvGvnyAU9OCFnGFP/jV2mCMVZOQJBYeMKRJiMVyUq5NIGIuiUvONkTRofLhlHiUNcf1g7zzUjny79DZPhMSKYwYnzmBROslpy2rxS59ZtkyzXXS2lwUA4d3C/T0zOy7Zprpau9RUq9J88riMHw8KDs2/28tKk43v6yr5LWXa8SGTwps30H7dJqbIeGOEQpm9+K8CMGrjppbGnXPLlF2yHpzUpfziwI/axdUU+S5TkJNEq3ZB4znGyI9XhSwU8+2LRsHjWsEyMmhJBFYffl20lAF8Jq2ffryy+Izd/odIwYly+h1gS/hu3ds0fOnTossvcTUte5Vna8+Yekq6tDRku95xXEwB6etX+vtLS0yNprbpJ1G7fI7sc/L4f375GdN90hzde8QmTgaBVBPBJGikd6peErfjoI3gUL4jS+wGI8qiaI51icpstTEBNCLhR4WkLIMqf4428JZ/iRgFgSoglGKow9MalIXMqlid4swSmL4LKlwjiMtCLhw8hq5yu+K1xKjRENvMsYwrhLhfHKa2TbtTfImTNnZLDvjOzcuUs6mutkoPd03OrF09/fa0+rvuHN3yN1q3eKnHpapofO6mZPId20BBTJpxHrjS1tmSD2J8BiWi1hrD/K7Yp6mD+Yz+d9KFNL+6LoRR0lRpl9mifrGGHGSYVzmqgSQhZF8QdfGfxPegLKrer3E1bte6zm3/maJaqhHXyHdVhfdUEcDA/J0m+5TM/Mmij2S6SDqRiO9T0vPCfTEKw69+pXfZd0dbRJ3+ljtt4LYXxsTIaHBmXzrltlfHRYdj/9Jdmw7VppuuYekRNPRkGsQhvPh4Ag1nrDV/yM+lT197AFC+K0jniTlJkohiWxKatrvy5PQUwIuRjg0QkhJI4Y496smJhUJB9IOmJSkk9ifH5tZ8JYE59KURySI6+bMM76ZqTzld+dCONBW/6a62+WEydOyNTUpKzo6ZKzJ4/ELa1Oaf9jUnruU2oPSGnfIzLcdypOmcuJ48eke902adj5GpFjj8nM4Cnd7MmYpJaT0+b2TmlSUWyJqSaiZWHs84VkGP9QZn1Ju7KeJM9zEmqUqSXz2aiVGsSvi2RL2NGnSSaOWd9BJoWEXCDF7741+KDsuxe/X2hn31O32K74/qr5d71miWpoB59hHdbnPsd8DepWBp8TXp+EOuapkykVxjZijEtAzYIw3v38szKjfgC3pGxRETs5oiK1BrgNpXToKfWXnw62W8XtPAwOlqSlo1vWbdomR/Y8LSvXb5HG7S8LT+mGIB4dkMZX/7jUv/FnzLeHODAtdYgNCxbEWprwRT2WHn8qRLBbOR7R9xFCLhZ4dUIICVz7Bk00aglj70uFsdosSk9yVOjOK4wTs+lqsey893vDpdSb75KdN9wqx1S4NjU3S0dzvQw88E4pff4vpPTQu+KGVlI68qwJw64bXiud171SWjfeaCPApS/9s5Q+9D9l8NjuOGcZjFJ3rFwrbXd+k8jhL6gwPq2brfsWk9TWji79/NaQfJog1sQ0E8YxQY2Jq5VxuawvaVfWkyQ6m8/7UOYtzotxIhPC6HNBrMcZgrh3vxR//vt0HkLIhVL8d7vEnmlg30kU+e9hUlZ8b23m85SohnbwFdZhfUHsohrrVgYfkwricNk0PltkcgpX26gYVp8AgyCe7T8sdat2yLr1m6TUr740x+DpI1L6dFFK//Y/ZOzoU1LfsVo6dr1Suq5/tbRsulVKj/5TnLOS0mf/VP3vX0rpi/9gr7vbsOMGOX3oBVmxbrM0blNhvPpaaXztf1L/idtp4N9V/EYBDP/u8SCUMT5kMSSpW2yJVlUQIzZ5PEI/5tX59PMJIeRiCd6VEEIAnv5809s02agmjNEXk5A0IbFEJ5bRagvj8CA5PMAqFcReyh3fLjtvvFVOnTppyzbOTlhCpjMEUyFYevz9UnrmE3GDA43tPdJ+zd2ao2rS2NhkI7zd226R7ru+Qbrf+rNS19wupff/sgz3nohLlGlq65SOV3xPJoxndb9a2rukubVD14eHcYSHhWXC2BJUtdjWH9a2Mia5WV/SrqwnyXQ2zftQ5sz2PdaRFKNE4jh6zl5pVfw53X5CyEVTfPt2e+aAfslCh3/vPF2yevp9xXznK1EN7eAjrMP6zIeg5XUrXQSn9eCD3NQjyMTklG4GLplWQdx3yATxqhUrZGx0yNbpzExNSelDvy6zZ/ZI9+sK0v3V75DuG14lnWs2SUNTs7rVBmnp7A7vjM9h/tc+TdFtKT3xQRkeGZHVm3fK2aN7pWftJhXGd8vU/s+qm4LfdzEM0+UQB2AWT1BH6Za0bXoaX1z4RhE8RxBriXk33ymyUn9nhBBykUQvTwghgbqmVqm/49vCq5FqCWOYn823pMaTm5gAqdUSxuV2LKMgHh4dlZ033KIJ3aiMlPqktaFOSl/4W/VSjdL16u8XWXOd9LxctwuvAIEltK/aJCMn5o4GO51rt0j3235Rpod6pfT8A7G3TIMK4EwYD/dVJJ9ISiuEcbx82pJVm15OZK2MyW7Wl7Qr655Ux9KmpX3RUkFs1qDHVY897uM7u1uKP/vduiwhZKkofssmVYPHY0ux7138Xla0/Xs7X4lqaAffYB3WZ74DLa9b6SI4rZf9UWqQqvv2vBAE8eprTBBPTqqPTigdfUGGPv6/pfutPy3dt7wx9s6lublF2ne+PLYCpQf/xvzvqtf/iPnf7pd9q/ne0p6HZHJ6Vqs90n/qiHSv3SwNW+6U2UNfTHx/foQY8QFxA9PSmKHmghilx5dMACP2VBPEujzefYzXQsFHEkLIRRI9PCGEAFxUjFd1dkjbbV8r0qPJYZa4IDmJCYolMGqpMLZECHWUwcrC2NuVAtlGh9VGJyZl1023SVdXp5w8ekiuu+nWkDyqQEcSNrj/Edu60om90nPLV4RXOKUgocS7js9D9/ZbpXnjLZrs/XXsKZMJ44OflaGT+2VifFRz35B8IjmtFMYhWbWkNdaxDSaCUdrGJ32xblZR9+Q6ljYt6ZsjiNVw3HHv4+kXpPgz36XLEEKWmuI3rY/CGB7Rv4fxewmy7+t8JaqhbT7BusI08xloed3K4EvOJ4jdD50+fsSeol9TED//GfUTz0v3W34q9tRm0+YtsmHTltiK4JV1TW3S9/zn9BDMqNs5ijOQIi2dNrm1e5XMjAxIqfeUtK/cIPWb75DZY4+ZT0/9Ppa10uII4kasWxulxxGUMBfAMd5YPZmG5W/6miCICSFkiYjenRBCKlm1bqN0v+StIfHwBMYSFDUrkdBoknI+Yazt8ohwKoiDjU3NyPU336a5zpgc2LdXuleuMWFsNHXYiHVd+2pp3vZSaVqzU5fRBBX9eTCCugBae1ZLx13fIqXP/XnsKZMJ4/2fNmE8qcI4S0Q1SZ1fGIekuVwi6U0T4FA3q1qPSbe3kUhm/dFwvHFppya6xZ/59zovIeRSUfyG1SLn8ORmF8bJ9xNUtPMlqqGNf/jv06yNFuqYx8roTxYwQgzLBHG8ZLqqIFZ/0X3X18ee+RkbG1WXoz4npVn9bNtKe61T0zWvkMYVm6xt/ZFVO26VqdJpGR8dktYVa1UY3y5y8qkYC9RQmqXCGMIWJWKFxw+UsCiGUXdBnD5cC+t4yTfrB18Tt4AQQpYGzbIIIaQ6m3fsks4bXhcSEBe+WYKyAGFs05AQaUIZk6JUEE9Ko9xwy+1y5sRRSwxLZ0/aK0QycJl06wqZnRyV5uYmaW6YldJAr41epExN6Lb05EY55qGhpVU67v72BQljjBh7Iopk1UpvW19MYmMyi/0ol0h+kfSG+UI9WlaHG07qKG2EOGnDcMwHTwRB/NPfqcsQQi41xa9XEQhhbD5MO/BdNFELQxHrFSWqoY1/+O/TytXoH8w3uB9RIRzr7nNSM3+jtmBBPM/l0nlOnTghR3Y/EVuR5k57X3znum3SXD8rDfDzja3BIlM4JvUNMjnUJxOj6qc7V0n9ptvsSpZMGHs8sBgQY0Z2xRGmoYR5bFGrJYhvf7s0rLs+HMcMbAQhhFwcyMYIISQSEz8Qs462ntXSuPUukZXbQlIyRxh7QhPNEyAkOpYI6Qq1hAgOSVGoTze2yY233iFnTh6VVatWa1J2TFo6V8i5gb7wwUr3ja8JArixRYb6z8jQuQFLIrtXr4tzBEb2PyStm26OrYWxGGE8PjZSTkzrGkLimiSpIaFFPZT6IylxID351XbIiINldbjiWMfxivNn03BccSnnqWdVEH+HTieEXC6KX9sd3wEO/6iWfn+B160st8N33TqsL1S1jJb5hGjBvyzkkunyQ7WWQhAD3Dgz9dT7YiuAh3GJ+unB04dl+FyfjIwMmwDuXrMhzhFoX7NVZod7ZWZiRCbGx6ShbYXUbbzVnopfjgco1TJhrJYJY1gifj2+eOmx5LZvlZYtKrgJIeQSgEyMEEICJojth2FPD1Ua27qlfuNLNEvSZMgTnPQMvolhJDZIdlBGsWxJpPbZMmVhPNvSIzfcfLsmeIflXO9pmdLlRvpPy8236mfkwH3A3Zt2xdasdK9YGesJuz8mk5q8lfZ/yV4bYk+ofu5TMoYkbh4yYfzwP8aeMmVh/IAMnzpQKYw1MYQw9mR1McLY2jFJNsvqOg0JY0W/9uH4IiE/+bQUf+rfYdMIIZeZ4ts6RQbwrnT4NPjF5HsKrO6lf8etw/pCVcvM3GcEM18Sy7zNFcTbqwvig0+Y3z2fIO5evUFKZ46Z3yt98e+l9OBf2VU69bd8rTRgdDehe9vN6vbjvbu639X8b2ObHpuJYZkZGxQ8vX9KY0ODxoy6DbeEUXYXxC6GTRgjTqhvmxwJJQwxJS+ILbboNt36jdK6lYKYEHLp0IyLEEKqY69OisIYrzWSdTeHh694glNNGNtlb1EQ23wQwrGEMG5fLbtuvEVOnzgsA2dPSXfPKjl98rgtt3/38/ZZ1cDoRPfK1bFVZoUmh3LL18mWLVule+dd0v3yt0v3HW+T7pteLzfecpuUnvqI9PT0xLnnAmFs7/qtQhDG3315hDESxawvzGPHF4L4xFMUxIR8mSl+jfrAmsJY21r3f9ZlpbVCmVnZJ8DMh8QybwsVxIYK0PMJ4tKj75WzZ8/aE6PxNOnul3+bdL/yu2TVhq0yo/vUPwLfPRdcndO9clVsVaFro8jYQIwDMzKt4re+VYXxeo0ZeP+8C2Ib9dUS/s7Er7YnVBinscQvnca6INJv+hpp2nSLdHStsGOphwo/8SMQYxQhhFwM6pkJISRPjSQDlzJvvF09R2NIbFwYe0KD5AYlsATILQrj7g1yzXU3Su+pYzZCXN+gwlJtbHBAmrtW6acuPrkZGBiQ7mvvlv4zc99BfPDAPul+yZvl6HNfKm9XjpHxKWl7dSG25lIWxp9RYXxQc7iJJGE9jzDWNjK48wrjVBBbsqeG7T2nCfixx1UQf7v2EUK+3BS/ulWdzmGtqa/KhDH+27c5YBV0xj6UmS1eEJ85cawsiFfWEMRKzx1fE15jV4PSI++R7pd+ozTXqS/OMaXitHv9dunuCPcL23MaFgHeFS/Dvfb8Bzs2KoxnNAbU4UnV625SwVzSviiIIXZN8Op8Jn71syaGQt1Pqrog3vUGqV93o2zfdRMOWySrKIuPGYQQUg2KYkJIQmWCkY0UxzPxdUhSIIxx9t8ugYuiF8nMxHBIbizR8eQnToet2CY7rr3BxKsJYhWUYHJiTGbHh2RF7j41UDp5wARzntLeh6X07p+U0pHaI8spXZuuldIT/xZbZTZtvUY3bUKaRLd3HiCMG+/4FhWoj9o2ebIaEtd5hDFKbSObqyWM7fUlKK0/9uF4YkTq2JcoiAl5kVH8qhaRfjwhX7+76gf1Wx2/v5UlalZmVvYBMPMZsUzN/QjqZ0+dlJmBo/Z6vDWrV6u/rC1W4avXve57pbQvvMIupXRsr6x+5cKuNhkdOCMjT75fSk9/TF25+qKEGRXPpWN7YqtMU3uXLtinDh1PsZ7WSILYocJY63V4WrUK20zsmkEMa4k4AiGME6saB7LpiDVbXyZ1a2+QjTuuy46lGSGEXALUQxNCSHXCpdMulOM4LhIWCOPV14ZkBoLXS5uOZCcmPC6M1+ySLTuulb7Tx6XUe0aTPQhiXZuuHw9mweXLHR3h3ZdOaffnRc7slYmzB6X06WIQwf/8s1J6+N0iHWuk8a2/LBtufFmc+/yseOk3hHvuEp7/1D9KZ0d7bM1P+4o1UnfNq0VOPyd9x/ZnSau9UxQlhDGEsNbNLPGNZdLWH1bXiu5/FMSeTMOQHGIk6uijUryPgpiQFyPFr2pWYXxYv7nuI/H9tUnhqxwr4Xtf+d2HmfiNZWplv1IvQ6VzMj10xp7Cv33ndXb7hgN/WI2xcfUfeI95wspVa6Rp5SaZzAlcp/S+n4+1QNuKteaDWq99pQwfeFRKH/jvUnrPfVL6l1+QoWc/bn6r9PHfi3MH6hv1eOAEH64Wgt9H7DCb0SIK47XX64zq+z0++GXSmM/jxpTGAwhiFcOy9kZpXbHeLusOhzce4Dng+BNCyMVBUUwImUuSYyAfCRX/oYZkpqlViv/xrVL8kTeERAZAAHtyY6aJz4ZbZP2mbXLu7CkZ6j9rSZ/J67i+KRPFQ9LcoklVyuBJ6X7Jm6T7mjuk+3UF6f6W/y3d3/A/pftl3yLdG6+RqcffLSPD1e8FrgZebywvfCg0HBXXi2HFpmt1mbUye+6oPY01JLANlclsDWGsE7VP21pqh+66Jn5I81CHIeHDcYUgPvKwCuJvs88khLw4Kb61UWYxYmxOUgVh8n0O330Yvv/uC4KZv4hlapkPgekyw+d6RfZ8XK655W7pV/+ZAn9Yi/YbXitDZ3Dvc+DYwT3S1l775F/31/9qrCXseqM0t7ZL9/WvlO6v+QXp/ub7pfvr/rt03/ZW6d6ignXTHXHGgJ3oxG01iAV2uwyOCfw8LLyj3l6xt0aFcUtX8HUmgmMJdL7iO37ADKK4rn2lTKvj9udaVGjitE4IIUsARTEh5DzEhMSFLBIUJDgY0czQPhsZVkuF8da7ZfW6TTI8cFaGBnqDIIyJkgvjGSw3MSxNTU1hVU5duLy6JpvvjJVFsPq6WBFZt36DrN5abtei9Mn/E2u6SzMz0rFdk8Ejj8hY//EkkT2fMA6mHaGEILY2Mrs4DZeeQxAffoiCmJArhOJbGsI7g9Wn2aixfpf9+24+Ida93/vMTySW+Y5oZ06fEDl3XJrufLs9g2ExNLa0y8zp3bGlrvpUuQ5K7/mvsVabxp4NMtx7PLaqYCf1ytQ1qL/GaDH8Pq6AiX7e6l5iJBlXGa3ZZc+XyASxx46U9lUyi+OGSGFnNONxzINJMEIIuUgoigkhZZC85Ahd3u8ZiBoSmkjxP36VtsfKyQ2E8c7XysrV62Sk1JuNqhq2QjUtTRjbqMK0XSpYAZKn+WgKD4RZHPjswNjoqG5uKuyr0/2GH4u1AO4vxigKnvR6rvdUktDOJ4xhIambnUYyGdr6w2wWx7JfBfGhBymICbnCKL6lXmb6DtjgJbycfdftCfR10tCgPWirmX+IZWqZz4Cpr4BvnBoJD6basnWbfcaiMWEayT9dv6U7VmpT19Ckq6gUvhXkps3C54+pD/fPNTGMevD1oYx9Te3h9ps115Vjhq7PRogdjDwjRpjFddoRjn6zgrJfJ4SQC4WimBCSo5xg+D3F9tPq1kQjWEKFML7hLdLVs1oFcZ89KAtJH+Yvr8NWUi7rGuaI4vo118rk6FBsVWHvp2IlUProb8faPNhTYwNDQ0MyeOZobC2OtrXbRc7uk4lzeGBYmtjOL4zxNFYkdCaIY4IXBPEhkYOfpyAm5Aql+OZ6mVafgNFi1cP2fTdxrNaIp+ybDzi/IEbZ33dWZOiMNK+/XnrPnIyfsHAmce8x7uF1OtfFSqD7bf8t1moz2XtYmjpWxFYVRnpjJTA5PhpEMUQ9/Fvex6M0gzBWQd2I51JcI7Lp9rmCGNhTrBVdZnYGDzMLq4URQsilgKKYEFKDmH3EnMbwBMfMz96XMWF86zdIW2e3jA8PyMRwSb1MEMS2DBKcpG4lPqexWQYHKh8O07pqk4z1V95HV8GGW2Il0P2mn4i1eWgvv2cTT0WdfvpfYmtxNLV3h0sAh3tldHgwS2xDWV0Y2+tJPKszq1dBPBYE8YHPqSB+e1w7IeRKpPjmOpk8vdc8Z0N8fgDEMfxAU2Nj8AfRbFrSdkGMB/dNjAyJHPmi3HTrbWHFi2R07+ek45q7Y0tky633yuz4cGwtkOfeLy0d84woX/v6WAmYr8cbCBqa1Lfh1pfEx6PM6ho3cBk1SgjjlTtEtr4cq6jA3glty+jsKNVn4t9cwjyEEHKxUBQTQmoQko04Tpy1rcySnEoKD3RLS1unTI8NyeTIYBB/Op+tw+YPpS+K13vMYmS5oVnG+yrvX2tsaZPZZ2uL1p4bXi2Dh56OrfMzeHyv1F//ptgKNN35rdLc3BJbiwD7tWKLyNApGewLo8We4IayUhjPTE7qIhg10j4TxHUyOzEq0qeCeP9nKIgJuUoovllk/OQLNlrcaD6gPDrc3NxU4RcyM0GM+VQQT4zLzJj6zh33ysF9lfcCL5j9D6g2LT+4sISrYvDU6AUy3HdSP/9VsTUXPGn6JXdXTp/BE68xOg1BjJHgxN+X6xDDaV3nw20wK7dL4S+exGpyhHl9pBh+U3+glgPzEULIxUFRTAgpg5FLyy+QtMSyAvSjz8syhU93SpMK2anRkky4IPb51PLCGO8HtvvQNCGURk2MTj8vba25+4R3vi4uMxd7CIvaaP/CLi/s2nitzJzdG1tYtF4m937WktALoaljZbiEcGI4JLUQvDHJTYXx1OSEJcblyylVJI+PyGz/QUteKYgJuboovkmF5dFnbbS42UeIG4JPaGlpDm03+I5EOI+Njtg9wC0969T1Vfd956Puru8Mt7FExmf0c299W2ydn+lP/IZ03/yG2JrLwGf/TA4dKPtS49yxcK8yhDG2G/cco7R9QJkKYjftw6gx/P+KrSqMK1+ZZ/Pip86Lf2VNXE0YE0LIxUFRTAgpMxzuE4upS8xhQmISkphQtXpyT1nhUx3S0NQi0+NDaiMm/mzmsIJQqrkwnp2Ogth6dN7GFk2OJmWo/wxWl9G98y4pPf3R2JpL17ZbZPLMASnteTD2zGWk/3So6DZtu+frpPT8A7Llmuvk3MPvlu67v8km4dLmWvcXT44O2zuTMVqRYpdQK7MTYX9NCOeE8eT4eJhm/aGcGh+2p9XKvk9TEBNylVJ806ycO/iE+gLViU0Qxg0qkuEbGqStpcV8RF4Qw1dM4hV1YwOyZv3muKYypb1flKEafgqXXA9HX9e15UYpndivPmtahidmZXJsWFqaQro3mrtNJQXL4P3H873uaeXajdLz6u+PrcDoOV3niSdF2laqY2wL/h6+HsLYfH4VQYzbb6yOEvcYawzo2VwpjDEbimz5TBVXEucjhJCLgaKYEJJRfPvWWAMh06jMN7QVk5pi4TXWU/hUu9Q3Npk4xAioZnY6Oc7n8yfL4XLp8FTTZBoSoo41MnzsOU15KpOeutXXSGtz7nVNCXiPZoPOU/rkH0jpgf8npeceUCH9MSl9uiil971DpvqPSenDv2HzDpwbkC0v/1o5cuhQJogHTx2WoY/9tiaiJSl96Nel9Jl3SunxD0jpwb/SBPG/yOjzH5eGNdfK4Kf+wOZ3cAmhNHWoah6RcRXO9SaMNcGNwnhibDQTwi6MJ0cHZbb3gAriT1EQE3KVA2Hct+dRGzGGD8NosQljLXFVTF4Qoz09OW4nJ7u6K+/nLT32rzaiOjs+JKV//jn1dX8spWc+LqXP/bkJ2bG9n5Fp+Lp9j9j8eJfw6nUbZcOGDdLZHq7AKX3x72XyxDNS+tL7pPRvvyqlJz9kQjv4up8UGTo9ryAGhz7wu+HhgAmTZ9WnQbh2rLZbYYLgjTYzVfbzFgO0LxPEsW3zaUxo0DjQtVEKf/44Vqvo9JkZnc1OpwY/aqVNTMBUQgi5OOrU2dCbVGG+w5JO83q1sprNRAefltVseno6K2H33HOPrTfP/fffH2uELA0QuU0dPbJ2/WZp6+iUs2fOyNhISbVfSWZU1Ml4CcMNUvzWLVL4ZKvUIQmaGguJUj0esKIZi2UtEILlupWa+ITXa3g/iHWMUh9/XLpf+V3hPrOE0oN/rf3/PrbmB/cp1+l2QJimQBh3v+WnYiuAUeSpR/5Kut/0X2JPbUqHn5XubTfHVqD0yHtE2lZIz/Wvkq5Va/Q7i+/5jIwMluz7HUy/69o/OtgvM2f3iez9BAUxIcsE3Ctbt+l22XrHa6WhsUmm1Rf4qDFOmk1MTAZhrD4Q7UO7n5Wpp94rd/z7X5H9+/bEtaiv+dT/le7X/3BsBexe25yfGzp1UGZG+qX7msr3uJce/geRdTdL9/ZbY08AD8hqnu+BWgmlU0dk6413yrn+8mgzbpUZe/hvgqDd+BKR5viALJgL4SBptYDvj32oZ/MkdYAnTw+eEtn6Mqlv7ZLOFatl/cYtMjI6Iv19vfZWAryyanYMsahfY8dZKf77m8KyZFlz3333xVolDz30kDQ06PcuPgney2oWTlBVltUM1CpBWs8z3zTy5YMjxYSQOcBdhxQl/IuN8MMSmlkpfKLZxCfuqZ2112foUlmSE0qIwqxvekpzn3ifWTYPiHXci9azRUp7H9I2kqcyEMQY+V0IGLXOJ4pgwzf84px3fk4dfWJBgtho6YyVBFwqqPs0bfdGh0A5OjxkdW/DxoYHZKZ3vwli3DtHCFkmtPbI7AsfliOPPyAN6gtw6bQlxOG/tLairZXoK2ZxKfHUhIzi3uKU0b5YKVPNz3Wu3yFyJIwWVzBwdI4gBgsVxINDI7Lx+kpBDMYOPy4YYZaeTbinJPjy1MebqT/HiHHWV0UQW4n5MGLcrDuy1p7AbX06H04u2nGzowYjhJClhaKYEFIDJCooYvKS2uqdyMjskunZyTHtQ5Ki/ZbcxHliaaOlJohzl9Fl82sVP+Il1NK7TwZPHkRnBSvf+KMLFsZ5cOnyyc/8jRw9Un5PMVh525vsHuM8nd0rYgKWkLtk0BjHe5TDPmpKKyNDg7acm/6QkdKATJ9RQbzn4yJrr7fR9MIfVb5jmRBylQK/tuNemd37Cdn38MfUS8yqMG6O/gVeQ6SlGW2tRLcI39rUlLtlpHN9rJRZs25DrJWZmG2Qhpd9T2wl3PS2iodvLQYI4o6elTKMe4cTSicO2KubZPWuuH3w53EnzLdD0LroVbOTorFt8/i0IHxDWw3z1ev+t6+WmT2f0Fmij7WDlAfrIoSQi4eimBBSnZhroLC8xX5oAw9TQXIyORIuc7M8xWYol2l9RhOxWoIYZVpv6xFZtVNmn3qPjA9UvqMYtxHUEsbtnT1SOntCSgefkOHhURk81y+lQ0/ZJc+tOi19qNb4oE7b/yWrT+tH2sO3nvuUjExMS+nRf5LS4KD09Q/oeobDOo7vlZ7VmnyeeMqWcWamdJ/GBzE0bZdYDQ+VQtKm5qJ4+FyfTOOJ13s+JrLxNkt2zRoa41oIIVcrhXfpdx/PHlAfgff6zu79pLzw4Iekvm5W2ltbpMGeSB0uzzRhjHuMGxpsdHlY/VAFW++25xQMjU4GP1UalLO9/TIyNBSeoXDykAyOjMvE6LB0tOG+XhWth56WwRP7rd695Xp7kNbE+LgMqo8sPaLrGNDlR7SuPq70uT+T7p4VNm+KC+L66cqTgvYAwxc+KNKz1V6pZO8nhh83i+LWfbv590TwZvcc+7z5EoYRY12nxpvBh/9BJ0EU67HCh88B6yeEkIuDopgQMj+W0MSkA6IPTEAQj4V2RUIT5/U6xLCNDiT9oKKd9EEw4rK59bfI+DMflAkVsCnVhPHwxIycOnVSutdslO4dt0tHR5t0aRLXvf0ldg/wpo2bKh6qNf6FP5WGnk0VD9/qvun1smnDBul+6TdJd1eXNGte2t7eHtaxaZdMTU1k63Amx4ftKbG41M/uYUa6BjGMf1oODfTK9BlNinerIN728nCsXBRjtPgPPhzXRAi5KsGrhiCIcZsJ3t97w1tldt8n5ZnPfEC9xKy0qTCGKDZT/9Dc1KT+q0Odz0oVrOWn+wP4ti07dsnmzZuDn+ruUoc4Lu2dndJ961dK94btsmXzpuShWn+nvnfSRofTh29dd9OtsnJFj/mz7hUr1c+1mY/rftX32eug0itnagliu6d398ft2RKy7gZ7roL5b8QBHxnO4oCL3KTtMcH7s9HkpMQ8iB84gdjaI/v/9XfMr8LNzgGrIISQi4SimBBSHehd/NMkxQwPNQE+QmwzIBtBEoPSE5rYh0v15hshTsu0Hl/NIa0rZAzCeKiGMP7sn0rp+D5pbGySLhXCtdi/5zkrx4fOyeyT/2j3EHesVgH8lp+S0kd+06aBgb7K10GlYMQ3z0RJk1bsY1OrbnL4fMvX9Mdg/1mZOr1HBfFHRKYwmh7FcCaMNUFGwkwIuSrBA7bs3lh81+1EWPz+d643X/rkp/5F/d2MtMQn68MDwv91dveINHfKudNzX710+uQxOdcXXzFXhXP9QUiXHn+/yPpb7WFbXSqE6zvXyODR523aof177N3p1ZiYmJDVt74x+ta9NQXx6DMfFjmlfnXTnaq0N9l+mKX+3Psy357Oo2UWG+I82fxu2jejpV1KrcK4pVMOfeB3dH74UPO0AayCEEKWAPXShBCSgiwjjHZ6wjHZdyQkKRPD2vAR4iR5sUQHZeyDWMTlbxXT0nmSdlbXwvvw0K1V19iDrMae/lBVYdz96u/XfOxaaanXz1kA4wMnpe3VlU9vlbu+M1YWz+ywiuj21eFhW2hHG1RxPXkqCuLrvlJkl1omhmNCB8PoESHk6gQP5stGiZFqxe/9tntEVmyR2Y7V8vgn3qvacFKaGhvU7eGNFDPS2qa+r7XLXiVnV59cCCeerHioFh6+Nbv/M7E1P5NTU9G37qotiPFO4u2vEFm5VZ1eNX8e+7K6t3N1E8bel/Sn5iPGOI7N7TL8xb/BpoRjmYHPIYSQi4OimBBSSZZfhKRj6PDTmpRocuKCGCBZyZIgJC9YKLaRwGSXxy3AfDkrtfB2iwvjVhl7Zq4wXiy4dHD0aOV9wXav7wVgR+aMCt+2lVLXXH4qtQliGyHWxPHGrwqJm90/rKUlcZ4cQyDzEmpCrlowSuyC2E+ImefA9z/ebtG1QZ741PtMGDfW19lrGHErRj1OCh57VDrnuQJmPuru+DaZ1XU6Gzdtlc7X/FBsXRgVgtiE/bbgpysMcSHGA29XTPM+79fSYkXSnlNXsxFjjSs4jo2tMvnkP9s2EULIUoIMjRBCqnLg4Y9oUqJJy6QK4imMEGvnnCTHExgt/aFaPjpQtdT5fLnzlRhtgTDWJPF8wrj07p+MtXnYV37qc8+KldLzqipPaV0A547vFTn9nN3/3Na9Ujd1VkomiHeLvKCJ481fp3N5AuwWE2NPjlEicSaEXFUU/vxx/W43aYbVGL/3bvjex5kUVOtXbJGnPv2vqg2npEGFMebpxoP91t4gJ/c9E2ZcJF0br5XBA+XXMu197nF7uNeFkgnik0+XBbH7aPPX0b972+rw90k966/SlwnjWobRYi0ttsBvNtlDywghZClRL00IIXM5/qQKSCQhNkKMe4gVJCgVCRDaKNXsHuIqI8R5obvIsr5jldStu1EFcve8wrj7W/53rM1D18ZY0fm7e2TtmrWxtUjOqPjFE1fbVkhze7cM9p+RKRfEt35jmCdLflGJlgpjT5QJIVcXze363cYocfyeZz4AoA8FyjoVqzr72h328K3pyQlNymZl1Xr1U53rZPrY49KEp1FfCH2HYkVd88DxWAuU3vszsXZ+yvcQq0DHJdM4Sek+OosHqc+O7bReMV9aJoZYU2uaWU4YYxT+KIS/zm+vxiOEkIuDGRkhZA4TJ1/QTCoVxJqEWGLiCU4uucleu+TT1LxM6wsqtYjt+sYmzS2bpKGtW+rWXndeYXxeJsrJ0/TUpIwM5157UoXSA38ca4HSUT02ez9hryJpUME+NICHau1VQfwhkdu+JcyEpNeSX1RimSXIMUlGWxO7wu9+ADMTQq4WKi6djt91I5R+rzB+4tkNsM7NN8jzD35YpiZxH2+9NHWutnn6D4cHBS4afH6Gf36ktTtW5qdCEKeXTNv63F9Hy58srainfcm0bJloCxkxNnEcYw2Ob99+kdG5D0IkhJDFQlFMCKlk8IQqxokgINMR4sxyiU76lOl88pMmTW7ed54SYtguP9T14PLkJRHG/eXRk5MnT8ipgypwz0P3a8v34k2NjYgc/KzI2utFutbb/W1BEH9Q5PZvi3Mp2A3H8lH94YlxliSjVBeM95gSQq4e4LtMEEdR7N9/VCNJ1V7HBFbuuEX2PfIJezr0+p03a8c2mXn2/TKD178tgkn4KTwVOtLcs05aWlpiSyd91c/FWm1qC2I3FPDV7u+TuvnwfH++VMPIr9ezvih4a5mNFqswxklbE9H6ca09tjmEEHIxUBQTQjIK/9yrym88CuLkoVpmaaKjhrP82QgxMhOfhjrmjfP7ZXNZX2LelyshiOvwgCqtQxBjPRcrjIf7T4nc9s2xpVulydX00++LrYUxsvfzuKFYZPUuaVi5JbyH+HkVxHf8uzCD7UMKkl0kw0npdQNtumFCrhbsfmJ/DVP2vQ/TKlE/55Pcb+r/ddfdKYef/IxdSr3+lleLbLhVhnZ/Vl1t5WuUSg+8M9bmMvrMR6Tr+lfGFt5ut07OPP+F2Do/kyPzCOJkW8PW5/vTOkq1/IhwhSXz2UiwltWEsYlh1ONosY0Ya/yxNx3MSuGPP4cNIoSQC4bZGCHEKPyTikY8TAv3Z9kIcZqsuCUJD5IRnK2vSGryy6Cd9M0nkN0ghuvDK0q0I5l2ccJ4+tAj0r1LE7yEtld8r6xZuy625qe0R5NKXCK98Tap33irCuJ9QRDf+R3lbTS8rAaSSGTCqdENE3LVgPeP2zuJ8b2O3/GEtBXq9jZ4K2FTk5OyZudtcuLZB1UbTsqqO79aVW6/DO1/WPAwLqf7tT8Qa1U48bh+bM6vHCk/eGs+TBA/ez5BjHb0z9iLrB99qLuly6TlAiwVxhVi2PsgiqMwxrvgtV7448/q5xNCyIXBbIwQIoV3Hw9CeHwwCmLFk49qVnHJtPdr3UWv1X2a170/zj+n1Gn1jZpLNoT51FwYh9FiWBVh/PQHZQyjwOeh+5avkNLzn5Gx8UmZmK6TkbEJGX3+E3L2zOk4R21Kex4SeeIfRLa+TOp3vEJmzmKE+N9E7lJBbIlhYijCj7lYgpwaCrphQq4acFIve8hW7rueMRt7oo+L/m16asqedTCltnL7LXJm9yMmjLtf9naR3r0ytO9hmRqP/nk+bvxqGervlfHJGRlTGxwaEbnl6+PE2owOnJHRp9WvLUQQWz2W2Bufls2HcgFmwhal9yVtxBi7RBoWp1t/bNuyaohHk7qPWhaKC3sfMyGE5GE2Rsgyp/APh8IDtTJBrAlNRZKSs0wQp/3VkiHUk7YlVjnzPpQQwy6Ik3nPK4zbVsjEY/8oQyf26Xzz0NQq3Te+Rrq7OmXt6pXS2d4m3Xfi1Um1wSWMpac/qoL47y1JrL/2dSqI4wjxXd+ZbWPZsJT9iKT1mBhn+TEqapo4F373/aGLEHJlY69hCt/r8B1PiP4h9KY+bVa13ZTZNGxShbH6nq5N18vAgSdMGHfc/e0iZ/fIyPOfkrHBAVtDLbp3vVw6V66WVSt7ZNWKHunqbJfu1fNfEVM6eVAmH/9HE9+y7RWLEMTRbKfQ55bMk/Wdx7K4E4Wwid50xDj2+7RsHrVp3PajwnhqXAr/99PYGEIIWRQUxYQsYwrvUoGHy6VdECOBmZOUxIQEhgdweZJSSzSbxUQoS5JyiZElWokhkTRBHASv9SXzzC+MrxdZd6PMPPMvUnrhczJamv9JpBMT43JuoE83X/dtHvCU6eGH/ia82/ia10gdBHHv/rmC2JPCzICWNi0hy4+1grobfmD/CSFXPhglLn+5c0S/kFnwh7Pqi2bUr2bCGKPFKophLau3ytCRZ6y/9c5vtuc9TDz+bhk8+rz2ze/DhocGz/uE/amJMSntflDkoXeqf1ffbiPEW8P22fZiG+P2VhPEcR9CW/c5m57YvLECFuNN1Wlq2Ygx2lp6jLK+OA3HAqPFeB7G1JgU/ojvMSaELA6KYkKWKYW/fi6IYX/tkiccWbIRExJvp4K4qiXJUkVf0s6SQtTjdBtZSUeIE2GcWE1h3NopDetvCMlc716ZfPTvpHTwCRkbvLDXNpVO7JfSkx8S+UJRj09JZOfrpG77K2QWI8TP/VvuHuKwHVk7M6wp1kMjB5LHWGajSoSQK5nCO7+g32VNq/x+4gz3A+4Loj9T/zA746PEKoxRTrkwnjJRDIHc2LNRRk88r654SppuerOJ1tnnPyRDT31QBo/vDf55kcxADB94XEYe+muRp95jJxZxe4g9tdr9VurbzieIs35MSqdFO68whiHuRMM+VVgUv7A50xGXYj27DWhECn/48bA9hBCyACiKCVmG2BNSY+JgT5sGSEo8yfC6JSha94dqIbFJ55nXYmKUJVNpohTbdsk03JBPV4vJlonftF+tljDG06ob114rsuVukTW7RA49KBOff6eUnvm4DB55Tob7Tumu6DZXAffo4dLB0r6HpfSFvxH53B+IHHtMZMerRba/Uuo2vkRmfYQ4E8S+H8m+GCijZX0pNcQv7ysm5MoH7yf2k1z4qqcnu9w16A8XxMF/YZQ4CuJoEMIz6nNRhxDGKHJ9xxoZP7XHRkQbt6l43f4KGxWdffI9Uvr8n6v/ekQGT+yX8aFz+JCqjJV6pXTkeSk994AMffL3RL6kghiC8ro3iWy6w25FCX4rbFvYRrTL21s5PdefTccsPj2xCmGcxBefllo6j8cce9tB0vZpWYlltYQwHtP4Nj4khT/4SNgeQgg5D3WaUEYPRlLmOyzpNK9XK6sZXgOTL6vZNM4axxJ2zz2VT8117r///lgjZGEU/uShmFREkWuiVC1L5lCPYtUuBYx/7z4CMsd8mVjP1pWU2Yioz6OG9/PWp0lkOp+a1eu16vWyhSerovS+OB9M92lq6KzI0GkM+4oMngy2Bg/m6hRp7gjvEcX9Z2OlMN/wGZ3WFUZJujeKdK4TaV8tdTrvbN+B8FCtO/9ddiisot/fUNVj6G0zT+hgOM4o9VhDlOOY24i7Jnc4GWEnG7Q9OSbFH/vKsD5CyBVJ4S+fFOlYG3wMnkJt71pXH1qH20Pg+9xPofQ6/usPI/iUkC/AbwSfgnrWHumXhtXbdc46mRlUvzXivk593EhfeNBX1wbdBvV1TW26jC6Hq4HGVCwPHA4+qG2VSM/mMJ9tb3uYD+s3X1b+bF0g1n16rl1RJvNYjFHL+uO0ivZ5zHxnso5sfViPrx9lnG7m8+hm4NjrMSj+12/VBlkO3HfffbFWyUMPPSQNDQ1m9fpd9LKa4XuZL6sZqFWCtJ5nvmnkywcyS0LIcgLvH4ZN4b2XSC5iEpMlGyghmDW5gGCzB2vlEw83T0CizZnH15er+yXTWYIVp6XtmJwhQQz1stUaMba6BrGmnvXStPk2qcdoyrVvELn5bUHw4nNNCGsyiUSxSRPXdTeI3PBWtbeI7LhX6jffLk0bblRB3K6CGCPEKohv/7Ya+6+WbVvSdkORlrAsGCYl4yMhVz4V9xPbl7783c98FQy+Ylqrwa/inuJZFas+UozR4eBztW6GerSWTpnuPWD1+o7VUrfqGpH1t4psv0dk52tENrwkiGH4Nz8hiJFTiGRcHo1R4V3qE7e8VGTlDu2PwhnbZdsZ69b2uk/PtSvKdB6vK9k0mG5/PmbkLd1XOz55w7GpMmLslvppxC/4e0IIWQAUxYQsN/BgLbtkOk1m1CraWrdRzJh8ZAlH3uL8KG0+Xz5n6boxaoKRXmsjcYql2wUI4yCIy8LY529oXyHNa3ZIswrkpu0vk4Ydr5D6a+6VumteJXUqgO2J0lvvlkYVwo3rb5TGlVukobVbpkaHypdM3/attu5g2MfcfmZJGD4zqWftsC3zQ1VMyBWPjQon32X/7mdl2T/Mmhh2QZwYRDGEsIljtOFnyyLZysY2mek7aPPhM+vaeqSuZ7PU4daRDTeLbLoziN5tLw/PWkCJ9sbbRFbvtKtgpL5Jtyn1Vb593vZ6LPPtijJXz3yiGvB6Zu5Ho9m+RfPpWdvruq9pHYLXlk/Wm32ufah9tN1OQwghC4CimJBlRvE/f41+8/Wr7wmWJRFpkqPmCUiabKRJSmpZX5y3mnmykt1DjHbymWlylm/HZG0+YRzqKPPCuNyua2zWXLJbmrrWSEvPOmlZuUEa23ukHpcO4pLDuJ6pMRXEdsm0CuJbv1FXEffRTD/Pj4Vte97CNlS0fZtRApsnVAkhVxM+Suz4Fx3fedRj6f5S/UgqiFNfU+6LfrqiVKtvlNl+XA4dl9H12suecF8zfBruD25VU8EcLuduiZvi2+L+CnWUadvr7sNy7YoyV8+EaWLA65kPTSwfT2x/0npu330kHSdt03XaZ2F7Ycqa66T4w68LdUIIOQ8UxYQsQ4o//pYwWpslHTAkFEgu0IcEA4mOJzs+D6b59FqG+ar02yiKmrWRtMRyTjta2o5JW01hnNVR1hbGaTk5PqZ1nezrU6YhiHFpIgTxLV+vi2JfNAFL9z/dP5se65lhfV6W111RJ4Rc3eCrbpb6BPgiLd1/mi+ttEoxHMVfRZmYfgCEMS7DtmXcl5mh7Z+tlk6r4lvnTotlvm1latX6qhg+x/Zbtytv6DfzdrRMDMOS/U6XNWGMevwMh4KYELJIKIoJWaaYMK6vl4bbMBrqSYknHFq3JCOWsDRpgWXJSjTv9/nNME1LE8TqbqwvSbBqJmDR0nZM3oLQjX3RZpP5gvCdXxjj3ZxWt/XoZP1hghgjxC+oIL7pq3WReCxs/5CMeT0x32erYxvcsF4tbf1JPbOUfJsQcuUTv+v+/U8MwtjEr/qOIGj93mH4HPga9zdpG7eyeD0aRkxxGXH/EW27H8Ln4nO0hO+1tm9HMi2r59uo+3K5tpX5+kIN60uW8+21bYZhn5J2Nj23v9aH5aP5+lI/umYXBTEhZNFQFBOyjIEwnn7yn6Iwxj3EMRHxJCY1T6AsGfH53Lw/Ncyjpd9n58lLtu5Y1kzEoqXtmFSll027pcI4WE4Yx7YLYjf8mx4bjiPEHxK5/s36kWkS5olYLLN9jvtnffjs2LZ6YnP2B8QyaxNCrniy+4nxvU7MfIGW5h/cd9Sw7B7i6G9M+LrBR3sJkRzbE0Mi56Iwtitb8Jm5z7Z26ovyfsnbscy3rZyvfh6zbdMS2+R1M+xvNKvr9lsbZWqYniwDs+ObwwTx62ODEEIWDkUxIcucTBjf/q0h+cgSj2hVxGaWlFjyom1PaCpM+6sK4rz5OpPSPtP7vO31UM4njF0MYx2ZMNZ/03jqNmrow7LogyC2EWIVxHgqK44BEs2KhAyGfcq3o/lx8Lrvv5tvPz7TShBLbxJCrgL8e43vevq9jz4h9ZfmN1KfkrcofCv64hsBKoSxGl7HZMI4rt99jW9HhR9HO5meTYtlvm3lfPXzmO2v19X8eNj+YBrqqaX7m8yTGdZRSd1rf5KCmBByUVAUE0KiMH6PNNyJVw+lSQgSmST5sWQpmicwnqhk7Tgdl0vjwS/enmPper2elBV9aKf1WGbLlq2WMJ6Z1GQSoE/nQh8Esbgg3vGqymQzSziT5Mzqvq/ej32Olu4/zIRy2B5thDI1bLtvPyHkysa/x/7dtu956gfcb0RfkVrez2R+KK0n/sjqEMiJ4fPOHY2fo5Zth28D2lqm25b5pWR62rZyvvp5zLajSt3XYfuPffIysczfYr5oWC4HBPHsM/9CQUwIuSgoigkhRlkYf7t0fsX/F5ORaFkSk1iWbPk80VCHIPZ7iLOEsJrFdcB8fVlf8hnZZ6Z1F76+bNmCMC6PEs9MjWsR+vRH6JsYEek/KLL7wyIt3Ulyqcmmj75Y3ZMzr8cys7jPqPv+VxwPfC7q+Nz4+WZOvk0IuSKx77dV9D8s+py8X3B/kVnqU1DPtd0XmSUiGIb3zXt5dm94H/G5Y7pc/Cz7/OhjMj8Ut61iO2uV89XnMROx/vlpXcu0v+rxqDIPrIqfzATxj1AQE0IuDopiQkiGC+PR3mMqjH8iJiZpcqKWCtMsQdJ5LJHRejZCnCz3ZRHGoX8GyWLFvFEQ96kgfkEF8fpbRVbtmJtsZsmo98U2kjarp0lckshV1HEMUOr22TEI2xS2B4TtKbcJIVcs/l3ODN979wGpuc9IfIrVEz9j5r7HbTyUqRDGO+fd8HlHHhZp6RIpRWEMi74w2yZY5nuS/mrz1azPY/jMCv/v9bg93udxweo5H2rLu+k8Obq++bcoiAkhSwpFMSGkggph/JU/WU5U0iTHLY7ImmEef9CMJT/oT5ZZSmGc1nVaTWGMxDLt0/rMxGgQxLs/IrJ6pyaTY9GS5NKSzZh4pklqJpQ9idUynW7zYFpM8CqOQ3Issv3RKiHkKiH1QfG7bj4A5n4hWuYvEt+RGfyO+qF8O/NL7qfcd8HUr3m595Ph6heMGPvnuw/Mtsvrscx8UrV58vV5zD6rWtu3I5ZZPZkP+2rHB+1o+NwcEMSDZ46qIH4fBTEhZMmgKCaEzAHC+A9fOyRDR56W9jf853g5NZKVJIkxQ6IUzUaIlYrkB/PEuiU+6bJ5S5KuOQmalmlfxfTQzgtjCGIfGc76XBDv+ahIz+aYcGpyOQnz5DImnFkSijoSUU9I3TxZRSLnyVwt82MQj4NvZ4URQq5o7HuO73L8jpu/hEU/YD4j8RuwTOhGS0/KuS/K+lCqj6rwVWirX0MfSlwFMzks8sw/izS3qzA+Hj4bvqfiKp+4rZnPjNucWdpXbXoVs/2v1sYxQB2l9yd9mAdknxP7q/hFE8RHnxd59K9VEL8h9hJCyMVDUUwIqUnxrU0ysvszMtJ/SoUxRo1jcuVJjyUzahgh9qdM5xOeTAjH5S6DMJ6FSK3o0xIJI+4hhiDuWBuTUiSanqR68qnzVUs8UbpQtuViaebrQJlaTIbN/JjoNtsxiNttpm1CyJUNfID5JVj8vpsYhrlPSP2Fm/se+BhtZz4nb1H8Wpk3FcMmiGE6Dz7j6feKnHhSpHQi8T+6bZk41nbmR70vLRdh7tvy7exzUXp/2odS+7Ed6ZsKckAMN7zhPhl85hMiD71Tij/x9XEKIYQsDRTFhJB5KX7LJvmjVw/I0DMfkbpbv0Fa7v1BTWQ0ycuSF1wyjWQmSaRqJT6o2/Q43/ksS9iSdad9FdNDexYJaDYt9pkgPqSC+ONS/Pnv1+RxWBPLKHArLl9EgqolpqUJZ5aUJsnqNMo0oY31LNFN1xuTYhfIfhwAthHHhxByZQMxar4IPg/fdXz33R9E/5D5EK8nfT7a6z7G25mhHcVvJoDjNFwFY35JP8f9s1L8/75Wit9+TVkYZ+8xjn4z881Jn5Vu+XYVy9YBw77HtpXR5hPE6Tqqce+PyeDTH5PpB35X49FGKb7jP8QJhBCydNTN2jAKyTPfYUmneb1aWc1mNDDky2o2PT2dlbB77rnH1pvn/vvvjzVCLg+F//NRkQ0vETn2qEhDs0h9o3qS+sQwahzr9p5iNSu9jWleoi+WFZasAwbRnfXHetrndSRa2bRoSDgHjojs+6QK4rnJVOE3/yHuA7YpLuPLowRW989H6fU4T74EVnfSOlA/od9/SwKRxKpIL/5/XxenEUKuVAr/oL4GPs2+3xB+UfShnglA73OrMp+10Y92LCvEZL5P54dfUYrv+AEr8xT+drdI57rYUp+UfT6WS3xS2l/RrmL2+d6O21FRxulW4kRB2sY8aV3LZD/kZvWJp57hZdJkwdx3332xVslDDz0kDQ0NZvX6/fSymtVp7M6X1QzUKkFazzPfNPLlA9kjIYQsmOKPvUmK37whJjLVkqakz+ZBohOTnjT5yeaJZYXl1msJm/fHetqHul8ynU1TwwgKRoj3VhfEoPhf3y7Fn/wmFaZDOj9GaFRE26hOHOXFqIvVtQ/TslGbeSy7vBHry5mPJmcjxrqdaBNCrgLU/8Bf4LvuI7u4xxdXp2QjvN5O+9N62o59mV+JfsRL8yXqR9TnQQzXEsSg+B3XiwyeDPP7aLL5T5R5i760pmEdiR93QVtRYrqXixTESvGb1lEQE0IuGxwprsF8hyWd5vVqZTXD6G++rGYcKSZXAoXf+VeRxhYpjwCno6hpW6djnqUeMfbRWyRV3u8jtkgWMUK8/4F5E8VaFH79b5PtTNZreBmxZq4vmz/2+7LZunw/6u1EAyHk6qDwl0+r/8HJLz9RB8EHEYo6cgSIQQhBt9hnIjHtTywVkjZ/EMEXQuGvnhXpWBNbANuVrLuirGZRwM5ppyW2N1f6NF9uPkF8gftGljccKSYXA0VxDeY7LOk0r1crqxmEbr6sZhTF5Eqi8AcfSQSkmzr9irZOryqM4zTr83ZqufVUCEo1/R5Zmfbj/t5zKogPfHbJkqvCr/25SEOT1uLnWokp9iNH9BFW6A9so+F1lCExLP7c94VJhJCrhsLv/EusRT+B733eD5gPQF+so9S4776hbGGepRSKhb98qlIYV3xevp2ai9t8Oy3V8qVP8+UoiMklgKKYXAwUxTWY77Ck07xeraxmELr5sppRFJMrjcIffFhF7Tz3F5stsTBGUuXTrE8NI8Tnjooc/PxlT64K/+OdsRZgckcIqUbhf/xJ8FeaB+iPL4uvKPz54yqMV8eWYiJVt6eiTCwTsm6J2M1KzJMr88tlbUzTkoKYLBEUxeRioCiuwXyHJZ3m9WplNYPQzZfVjKKYXInML4xRQvhGUazBptz2edHWMmu7+ToSQ1Ll4tin2wixCuLDX2ByRQgh56HwZ4+KtLsw1vxF85KygE3qeWE7Rwj7PN6OZX65rI1pWlIQkyWEophcDJpF/v/t3QmcJNldH/h/3ffRXd3Vd09Pz4xGo9FoJCQ8uoUQ4hCLFwxmd+3PIjDglLHBC0YLkkBCAkmIkYQQh8iP1+uPbQzmlDCLwBgQujU6Z6bn6Ln6vqvrvs/c/+9F/LNeRUdkRl5VlZm/78yr9+JF5FFRnVHxqxcHEVF1ZP/Nd+iOjl3AxYrtWKHGDlG4o5TfYUJty2Ja6/y0FX9HTYs7V09rtxMXzseFaKYuMBATEaWU/ZGXiszd0G2udyEsKzYd7c9vs1H7y9h0WG95nD+NttYMxES0izAUE1FVFQ3GcTtPtpNkO0yok4KxBWKbxo6VBeKLX+bOFRFRCbI/+o9E5sd0m4tgjKLb1Xzo9bfl/rYatW2rrd+rbZ49zt++o81ATES7DEMxEVVdwWCMnaG4najojpNN5/u0rEefU4sLxBdFLn2NO1dERGXI/tgrNBjf1O1tGIzdNjjcxtr22bXRh22zTYfz/NrmuYLpsO3mac1ATES7EEMxEdVE8WCMaduB8mt/efRpjb7oCDEK7tWJQHzlG9y5IiKqQPZfvlqD8bhubxGMvW2vbZ+3bLMxD7VNh7XNs/nRxzAQE9EuxVBMRDVTtWC8YYHYKzZCfPVR7lwREVVB9i2vE1mwYBwdMbawjG2yV/vFlndtPA79WuM+zAzERLSLMRQTUU1VHIwxQpzf4Qr7EIhxlenrj3PnioioirI/8QYNxhPB6SoWhP3ts7/N9vtRY/vs2raM1gjE2OaHuM0mot2IoZiIas4FY3c+sO0shTtJqAsFY9xzOL+8FvSvLgSB+MZp7lwREdVA9t98u8jipG5z44JxTFBG7bbRtr1Gv9YMxERUJxiKiWhbZH+yxGCMQGx9trwbIb4icvNZ7lwREdVQ9qfepMF4SrfDkWDsSrgtZyAmogbBUExE2yb7k99ZPBhjJ2sNgTjc2bKdMIwQz2ggnjjDnSsiom2Q/b/+scjyrG6DLRhj+x3W7uKH2E5ju23bc2yvsT1Hm4GYiOoHQzERbaviwTicZ2HYAvHsNXcvYu5cERFtn+xPf6/IynywbXYl3C5jm+3OO7btOPrD7TgDMRHVGYZiItp2+WBsO1YWjF0gDtsWjHHI9NyYyPRl7lwREe2A7L/7fpG1pWB02EaIbfvt7g6AaQvEqAPcZhNRvWAoJqId4YKxjTq4HSoEYowuhDtVaK8vB1dBnb3KnSsioh2U/dkfDLbX2Fbn7xsfhmH0MRATUR1jKCaiHZMPxu5wauxghWEYO1e40NbCpMjcde5cERHtAtn/+38PGthmu9vlIQRju62V23YHuM0monrDUExEO+qWEWMUXGgLVz2dH+POFRHRLpL9uX+ue49tuq1GGMY2G73BHzOxveY2m4jqEUMxEe04d+sPN+pggXhSZGGcO1dERLtQ9m0/JNJiu5DBCDG310RUzxiKiWhXyP7b7xZZXQoC8dI0d7CIiHax7Dt+JGwxEBNR/WvJqbBNnkKrxZ9n7bg6rmxsbNxSx5X19fV8jfLAAw+454168MEHwxYRERERUXN661vfGra2euihh6Strc2V1tbWfB1XWlpabqnjCiTV4LejCs2jncORYiIiIiIiImpaDMVERERERETUtBiKiYiIiIiIqGkxFBMREREREVHTYigmIiIiIiKipsVQTERERERERE2LoZiIiIiIiIiaFkMxERERERERNS2GYiIiIiIiImpaDMVERERERETUtBiKiYiIiIiIqGkxFBMREREREVHTYigmIiIiIiKipsVQTERERERERE2LoZiIiIiIiIiaFkMxERERERERNS2GYiIiIiIiImpaDMVERERERETUtBiKiYiIiIiIqGkxFBMREREREVHTYigmIiIiIiKipsVQTERERERERE2LoZiIiIiIiIiaFkMxERERERERNS2GYiIiIiIiImpaDMVERERERETUtBiKiYiIiIiIqGkxFBMREREREVHTYigmIiIiIiKipsVQTERERERERE2LoZiIiIiIiIiaFkMxERERERERNS2GYiIiIiIiImpaDMVERERERETUtBiKiYiIiIiIqGkxFBMREREREVHTYigmIiIiIiKipsVQTERERERERE2LoZiIiIiIiIiaFkMxERERERERNS2GYiIiIiIiImpaDMVERERERETUtBiKiYiIiIiIqGkxFBMREREREVHTYigmIiIiIiKipsVQTERERERERE2LoZiIiIiIiIiaFkMxERERERERNS2GYiIiIiIiImpaDMVERERERETUtBiKiYiIiIiIqGkxFBMREREREVHTYigmIiIiIiKipsVQTERERERERE2rJafCNnkKrRZ/nrXj6riysbFxSx1X1tfX8zXKAw884J436sEHHwxbRERUbZlTHxQ51C0y0C7S3SbS1SrSEZb2Fmlp17pV67YWV0tLi7SGdYuWttY27Q7asqG/B7SgXltalY013d6vrktOi2g7t6rzVjeCshKWRZ23FBa0F9Yl+5q3h++OiIjMW9/61rC11UMPPSRtbW2utLa25uu4gm11tI4rkFSD344qNI92DkeKiYiIkiCMzq9pCUMpyvKGtGhpXclJ50abDHT1yf6hfXLi8HF5wR13yz1a7r79Ljl+4IiM9A9Lb3u3tK/rztWqPp8+bmNBn09rWdLaFQ3G7rm1jXnu9bTMapnTMqMPnAnb6CMiIqKqYigmIiIqRc79HzZzsra+JstrKzI9PytjsxMyuTAjs8vzstHRIl0DPTI8uldGjx6UIyeOyrE7bpOjdxyX0eMHZWB0j3QN9kpLV1t+xFk4gkBERLTtGIqJiIjSQmZt09LeIhtaVmRdFpYXZWpyUsavj8n1C1fk0nMX5OJz5+Xcs2fk3Jmzcva5M3L2zBl59tln5dlnnpEzzz0nly9elqmbE7I4tyC5leB0GsEh2BqkpVN/NSMkYzqakaPTREREVDGGYiIioojMkx+SzIWPBBMIohqAg/OItWzoNA5znlwRubwo8vSsyBduinxxXOTsvMiNJcmNabm5LBvjy7I+uSxrU0uyPhW0NyZWJKd1bkofP67tJ6ZFvjwhcl4fO7YcHKq9jhfB6+rrISQjLIejyJlHHpTMl37VFSIiIqocL7SVoNBq8edZO66OK7h4VrSOK7zQFhHR9sqc/pBIb7u2wm38ogZTXBhrX5dIdxiGNfC6C2HdOSCyp0Okv13aujukq7dbevp6pKuzSzo7OqWtvS24yJZdwKWldcvvgY2c/g7Q515dXdWyIksLSzI/PSfL84uSm10VmdKCsI3ziQf1dQAX3sK5xmv6nkY6gz681aUNyb7i54NpIqImxQttUSUYihMUWi3+PGvH1XEFO0PROq4wFBMRbY/NMOzTbbmGTTdCO63B9C4NwUd6XAjuHeyT/v5+6evtk472DpmZmJaF2TlZXViR1cVlWV9clRyCM0L0uj4PgjVqnDPcpjtUOCw6LK3d7dLR0yntWnr6e2VweEi6erpkcXFRFhcWZfzamKxOahAf0/LodPDWEI772oLng+DXjsjyuobjt4UTRETNhaGYKsFQnKDQavHnWTuujisIutE6rjAUExHVlgvDfWEYjm7yMSL7fA3C+7qkbbBLBvcOyfDgkLuV0tTYhCxNLcjqtAZVjOTiMGgsj+ewcgvttB0hVK6pX1ptWr/0aNAdaJeWwU59zU7pGuyRwZE9MrJ/RObm5mTy5oRMXxoPDrF+ZMrdxikf5t1rhi+soZnhmIiaDUMxVYKhOEGh1eLPs3ZcHVcQdKN1XGEoJiKqjS1h2GDTjXOEcR/il+2VFg3De0b2yvDQkCxMz8vUlZuyNDYXBNKbWjAKrNtwNwqMw6zt/sKYxrwk2BdyRb+gxmgvgjHOV8a5w10ajDE67fq1ICTre2nf2yN9I4Ny7PbjMjc7JxM3bsr02TGRx2dErms49w/7NgzHRNREGIqpEgzFCQqtFn+etePquIKgG63jCkMxEVF1ZZ75sEg3Lh0dMaFh+GSfln7p3NsrIyMj0rbRImNnr8ryDQ3CNzQET4RBGMF3Yd3dWzg4LFr7UOv23GVSFBeM0QhZE/tBCLqosVOEMIzDqC0AYxq19SEk9+r7xXtGn9YtB7qlbU+3DB3aK/sO7JfpyWm59szF4IJfGD3G8uC9vAvHr2Q4JqLGxlBMlWAoTlBotfjzrB1XxxUE3WgdVxiKiYiqJ3Z0GGH4QJfI/cPSOzokoyMaMm9MyPSFm7JxdUHkigZNhN4V/TK7FpzLi3OD7TxhXPDKFYwQ4wm1rf9v4fZ9wh0gVK7oF2tbSLZgjKtcu6KB2MIxptHu1/dv5xIPdkjroV7pGR2QYydvk/m5Obn01DnJ4erXj00Hh2JHZF/2c2GLiKjxMBRTJRiKExRaLf48a8fVcQVBN1rHFYZiIqLKxYZhhFscovxNe6RbQ+XB0QMyfvGGzJ4bF7moYRjnCSP44nBqXGzLgjBGifFYFDc6rM/lCr6E7Ti2/4MaO0N+7cJwOG0jxdZngdjuW2zhGIdaD3UEh3rrdMuxPuk+OCBH79RwPDsnV05fEDk7J3J6dnPkGPD+MGr8Ko4aE1HjYSimSuDXLhERUcOJvao0RodfMiyd335Ujt1zu3Stt8u5z5+W2U+dD0ZYry0FI8Q4HHlmLbiAFsIxziNGPafTOHTawjGCMkaLV7XkR44jBfNQVrQs6/II2ov6HCi43zFqPCf6Md+eGwXTuG8xXhcFh25jebwfHNY9vSq583Oy+NVr8tznH5OpsUl5/svvkwNvfJ7It44GQRiBHjVowM585QPhBBEREQFHihMUWi3+PGvH1XEFo7/ROq5wpJiIqHyZC78RtkIItHf1i9w9IPsOjUqLhs2xp66InJkLbrmEoIllLOQijCKwom2jwmC1J/vj7w9bt3LnMRt77NSKZP9R/H2FM//P24LRYBsVtsOoreBP2ajtolxYDiPHOKx6oMPNaz3RL72HhuTA4YNy9dxlWXh8LDjf2D+kGu9lZV2yr357ME1EVOc4UkyVYChOUGi1+POsHVfHFQTdaG1tC8IoDMVERKXLPBlzuDTC7ctHpPvIkBw5eFguPXZGlp+ZDEaDlzUMY/TYjeZiVDYcudXmljDsSQrBP3Hyv8n6Y/q8/jnH1tb/HauxT7SkofT2nw6mE2T+o4ZWHOpth09HQzL6cCEuhGQs58471tLbLh13DMn+4wdlQ3+HXHviosiXbgbfl3sP4RtZ2WAwJqKGUE4oRhsh1aat7ddxBZJq8NtRhebRzmEoTlBotfjzrB1XxxULwH5tbYZiIqLyBYHYRkPDnQ5UrxiRA0cPyurMskycviry5HQQWHF7JYwI2xWlEZ5diA0e6is0Gmze0vEfJIdzeRGq09JAnn0gftQ4KvOf3rEZfi0c24gy+hGOMQ8jx3s63TnHLYd7pffosH7/h+TqmYuy+PAN/f5nto4aMxgTUQNgKKZK6G9OIiKi+rY1ECscCn17n3S8/pCcuPN2mTo7JhOfOyfyuAZinCt8dSkIwrOrIuMajue0xmhxJBAjDKcJxA5GhKPnMBezV8NrStk3v1ey/8cvS/YH3hMEeIxy47xjhHqck4xzjnH+MYL+uH7/ug5ylxdk/uFrcumpszJyZFT2vOaEyDfvDb53wN9xNURnHvrVYJqIiKgJMRQTEVFdc4HYv8ryhAbcV++Tvhfsl0MHD8n5Lz8ty5+/qkF4MSgIjAiVCM4IyLgAVpgRwYJw6jAcyuHcZIzYlijz2AfDVnrZf/YrYTgOQ7Ad/o1wjKCPGvMwGj67JitPTsq1Jy5IrkXkwAMnRV4/GgRqD4MxERE1K4ZiIiKqW5knvECMUU+MlH7bqIzcfVi6cx1y4bOnJff1ieA+wxgdttCI84jRxuHSoXKC8BYYqS0jFOMw58wXyntdN3L8T94dHLJth4Lj0HCcG433g9HkKYT/VVk7PyvTT11z9zQ+9tI7peWNB8WOMnf0YZkvMRgTEVHzYSgmIqK6lHnig1sPmcbI6Gv3y+jJw7IyuSDjXzovcnpGQ6GGYIyYIgSjjbAYOVS6ojBs8Lw4p7cc+7vCRnmyP/geyX7vLwXBGCPACMZo448BuNUTQvL4suR0Pcw9fkPGr9+U4/fdIW1vOBScl7z5twEGYyIiajoMxTuEJ9kTEZXPBWL//F2MEH/LqBy886jMX5+W2a9eEbm4IHJjaestl1AjMIYqHh32ZO8MryRdzmixyny58jC6OWqsxR81tsOscX9jnV54bEzGrlyXo/feLh1vOCwy6K3LXE4yX6zOOiEiqifcP29eDMXbLO7DVqyPH1Aiok2Zx71AjHyL0PeGUTly5zGZvnhT5r96TeSahmEUjJJiBBfBGKFQ/zfVCsNb4PkHSrzYlsEVo6sg+0/fI9l/HI4aWzBGUMZ6wijypK6LmVVZePymjF26JofvPi6drz4UBGMNxCbz2feFLSKi+lVsnzptHzU2huJdhB9KIqLCXCD270OM0d9vGZXDJ4/J+HPXZPErGohxqPR1DcS4GjTCMEIxwmCY96o5OnwLnKOMWyOVqZoXu3KHU+OQ8VsOp9a+NW3renLB+OJ1OXDnEWl/YL/uFXi/c9paJPMP7w0niIjqF/exqRiGYiIiqh8YIbbBTFws61sPyIGTR2Tq4k1ZemTMjYK2PjAi8k17RO4ZFLl7QORA15ZAXFMInGUePu2UcIumNLLf9+7NYNyl7+tFQyIv2yvy4j3S/T23uZHhhdM3ZeLaTTlw1zFpeY0GY4RnW8f6vWQ+xWBMRESNjaGYiIjqQubsr+vXMK0hEL92v+y/67As3JyVhUevB31jS7Lx6JQc+JY7g8OY92kgPtLjHlLzQAwYgW2v7Fdr5jPVPWw5f57xyf5gnWjQ7To0IEt/+FywzqZWZf6JGzI9oevt7mMir9NgjBANWN2VhHwiIqI6wN90Oyx66AYP5SAiupW7l6+NXqLxzXtl5PmHZX1+RWZPhecQ46JaCHMzq3L9z56QA6/TYIzzZEc0GL9iJHxsjeFw7bYKt+OjlV2JOhaC7oFukf4O6To6KMt/dCa4EBlGkXGY+eKGzD81JvPz87LvniNu/bpzkEOZz/HCW0TUOLj/TVEMxUREtKtlTj249V7ErS3Se9eI9LR3ycSjl0UuzIe3XNJAjFsu4b68Gk7zwRijoyOdwfnItXZlSVpwXi5uc1SuSkN1RGbyt4NbPvW3B4H4jzUQX9JAjACPi27hcOmFNcktr8vcmZuysr4q/feMBoef4yrW7o8ROcn8/a+45yMiImo0DMVERLS7RW+99PIROXT4kFx+VMPdc3NBsMPhwSi42vINDcgz2uePGGsgxPm6mSc+FD5RbWRf9TYMOYgm9rCnPJnPVecQ6syUBuKRTndxsnwgvriogXgtWJc43BvrCiPsEyuSm1uVxeuz0tnXLZ33jYRXxA6H6HF+8d8xGBMRUeNhKCYiol0r8+iDQQO5DOe/vmpEjt5xXC49cU5yp6Y3bzWE0U67oBRGi0/PBiOhCMYf90aMEYyf/FBtbzeEw5F7Kvz1OtodNsqXmfmd4MJdvRqIjyEQnw0CMUIw1tltvcF6xTrDFbpdQF6T1WtzsjK3JCPHD4i8dE8wH8uh8PxiIiJqQPzttgvZeQ08v4GImpkLxP4o8Uv2yOjzj8ns2JQsnx4PRoURlBHaEI5R49ZDyl1UC+HYRowRjF+LEeO2ICiOdknmCzU6TxahuNLwWOHmPzOrgRijvBghtkCMQ6ZndX1oAM7+mH7v+EMC1hduI4W2K7oedV3OPT0mC/MLsuekBuMXD4ssaD/oopm/5WgxEdUf7l9TIQzFRES0O/nnEc+vScttfTLQ1y/TT90IDpFGsUCMgIyiy9pVprPf8y438unK7NpmMMZ9jhEY92kwruJ9gU1uXd9Hx879es3Mfyz4/nT9BYdMxwRi5dYPQjBGiFFwOPWqrkCMImtQnj0/LuutOel83h6Rg93BzwFwGPX/+OVwgoiIqP4xFFdJLf/qxL9oEVGzyTzyYBjC9AsunPXAiBw9cUwuPn5G5Nm5YAQYgRihDjUCsf4fve1S9k3vdEHQLY9g/AkE4zuCEejhjuBw6q98IFy6ShAsK7wtE5Rzf+DMogbiIf2+NBB35wMxDpkO/jCQ/dHI+vluDcY2wu6CsS6H9z+9IhszK5JbXJPhgyMi9w66i3E5+Ll0c/eBiOoD99EpDf5Wq7JqfTj4ISOipuaPEo90yd67D8nSzIKsPDcVHO6LoIsgjEN+UYeHTcfJfscvBmEvGowxYjzcKbKnQzJfq2IwxvurxhWkcQ50Su486aXfFRkMA/GRIVn6Ew3ElzUQ2whxJBCb7He+M1iHeN8IyDg3G+tT69nnbsrKyor0ndBgjKtR57Ceg3Wd+RuOFhNRfeF+OiVhKN4BpXyQ+KEjomaTefjXLHcF5wy/bI/sHdkrN5+5InJ9SeTm8mYgdiOcWvT/6CixL/tGDcY4LxbBWAPi9U88KQdeg2Cs4RvBWEvm6/q61YDguI2hOHPm10VO9oWBuD0MxGe2BuJ/UeTCYvnRYi0WijEyvJGT+Rsz0tnfJa13DwXLgc7mRbeIqF5w35uK4W+0HcQPHRFRDLu4FoLXXQNy+O7jcu3sZck9Pbt5QS0UN0IchLlCgdhkv+0XwmCsYQ/B+M81GL8ah1JrMMYhx8MdkvlGFYLxek5aqhGKcb/jIjIXf0PkaK8GaH3/PRghHpSlP9VAfMULxD9S/Erb+cOoMVpsgRj1zKqs3pjXjN8m/QeHRe7VYIxzj0M8t5iIGgX3y5sbQ/E2SPMhwzLR5fjhJKJm40IpwjBMrEjLXf3S39sn8xcmg/OHcUVphGEb2bSRy5Syb0Aw1sAXBsbr/z0MxhgxtmD8cHgbqHJpmB1+wSGRQz0iB7pF9neJdOnz4+JXeA0EWBy63aW/givYzGeufDS4ABZGlC0QY4T4ylI++Gd/OP2tp9xh5uEfGTb/8KBtDcpTF8ekpbNVWm8fEGnXN42fEQpHi4moTsTtZ6fZ1+b+eHPgb7MaK/XDxg8eETU1dy6xpi0ErucNyJHnn5ArZy5J7txcMMqLwGbnEKPW/9OMEvuy3xqOGPvB+FXhxbdwCDKCsd0fuUSZa7/pnnPyr54VWdRgavdOxoWp8J4xEourU6PWSjf6m+GyhM2/e51RDdtbAvHZMBDr9zWvgfjNZdyL2f2xQQvCMEbl8T51Pa1NLUlXZ5f0HRgKLrqFP1BALieZv35P0CYiqhOl7ntz/7zxMRRvk1I+TNFl+UEkomaQ+Vo4SowysSwtd/ZLb0+vzF+c1HCpQQ1hzwIbwpqG4lIDscm+/h1bD6X+CwTjk8EILoLxkAbjU+mCcebGb0rm5m9JZuK3g/CLEWCMDHdqQRuBF7doyteYF067ZbUgMKPgPOkiMmO/FYw+Y8S5WwPxIRwyrYH4qnfI9A+VfuVqcBfdsvCOGiHZBfmcTJ4fk1Z9PTdaDO6iW2oHbz9FRFRMJfvV3AdvHvxNto38D1axDxk/hETUdOyK07CvKxglPntRcmfnglFXhDQXiDWoIRwXz48FZb8FwRiHUlswPi0HXqnBGO8DgRPB+LEPhkvfCuHUBWEE4FvCr27DO7VgektfWFu/XywgYwQcgT1GZlwD8UinSL+Gdw3gXYcGZOnPwkAcXkQsTbAuCK8f/tHBjXSjretodWpRerp7pGe/huLnWTAOKiKielDK/jf3xZuL/valShT6wKT5MJXy4SQiangIWQhjLxyS7u5umb86HYxWYkTXhWJth+G43FFi35ZgPO8FY5xjbMH48Q9K5h82R14zY78ZhmH9Fbol5IY17lG8pWi/K9YOayxv8/ygjOdEweHLnsykvuZeLxAfHJDlj58TuRaeQ4wLYC2VP3pugtFiLxjbaPFGTqaujkt7r76HY71bL7j1SR5CTUS7VzX2twstw/31+qe/dWk78UNDRHSrzFc/sDnquLwhvUeGZX56VnLXF4NghlBmQQ2hGKVKsq8LD6XGoccIxv+fBuNX2IixBlBcHGu0SzLnPyKZKQ2mdvizH2b9sGv91t4SjL2CK1THztO+8HlxbrM7PBuviwt1uQt0tUUCcfC+EaKr8YcCxztE3Y08ayDGOlq6MSftHe3SMdoncqQn+JmhYH0QETUI7q83H/4WIyKinZe/wJaW+4bkwLFDMnF5TGR8JRgFtTCMcKbtqoW/UPa1bw9GPnH4sR+Me/R9YWR2SAPpaHcQWC28WhiOC7foS130sa6E0+45vOfDiPVIVzB67c4hjgRivGcNrNVcJ+5K1Fjnmoe3jBrj56M/h57hMBRjlB1wwa2/fHfQJiIiqjP6W5fiVPoXojSHWPjLoG3FxC1HRNRoMl/UMKdZyxXchulAj3R1dsrK9bkgBHuH7+bDWS2EI8XuUGoNe1uCMQ5bHtRwjOy+JfiG4TUfcCMlv6wXercUfb5oH+5PjOKm9XE4rxeBuEsD8cHwHOIaBuK8/Ai9Fhst1p/F9KVx9weBFtwfGe/RLrhFRLQLxe1Po23FxC0XVWheGpU+nmqHoXgXiH5AMG19/PAQUcNDsDKdrbL32H65dvGq5K5q8MPorQtmYUBz4Thctsqy3/2uIBTbOcYaNvPBeF9XENqLheB8mPWmXcFj/Wkt+Wmd54rX74fl67oe9LVdIP64BmJMu3Ogdd1oqUkgVtk3/mIQhBGKEZCx3hfXZW1xRfr6+qRzsFsEwRjrBQUj50REu5C/Xx3dt+a+NgF/g5WhGh8efgCJiEK4P7AFq3uHZGjvHlmYmBV3L1wEVBshRijTgFarEAjuIlNh2JS5VRcGr39Jg+hwR/BeXFjVX50WWFG2hFlv2u/b0q/P4S9zS/Hnh+1n5mTl/LTIpL6n8KJgKLVcFw4CsY0W4w8TWqGszi9LZ39P8McCnI9NRNQAuI/fvBiKq6icD0Ghx9g8friIqKGFQcsFvZFOaW9vl9XJxSAEIxCjYD7qWh067XHn0+LK0gh8B7rdlZ7lzNytQdXaLvR6fbcEYZtny/p9VjAdFmzzUfLLaD25IhtfmQgO5cZ9lHvbJPtjNQ7EgCCcHy3GzyH4GcyNTQWHUGP9oE//R8n8Bc8rJqLdJc3+dDn72tw/byz4VUu7AD5YfjH8wBFRI8t86Vf1a5ioljake3RAZianJTe+HJxLjAzsRom11PDQ6VvgIlK4wBZCIUaNEU7zITep6ONuWUb7/Gls01FcG/O0oLZ+N8/6w7bVWAfadFfEHu2WzGfepxO1lT+E2gXj8OexvCFLM4vS09sjbXu6RPZrAYRjXDWbiGiXie5b+4UI8GuWqizuAxb3wbPppOWJiBqeN8oo+zrl8ImjMjM2KTK9euuh09qu+eHCKnP5o8EthrAd9oNtftr6rD+s822/hP35dmS+e07UftEvt7T9Pi04rxmj2dvBDp/2/zihOts7pKOvOwjFvNgWEdWBQvvc0XmYLrQ8NZZt+o3a3PwPTykfJFuWHz4ialj++cQn+6W1tVVW5nBhKe1wF3fSGvPcSCUa28AdCh0WbH+jYRabZPS7gr6wzi8bLeEyVucfi6J9+GJtNw35xmYTy5hw2cwXtuMQal3vFobxM3F/yMjJ/MyctHXpzw+3q8JoOn48KEREu0g5+9P+stwPbw74FU3bjB8uIqIIBK2BdheK1+dXNgOWX7YhFGcu/UYYYLVgW50PwuG0K2FfPuSGtb/slsejHfajdsuEBazebGzOd136xW+7aavRV1vZN/yCrn9d9xaM8WNYzcni5Jy04H7KuAgZRq5DmU/8UtgiIqo/3E9vTvjVTDVU7INl81FHi/UTETWscNRRplalpb9DVpaXJYd771r4ciPFWlCj1Bq2uX6gdZtgTIdtV8LGlj4r+sUe52ptuLbX7x4fsqbXlW/bt+vPg8hjMp+t/bnFweHrKOGbWt2QpdlF6ezukpYBDcXotkJEtMv4+9XRYv2FFJtP9Y+huArK+aCkeUyaD+pb3/rWsEVEVF8yn3v/liA1fGCvTE9MiUyvuItuBWE4nK/tWl9tOXPuI15wdV3YAG+2jT8fbJl8rSVxpBiNsH2LcEV462RLG/Awf9p1bAP7o4T9PMLzivsH+qWtR0PxIbsKtRZebIuItlmh/eE0+9MmzTJR5TyGdh+G4gIq/Uee9vGFluMHjYgaVxCsnMEO2bN/ryzPLwVXncY9ijHbBS2tt+NWuC4Q6zbXNrv+5jduU2zLunle2/rzgVhLPhiHBdBvq8B9r17JzwCvjfWBaX+2Pk3mU+8NJ2oEIdiCcRiIHW2684r7tBAR7VLV2NeudJ+c+/S7G0PxDor7cKAv2o/pr3/96+EUEVGDONkflNv73BWMsa1bX1kL5iF3WfZCELTDdmsk88yHsbHVgimvNsVe3ha153AlbLuw7U0bF3BRh21Xh21vhHxLP2rH2vmO2sLL+O8ptLq8Iq3tbcHVuhGWb9Of5aEeyfyPXw6XICLaOdh/jtuvjvZBXB81D4biMlXrg2PPE/2Axk0TETWUcET4+He8UGSoAxu6raHYF53eFvqica9rfVtCqrLNNGpss/O1FZsZwmNd0S9xIRh/CLC2/1rWZx3WX0PZ178jaOC18F5B3xNCcUub7kr0ajBeXBeZXBHBOeFoExHtsGL71jbt91eiWs9D24+huMqSPgz2wbOSVinLEhHVra5Wt73LrViY0vTlB0S0a2nLptZ7Xb+d70NtDeX69YvX5eA5UfIjxVoAy9mhyK6gz2u7MIyCts0L225aC6C29nbA+8IL2veuP6qVhWUNxfqNIRQTEe1Spe57+yVOKc9H9YGhuEb8D0vcB6fQfEwXezwRUUPpbnPbuhxGjy3o+YHPb9cSXsd/fVf0i19caNV+C6iuP2z7sOkOzylu0Tr4T9lz4PE45Ng/X9f6o9P+6/uvly85yfxNjQ9Zxnux1wOdXppfDA6f1p+fIBzn2UJERDsruk8d3a+Ozo8qNp8aQ0tOhW2KUWj1+PPi2qijbb9sbGzc0kYdLevr665+8Ytf7J4r6sEHHwxbRET1I3P2IyJ9GqaenRN53ajc9aoXyrOfPiW5i/Mi15dEFtaDw3BRT69K9s3pLyaV+eL7RXrbg6CGgisi5y96pQto5dpunnZMrbjRatdGwX13cQ9e1PYcVvA8KBgczbetX/v8ZfR/aEGwDQ8Xzy3p97Oq7VX9/YAa919e0xrhGG0LytE+f54FZpt2z6Hl3sHg+3YBFvP0daPL4X1oyb64tLsXZL6g63RPp7somrs3cW+bu43W4NERmT51VeTPL4scxFWodeHxZcl+37uDBxIR1VjS1acffvhhd//7trY2V0cLQq7V0bZfINo2Se2oQvNo5zEUF1Fo9UTn2XRcnVQQdqN1XEEwZigmokaSD8VPzIh8+0G54+UvkOc+85jIxQWRG2EoRoBE/U179DeWPgg7Fa4OC764Omjm2c5HsXkDGiCf1NfHSCcuFuVCsc5ICsQWeK1GCPamMSLsL5fDfG0iFLcs6XZ+YS0IxQim0UDsB9ct7XA563OBWJ/X2rYcnueV+4LACtoVFHyxNkqKadT2OphG/ZSuJwvFOAc8DMVDx/bJ1KkrIp9gKCainVEoFCcFYhQE1WidVCCpNtFpX6F5tPPw65oKqPU/4LgPFdp+sT4iosaC9BTAJi63ockr36UdttlDPajhFQG2X8Mrbv+D0dAeFJ1GoI0WjPqiIOhGC0KvC75aBjTc4TX94gdBvy9ftMMPpzbtlRYUndeaC7bjAz39ktMQ7AIxCm455UIxij7GQq/V0dfQamvRLxZe89NaI5S6daPrAOf5omB9WenXgu/ZFW1jvSLgWkGgRvBFGelyVwWXUX3OA1qD/zMJa+xIuj8M4PWN3yYi2iH+frRfjD+/lmr9/FQ5/U1G5Ur6B17oHz7mRefbdNw8SOo3hW5YTkRUF3Qbh6NiXLhz00GFfgehK18wHVOwaFJJcn4+DJ5esUBs0/lwau1wHtooFmpd0ZkIuysailc2pHU1JwOdfe6lBkaHRWZWg0PCw0OYY4OxFf81/D5X8B7C94Gi/6M+du/J4MJX7g8GWhCQreTDMYKyln4NwH7Jh2UtGA32y5CGZFuZkfXpRsfRZz87IqJtVGg/OM2+dXR+0mNM0rxCj6Hdj4dPp1BoFfnz4tqorUSnsQMYbfu1X3D49Ite9CL3HHF4CDUR1ZvM2V8PQtrjM9LypkNy7P475MLnnxK5sigythyERysu9UV2OOL2P/w+fwfFmv78H749qD95VaRbU7UbRQ5LoUOn88Fca/0/qMM+rd3L2mtrUM0tr8vgXaNucuYzF1zt6LZ+S7C1dqFA7GrvMf58DdWD//o+mfn4s8H7Nzprs9YvNg1p5hmEd4weY4R5WEOyrrMWDcz7bj8kY49cFPkj/d4O9wSP059f9vt5+DQR1V6hUPzoo4/GHj6NAButo20UiJs2Se2oQvNod8CvcNoGcR+GuA9S0ocG/TgvgoioIWnAa2nRX0kuWMaU8RV3nqpMaI174VrBBbKmVt2FuPIFo7Eza2GtZdaK9qF839HNQAwuYKIOi4XMfH84HS02suuPEOMQaXcxrTXJzWuZC1535rMXZOZvz4ngllNxo8TuOf12pNh70EWC92VtLdq0/pkH9fcEvmesE3895YvXb+syrvYL1jsKfj/hZ2F/DHC/r1okZ+8H74OIaJfAfnOh/Wq/hrhlkx5PjYehuIqKffDixH0YUUeL9RMRNRz9TYTzbdvb26Slo21zRBabPKs7WyX7w+8LwuRyWJa0LKL2RpRxUS5XNPxqKM2XOe2b0/on7wrOnfW9Zv/W8GlFHxL0W21FX9OF17B2wVYLriZtgRfvDecN4z3h/eFxGBlGbcvjsXiMte05t7yWFvdeUOv7yL8/v+314bXw/bo/BqDWgj8I2B8I7I8IfjhGQei9qfUNrXGRs2taMGKPi55dXJTsd75z688FJZxeXdXHIeDrWyAi2i38/edosX7jt6OS5hV6DNUfHj6dQrFV5M+3dlxtBewwaSv+tH/YdLQkHULNw6eJqN7kD59+Zk7kgb1y8nUvlHNfe1o2zuu03ZLJAq8Guuz/Vtl9eDMH/0vYisDzf+rG5oW4cOgxrj5th0y78KfLocZOENp+OPR3jLCJ1+24C6gIshaWbVQY/QiwYMu6WosfblH7odj6om1bxr2WFozs4u3oMtkff782qifztQ+I7O3cPOe4r026Rvqks69bZr9xVeQvr4gc7Q2+Fx4+TUTbJOnwaRw6bYdLxxWEWhS/bdPg99l0XA1+O06x+bTzgp86bRv/g1Tow2Tz/UJE1IiO/8wrXWjc0IDYivN5sblDwW8oa1ewDcwsfCw5EAOC8C0hU1NltO1GcsNiI7soCLyJBctojcdoFRtm7fmifShxy1q/ez6/5CT7Y++X7I9qqXIgdvCHACv4cWjd2d0lG1g/9r0SEe0ixfan/Wl/fnQ5anwMxSmU88GI+1DFPQ/6osvGLQdJ/cArUBNRXVvJSU7DVUt7m27sdBrbOysuiAWLlSqz9LsiJ/vDqQQYAUbIvCWYatDbEo7DPheGrfaKjQjnayyjxR5rAVe7Np/PCpaN9oUFy7sQ7LXz88Ki7ewPvAffTe1sGSlHsVC8Hhwyrm+DiGg7FbvydJy4/e64Zf2+6GNKUc5jaPsxFFdZuf/w4z5saEcLEVHDwLmt4yty/dlL7hBmXGW/rbsdG7+thy0jFONw5hJlrn5U5ERwO6SiLGRaiPUDqh98txRd1sKvBWD0u2lvOTyHBdloXU5xQVjfs/8caNdQ5h/eu/WK3PgZ6XTvYJ+sL+OcbS34EdnFznBeMxHRDiq0H21tv68U5T6Odi+G4m0S/fBgOq7P6ug8g/MjiIgawiNT7iJPy39xQeTcvKyvrklbV0cYhK3othA1glipXrInbKTwrQc2Q6YFWQu1Nl1olNiKC8doh7X/fFvCrNUJxR4TLdHHuOcM27WE9e/Os9Y2wrH7ubRId2+PbOCK2riIV5fOxHng15Yk+0MaoomIdkjS/rK/jx3d147b/45OU+PCrgZtM/8DFv0Axs2LliQ8hJqI6srt3iju8roszsxLG64+je0czvMNg5crJYbigucQx+lvD4KlH2StuOloEMa036ftWwKx1TElH271tW/pSyj6dPnaD8MobzggbznwXyQz9lv4bqpvy4XHtK0VfkzdPd2Sw0jxvH4j7qJhWgZ1XRIR1VixQ6fjiom2k+ZR82AoroKkD4/1p/mgRfuTliMiaiiaoVzRYDc3PiNd3d3BFanzoVjnlRiKMyP/KWyVAM9vYRMhc0votTratulon1cstLqiz4/aD7P5ts67ZXkr+vzW9h9rxb3Whtx9z/Pl0PfeK285+HuSmf4dfFfV0xH+DOxngVp/T81OzwQjxbilk8EfB4iIdqG0+9t+v7XTLEv1i6E4pVL+wZf7obH5fh1XeAg1ETWC7OveEbYCa7PLGoq7pMWF4vB+xV7J/Nm7wiWTZeTfa4Ar81fbdx8KgrEfNvOHTAfBc7P2+/0S9udHibX2A2xsIEYJl7Pnsf7odFJZzcnpP/iiXP37p+XEidvkyP+i4fjof5XMWjb43irVrT8Pu1UVVi/a+v/szKzkFnEvZC36NlzRb4WIaKdgPzlu/xkFonWSpPnFHucrZVnaWQzFOwgflOiHxab9flvOSiE8hJqI6hLOR51alZwGvM7hniB0IQz7ISxN2D3YHTbK0KPvIToSa6E0f/GsMOy6gna02Dwt9vj88+n8fLtQCZezx+pk7AgxCpa5bygYyYWJZTn78W/I5b9+Qo7sPyQn3nif/OuTfyiZvv83mF+GzKffFzw/fhaoMUrc2Sp7D++Xhek5fc3VYP3oW8kXIqIaKra/m7TvbG2/D6LLUfNhKK6SpA9S3Icv+sGLm7ba7zdxfUREde/6kqwur0hHX1fw28kO1UVB24Jfgsy+Mg6bjvoujBZrqkMQtdCZD7ta+8HYv8L0luIt754jrKMFy8T1oyQ9xi/2evt1fUXNrMqlTz4m5/7o6zKw1iV3v/JF8m/v+TN3aHlmosTzjrsQhrXkR4qDes++vbI6uyRydTH4GYVpOPtmXmSLiHZO0r6z9fvz/X6Im/brqKR+qj8MxSWo9T98PH/0w2d90cJDqImoIeRHGPXLlUWZn5iR1s72IIRh5NYCsY0aJ8gsfKzg/NTsglsuGGvxQ+iWQIxai40g5+dpseUttFrbr/1lotPRPuvPT+N1wr5XjISBNIG+n8mHLshT//kLsvrctNx21+1y4E3Pl3912++nHz32Q7EbKdbfTejq6JCNhTV3BXF3Dri+HfdzJCLaIaUcOm3tWqn181N16W8xqoWkD0KaD4gt4y+LdrQk4SHURFQ3XIYKg5QGvvlr09LX1yctw52boTh/KHWLZP7i3cGyUSf7w0YV/NNjIvu6RA73BO/BwihCMoKoC8Rh25UwDEf78BibtrZfu+I/LnxMfhl7Dq9fmzKi7+1Qt8g9AyLDHcF7TmH9/Kyc//jDcv2vnpLB9W65/aV3y8/c9+eSOfp7hQMy1oELxVrCUWL9JSQ3r4/JxvyqyPmFMBBrWcYbJCKqnVKvOm2s7fclSVomzWOpPjEUl6icD0OhD1a0GGtH+4mIGkn29d7FtjAiObEiOQ2D3SMachGEURDILBxjRDLCXVyrmvBaCJ24ZdTL9oi8dO9mKHUhFUXDXz7MhsVGi/3QnA+9WrvHerW/TPR589NhG+X+YZFv0veDPwDg3Gm8XjmW1mXqK5fk7B9+Tea/clUz9pDc9pK75Kfu+VN5y/Hfl0zXfwgX1HX7pV8NR4rDdY91090q+44ekLmJGZGby8F7LPOtEBHVmr8v7e9TW79f4iT1F1LOY2hn3bp3QWUr9gHw5xf64Pklrs8KD6EmooZggQr1M3OyPL8UnFeMAIZAhpFJtFHiziuu5OJacZ6YFhnqCG4NpfXRb7tH5JUjQTD1D6t2AdbCrd/W4g6rRrF5Yf+Wov1++PX77TEWiF+yR7q+65jIbb0iI53B+9uTfpQ40eSKjH/urJz/42/I8tfHXEC+81X3SubyR4P5vW3BlcDxM7DbZLW1yv4D+2V5ciEYJe4JdyX0bWZ/5H1Bm4hom6U5dDraF+X3Jy1jis2n+hL+JqNaSPOBM0l91m/taEnCQ6iJqG4g/On/zsyqTF0Yk+7eHmnZq+EP5/jauawIxRrOMn+5eQh1Zvl3w1bl2no0ZD6mgRiHbvfitlCtMnh8n1z6918V+dL4recY50sYblHyobZQ2+uz4OxGl/1ltdhzw/yaLH/hmnTdvTc4nBmBfUDf75h3f+BKTa3Izc88J89+7PMif3Mt6HOHTnvrX2v86pkYm5CN2RUNxfPBzw7nEvN8YiKqsVIPnUbx50Wl7YOkfmoMDMXbpNAHzOZZO67Pb/vlkUcecfOIiOpV9BDqHK5mrGGw78BQEIhdGNNfVy4Ua8E9c83R3rBRmWN33CbrD42J7NFAjMCp72Pwtn0y8wenRW4siUyuisytBef0+sUPw9ZOKm4ZfZALvVYntPOP09fAaDkC+QKC8dVIMNZyo4rBGK4vuxHfzNd/LVjXWPf5Q6fbZP/xQzJ59WZw1emZ8P7EsIIVQkS0/bA/HLefDHHtuL44Sf3UeBiKy1DoA1Lsw2PzUZezrLX9QkTUMBCwTs/I0uyitHZr4MPhugiAOHw3fwVkb7S4wtHJFn3eo0ePyMU/eVgEI9N9+lp+INaAiNFrV6a0IPj5QRc50BW/z2tbQdh1tV+0z9r+aDMKnlMrB9t5jCQjlC+sbw3GGElHML6uwb0a5vU1zs4HbTw3AjkCMe4jjT0G/XnsH90nq1MaiM8tBPNA32v2R98ftImItlnS/nG0XUipyyYp9ljancLfZlQraT8YWC5arN/qaNvvi8NDqImobiD0WQhcXJeZC+PS3dMj7Yf6gxFRHL7rRiu1oG2jxVc0nJWpa7BHenOdcunPTwVXm8br6PMOHh/ZGohnNSjqe3JXVsb7dKFVSzTEos/1e21bDvPzy1qJPAbz9P9bIKji9TUQu/cyHwbj5yMY63t2wbhD5FoVgjFGid/8Xsl89QObo8QIxuEocUdXh1w5f1k2ZlZEzszpA8L3HPe+iYiqqJRDp/0+a1sdLWmkXY7qF0PxNrIPlP/BKvSBjC4ftyymecEtIqp32W/9hbClMCp5dl5W5pakb3QwCGQIxCgYKQ4v+pT55Hsk2/mWIKiW6MiJo7J2blbmv3hZZH93ECwRiN0I8VMaMDUQT4eBWMNo9sfeL9kf1/K//pJk3/TOcHQ3puQDb1gsIOfnhdN+0f/zI95hlfemQ0HBlafdSLGWWX1fCMafD4MxLoaF0eJKgzGC97mEUeLwZ3DszhMyc3lc5OlZkSX9Zuy989BpItohdoEtn7/PHK2j/GWh2PLUmPS3HZWj0Acl7Ycobjn0WYlOFypJOFpMRHXDwi2C1pk5mbk0Lu2dHdKK+/IOauBDILZRS4xgdoe/ws5okEveDN7iyNEjcvnvTsv66SmRA14gPqGB+PcxQqzB0o0Qa9GgiDAclf2ed7lySyjOF10INUKv1VZsvj+Nb10r4wI4Xtf/Lf0SDcZhSHfvDxffcsF4JDiUGsEY38vVMoPx5UXJ/vNfCc4lDs+rdqE4DMT4XbM4uyDrU8vBOsfPI3zPceuIiKhayrnAVrREl42K64tTaLm0z0G7j//rlmokzQcEy0SX86ej7WghIqp32Tf8QjDqiKSlgWvj7JysL63K0NF9QTDDCDGCGg6fdgG5TTJ//R7JDv1EEBaLaNUgPdw3KJf/4rHgVkKHe4IgqeF6yAIxRloxQozQubRRNOxlv/eXXNlyzrALvV7JB2FvOiYMWxD2XzN76Ke2htyX7gnObXbBWL/nuTAY36PB2I0YdwTfkwbckuB7fmo2aA9inehzIRCjxrrX9X745DEZO381GE32R6TLvV8yEVEVFNovTmpDdNkkaZah+teSU2GbSlRo1UXn+dPWRh1tJ5WNjY18HW1bue+++9xzxXnwwQfDFhHR7pX59HvDltKw1fF9t0nf4SGZOX9TNiaWRSZWgsN8cZ4tDtnFSO7r3iGZZz8s8ur94QNv1dbTLh1zmnM/fVmyL/hZySz+bhD+etpk6PZRmf6vTwZBz84h1ueuZPQz8/sI+NpwRb+gRhD2ay2lvEbmEd2Oj3aFU+rJmeDWUQjBfe3S9epDsvzE+OZI8pSuq2Mpr8798JRkv+udknlUXwPnV2PEGQUj0FpaNBwfP3lCLnzpKcn9lQbjywv6oGBHMfsveG9iIqqdQqPEp06dktbW1i0FITbatgCcVCDaNn4botO+QvNod+NIcY2k/VBEP3TRYqwdne+XQngYNRHVBYw6hoERmWv1mUnJrW7I8G2j4YilhjQ3WqzFzi3+21+R7J0/E9wiKGZT2DvcLy03VmTpE+eCQLzwsSBI+oEYo7HuHGItFQZiyP6zXxF5/oAb2e3+dy+Ue/7gB2T0Q68NDtfer6FTv4dSXyN7/1uDkeNHp4OOewaDPw4gAGPE+HNXpesFNmKs3x8OOb+A8FrEtSUXiB2MNGN0GOsYdTgif+SO43L56fOSwygxntP9jPQLRruJiGqk2P5r3P6wFZtvovOj89JIuxzVH4biCpTywSi2bNJ89Ns8a8dNo+CvZURE9Sz7bd4FtxCCT03L7KUJ99uq/UBfMLqLMIzgh8CGcKzh1h1G3fIvg5DoGdq3R5aeHpe1T16S7KveJpk5DcQIi1sCsYbp6ZUwEOcqDsR5CMAn+2RpfF6efPgxufEJfa1jPa4/+396I+Ilyn7HL7pw7AIygryNDM9qMP7slTAY63oa0u8T36vdYikORt0fnXLNzFMfzt+SKn9xLa1bdX2vLizL2g0Nw6d02eBXkFO1dUVEVCLs90b3hSFpOk5Svyk231fKsrT7MBTXULEPYLQ2mPaL3+e340qhK1FztJiI6oJ/wS0NZBunp2VldkkGD+7R31q6HUQgtvNdEYrRRgiEL40HI5jq+B0nZPobl2Xjzy8Hh1jP/E4QFBGIT4aBGLd0wjm6OGR6tYqBGPBt6HbZhXdwQV7faxUHV7P/5N3BudgIxgj1GDH+jAbje8OLb+H7He4UeWYuGOHFBbIenxH5yoTI/7wu2ZM/Ldk3vy84bNqdX62PcaPEWhCKdd2eeN5JGXvuqsjpWV1f4bnE+B7CHxMRUS0U2m+1K04nFYhr+33GX8avo5L6qTHwnOIqKLQKo/NsulCdVOxcYr/tn1NspdC5xcDzi4lot8t8yhtJXdLA9+0HZe+9h2V5dlHmz2mgm1wJzinGxaZWdD7uITy/5m7tlJn/mBx83V1y7e+fFvnra5L9wfdIZuq3RUY0HPa0y9Ad+zUQnw4uRhWOsNbivNjMuY+IHOoODknGa39tMgjg+prZl/98uFT1ZP7nLwd/HEC47W+Xrtfq+nrsZhCYdX1l7/3ZcMmt3D2JcUg3RpXtYl24mJk+R+9QvzbbZfqUhuI/uRg8Vwi3qSIiqoViAzlx5xLbucNWR9txBYrVJjrtKzSP6kNrWFONJH1Ioh+46HKYtmL8aX9+tPC+xURU77Kvf0fQwN8LMXL5xLTM35yRtr5OaR3QgInRT4wS94ejr3YYNc4v7vtXcu1jX5Ps4E8EgXhCA/FeLxD/ngbiSwv5q0zX7EJRdkGtLdB3S2dVZN/4i+E5xlpwKDVGjF+4LxgxHu6QzGMfDJeM2KPrBrdgwugwlg3PI8ao/KEjh2XmnAbrb2ign9dAjLduhYhoB5Q6SgzR+camo3VUUj81Dv0NSJWq9gcl+nyYtuJP+20U/y9ljzzyiJsfh4dRE1FdcIdRh+nr4qIsPz4uG4trMnLnoSC42WHUViPIoa2y3/xzrs7c/K38CPHgyUggntVA/KM1HO1EKPZtQ6DMfrsG4wWE4mAEfPnTGozv02CMEWQE41NbjxTKPP3hYGQZYdgdOq3FheJWOXrHcTn/6LOSOzO7eXGvEM8lJqJaKbSfiv1bf3/X3w+GuLZNm+h0par9fLQzGIq3mf/BsXZcH6Dtl7g+v/jzsaEgIqpnLuAZjBY/PCXz58dldXnFjfi6oBeOEAfnF+t2UJfLfD4IbJkbvxkcFqxBeVCXn8E5xPlAvFbbQAwu02sCzo8Mh3UNQzG49YZRXXdo+OpmMMZo8HBncP6wyjzxofxFx9z6w/pEINbleob6ZOb6pKxdnRf58oRbnohop/lBGKwdV+Lmm7h20nxqDkxO2yDtB6vYhxF9Vmza6rjCi24RUd2zWzSBBrYcgvHYtOQ0DLfv7Q4Oo8YoMQ6jtgtv7dXgd00D8ajO9wPxxc2Lam3L+bC4XZEfgNF2xe+sDVyhGhfdwveKcJwPxrj38B5dP7jnsY22IxSjxoW10G5tkdH9ozJ7blwDsZabK+GzBjhKTES1Uu7FtcCv/X6f3xc3P07a5ai+MRTvgLgPZNKHFO1oSeqPK4UwGBPRbufCnd0LF9XVRVl9bEJWpxdl6Og+aQ0PC3Zh2K6e/Lx+kQNd7vZCOGR6BhfVwpWXcdslDYrbFuqioRgwHe2rEXfv4fBCYi4Y/4MfjHWd4aJZWHcIwlh/GI1vb5XnveBuufDws5J7ZlbkSS0eBmIiqpVi+6Vx+7lxJWlZE9dOmk/Ng6G4Sqr1AfI/nEnPafPSFF50i4jqnTsc2IIkznl9eEoWT4/L0vS8HLjnmAtyLhAj2CHwIShrPWCB+Hx4yPTc+vaGOgvF9t5dHfZtk+x3vyu8oFgkGOMK0wjGqLFO3aHnbXL49qNy9uGnJXd2zt2yiYhoNyh2ca1oiePPS1qmVNV6Htp5DMXbJPqhifsQJX2w0B9XCs2zgnMveBg1EdW9/L2LNVFiRPOL4zJ/ZkLmpmfl8P23B8EOhwAjFLe3aCDeJ7P5EWINhfPbHIgBt4yKHiqNyW04fNqX/Z53SfZ1b3fnFwfB+PJmMMYoMQ6jxoXI9g/L1KWbsnpxVuQzY+GjN3GUmIhqpdhh09GLasUViOtHiRPXH+1Leiw1HobiKir3g5P0AURd6Dn9+db2S/RiBEkYjIlot3OHAlswBgS5z9+U+QuTMjszK/vvORpcSGotFwbip4JAjHOIcZjwCwfDB24jvF8XgoPJfO19G9slc/pDQQOHU09rMP6UBuMXaTDGXgAurDXcJ60rOVk4OxEE4nGeR0xE2yPtYdNJwdhfJkl0WV+hxxVS7uNod2Io3kZpPoTW589Du9QS3XDgJueFMBgT0W7ngrGG3ny41NC58WUNxlemZGl5SfbffcRdbXruKQ11uMjWfUMiLxkWeWCvGxHNPPSrkvmH94YP3gb+e3XC6eitmmos88yH3cXH5Jv2iLxKg/ADIyIv3iMrM4v4BSPdg73SLR0y/eQ1kS+MB4ebexiIiahWiu1/Yv/V359NM2IcV4y1/T4T7YtbhhoXQ3GVlfsBSnqc3492tCT1W8HGwzYgxc4vZjAmot3OBWODbHllSTY+PybzlzUYryzL/ucdlhxC594ODcZdIgc0HA+Fhwmj9LdL5rPvCx5fY9nXvl3fI95kGIItC1tdY5mHf00y5z7irjbtDivHSDoKzr/ubJGc1l393dLb1iVTT16V3Bduijw5Ez6aiKi2iu132nnE/r5sUoGkfvDbvqT+Ysp9HO1eDMXbLPohivvARmuIPs6gP23BBqUYBmMi2u22XHgLt2O6tCAbXwiD8XIQjF34s/OMcS9edwEuLxh/cZtGP71M7CAkb8NIsbsHMUbLcXVpfO/4vrFOsA5a9fdJrwbigW7p7+yVycevSO6L4yKP3xqIOUpMRLWQZn+zWBCOljh+v7WjNUQfH52mxsdQXAPV/iBFP7RxJW6evzGxdrHDqIHBmIh2O3erJrALb13QYPxFDcZXpmRxcVGOv/jO4PZMCISY36/hEBeWsmCodeYrH6j9qPGWQByWGofizHO/LrKvMxgRtu/X1gOu0K0BuX9kULpznTLx2GXJfUkD8anp8NGbGIiJqBbS7GfaYdNx+7J+gWifFeO3q6Haz0e7A0PxDoh+mOI+uHG1vxz40zY/rkQ3IgzGRNQINoOxFgS+8xqMP3Nd5s9NyM1rY3Lym58vLRgtxuHTGFFGQLRRY7T7grCIc41rJu5K03bf5SrDxbQylz8q7vxhC8RW7D7EWvYfPiAb0ysy/fg1yX16TORRBmIi2h6lBGIrcWHYL8Zvgz8/qQa/DdFpag4MxTVSjQ9U0gfXSnQ6TbENS7Hzi4HBmIh2vSXvUs4IvmPLkvv7G7LwzLhcfu6iHH3hSekc6gkOI3bnFesyCMYIjTZ6jGD89V+rzSHVyL9+BkYbF+CqosypD0rmwkdE9nUFfwBACMa9mlF36/eLK3Wjrevn+MnbZPr8mCw8dVPkb66JPDUbPssmBmIiqoU0+5X+ecT+/muaAtFp8OdVqhrPQbtTS06FbaqyYqs2Ot+ftnZcHW1Hy8bGxi1tv/bbL3rRi9xzFfLggw+GLSKi3Sfz339Jg5/3N17dvjmv3Ceddw5L/4Eh/WXXIuPnrge3SZpfC0Zr0V7UgvsJr6yLLGvtyrpkX/G24DkqlBn7reCCXwe73b2VZWJF5Oy8ZL//3eES5cs89sEg3CPs41BxjATjDwMYHUfdpjtvbrpV2ns65eC+Ubn82DnJnZ8X+TtdF7hdVQQDMRHVQtpAbGEYtd/262g7WiDajqvBb0N0OqrYfKpfDMU1Vmz1Ruf709aOq0spDMZE1Awyn3wPNpDBBCqE3vuHpfXeYek5MCBHb79Nnvnq47Kxpv0IxpiPcIxQjBFnTLuArEWDsfVlX/P24DnLkLnxm8EVsC0Ujy9L9qU/F84tT+bxMAwjCKPg0Ogw/LpAjDCslQvL2t47uk/W55Zl5tkxyT09G9yHOGa0moGYiGqh2oE4bYGkGvw2RKejis2n+sZQXGPFVm90vj8d10YdbRcrcaE4WjMYE1EjyPxlOAJrm88lDbfHet09ejsPD8i+4wdkfmZOpq9oQEUgdqPGuhzaCMIIxKvajgZkrcsZPc5cD0PxIS24B/BEeaE486huf3FINIKujQijWCB2bd1hw5WlMV/72zrb5bYTJ+Tiqedk9dKcyEP6+jGHSwMDMRHVQjmBuFCdpkC0bZLaEJ2OKjaf6htD8TYotoqj8/1pa8fV0XZSsfDrt/3a2gzGRNQIMp94V3A4tW1KdfumezMiL9sjbXcOSve+fjl+1+1y5vFnZHlmUQOvhl4cNo1gjCtDuyCsBSPKGFFF2RKSg3nZVxcfQc5c/agG4p7NUIyR4pelC8U4V9idE4zRYBsJRgjGOcKoUdCHaYRh1FhWq4NHD8nixLzMnB0LDpfG6PDMWvjMmxiGiahWSj2HuFAQThOKIdqOq8FvQ3Q6qth8qn8MxdsgzSqOLuNPWzuuthKd9ktcKLa2TTMYE1EjyXw8DMZIxsEmUmRRw+8d/SIvHJL2g33SOzoo+0b3y9lHn5YcwjCCL0aWtXLhGNMYNfbDMYLzutdvo8o6L/vynw9ex5O5oqH4sIXimxqKV2JDceYbvxaEXH/0FyO/FoLxvWAadWfYj8OkEYYtHGuzb3hABjp75frTlyU3tiTytUmRJ269/zAwEBNRrZRzUS3USUG4UCiGuOm4Gvw2RKfjpFmG6htD8TYptprj5lufP8/vi7bjpq2kDcYo999/v3ueQhiMiageuItwgW1GUSPEajCWewelY6RX9hzeJ339/XLhqbOyvrIaBF2EY90u3hKQXShGv1djGb9f/99Sg9uf0i+oNb8G5/1qQai1NgJvvh2tdR6CMtp4fEwY3jMwLDfOXJGVK7PBYdI4XBrvOQYDMRHVSppA/Mgjj2wJwX7bpuPafoGkaWubuD4T1+crNp8aA0PxNiq2qqPz/WlrR/v8fr/4fX4IjuuzMOy3GYyJqFFk/hSjxuFOjds86hdcdRq3abpvSFpu65O2Pd0ydGCPjIzul3Onn5OVhWW3uAvHGBFG8NVtpHt8ftQ47I8GYRR8sbbtT9mOFUIt2hZu0e3Crhar3egwii6EPv0/32/hWP8f3r9Xetu7ZezsVVm9sSByUcvXJkRurugDbsUwTES1VO1AHNcH/rxon/H7jd+G6HRUsfnUOBiKt1GxVR033++zdlwdbft9fgD2i99vYdjv56HURNRIMp+wUeNg2+gCK0Lv3k6R5w24Q6vbh7uld9+A3HbH7XLt6jUZu3AtWFAXCw6T1oLHuaJfUCMMWzjeEoxRa8N2qmzfCrWFYdQWhq34oRk1+rwg3NnbLYcPH5L5yVmZuHBD1m8uieC84Yen3OHZSRiIiaiWqn3ItF/QD9F+v8/acTX4bRPX5ys2nxoHQ/E2K7a6o/OTpuPqaDtNqUYwBoZjIqoHmT9+ZzDaaptWqxGO+9tF7tZwfHuftA53SftQt+w5OCL7D47KpQuXZOr6+ObyOFQaIRk15J/PGh5/pwpNN6lfrO2KfvHDsDuHWEs4v6OnS0b27ZX2XJuMX7ohS2Ozkpte3QzDMRfRMgzDRFRLacIwlBuIkwpE23G1KTYdVWw+NRaG4h1QbJVH5ydNx9XRdpoSDcbRmsGYiBpN5g9/MQidbpOpX1CjIBxjRPZ4r8iJPpEjPdI60Ckdg93Sv2dQDh07LHPzczJ29YbMT8+Fjw/5I8X5EWP94u9YoYliI8QIwDZSjP5wWdxOaWB4QA6MHpSpsQmZGZuUpYl5yc1oEL66KIL7DZ/RQIzXSMAwTES1Vkog9sOwX0fbaQpE23G1KTYdVWw+NR6G4h1QbJXHzff74tqoC7WLlWoFY2A4JqJ6kflvGo63nG8c1rrtk6UNkd42kds0HB/uFtnfJS39HdLS2y7dQ73SM9gne/btlb6BfpmampLpySlZWV6RVVc0vEJ0v8qmtW5ta5OOrg5p62iX3r5eGR4e1jAtMjs5LfNTc7IwOSu5uVXJ4V7KN5aD84XPahBewLHcyRiGiajW0oZhqGYghkJtk9Q2cX2+YvOp8TAU75Biqz1uvt8Xbdu0X0fbxUpcMPbb9913n3u+tBiOiaheZP4gDMe2adVtXlCHxUaQD2o4Hu0K7j082OFCc0unlq42ae8JAi5GeTu6OqW7t1s6u7r04foE9rxqfW1NlhaXZGVpWdZX1mRNA/Tq4op7jRzugbysrzWl09c1CF/SIHxlKXxkYQzDRFRrpYRhOHXqlAuYSSG40kBstbUhqW3i+nzF5lNjYijeQcVWfdx8v8/ahepoO00pFo45akxEjSrz+78QHM6MfaJg8+nVYcPuUYzlcB7ynk6RIQ3IKD1tIt2tIhqS3e2SEKSN/3wIvgjaGI3GyC8Oi57QIDypZTb5/OA4DMNEtB1KHR1GuKxGGEaBaLtQDX7bxPX5is2nxsVQvIPSrPq4Zfw+axeqrUSni5VC4biUYAwMx0RUbzK/947ggldu86lfUAeb0vg+jPIa7Feh30afddvp2LJWl4lBmIi2S6mjw/7h0ijVCsP+dKEa/LaJ64tKsww1JobiHZZm9UeXSZouVFuJTqcpSeEYhaPGRNQMMv9ZAzI2of75x7oNzLcB5x7fDO9vXApcRdquYl0AgzARbbdyRoetVBKGUSBuulBtik3HSbMMNS6G4l2g2I8gbr7fF9eOq6PtQn0o0QAcnbY+jhoTUbPJ/Me3Bw071BqO9gaHP5cKh06vBdtiH0MwEe2USkeHrUT7ksIxFOqzdlwNSW0T1+crNp8aH0PxLpDmRxC3jN8X146rC7WTSlwYtuLPYzgmomaW+bN3BQG3VKs5BmAi2hXKCcMIlCiFRoPTjBRDoXZcDUltE9cXlWYZamwMxbtEmh9D3DJ+X1y7UB1tl1qSRo7vv/9+97ylYEAmIiIi2n6lBmF45JFHUo0Ml1Ig2i5UQ1LbxPVFpVmGGh9D8S6S5kcRt4zfF9cuVEfblRYLyqWOGvsYkImIiIhqp5wgbOKuLF1pgWi7UA1JbRPXF5VmGWoODMW7TJofR9wyfl9cu1AdbRfqK1aio8eVhGNgQCYiIiKqXCVBGApdSCttgUJ91i5UQ1LbxPVFpVmGmgdD8S6U5kcSt4zfF9eO9kX7rS86r9Jy3333ueeqFAMyERERUXqVBmFz6tQpFyIrLZDUZ7W1ITofktomri8qzTLUXBiKd6k0P5a4Zfy+Ym2/jrbTTJdaGI6JiIiIam+3hGFIO21tv4Y0bRPXF5VmGWo+DMW7WJofTdwyfl+xtl+nbfslqb9YqfSw6jgMy0RERNRMqhV+fdHDpNMWKNZfrO3XkKZt4vqi0ixDzYmheBdL+6OJW87vK9aOqwu146aL9SeVWoTjQhiciYiIqB7UIvAWUmoYhjT9/nRcO66GNG0T1xcn7XLUfBiKd7m0P5645fy+6HybTlMXapfaZyVu3nYHZCIiIqJmFheEIdpnJW5esb64dpra+NPReRDXFyftctScGIrrQNofUdxy0T5/2tql1IXacdNJfUn91seATERERFR9FoQBtV/i+pL6o33+dFy7lBr8NkSnIa4vTtrlqHkxFNeJtD+muOWiff50XDuuLjYvOu2346bj+vxpv82ATERERFQ+f0QY4tpx03F9/rTf9qejdaF5JqkN0WmI64uTdjlqbgzFdaKUH1PcstE+fzquXUpdTrvYtLWttna1rmBNRERE1Mhw5WhAKLRg6NfRdrHpUtql1JDUhug0xPUlKWVZal4MxXWklB9V3LLRvkLT1k5TF+urpG11XJ/VHEkmIiKiZhY9JDpaF+urpG11XF+hGvw2FJuGuL4kpSxLzY2huM6U8uNKWjba70/HtaM1xM0rpy+pXc0a7r///rBFREREVD8eeeSRsLUZ8qpZp2lbnbbPpJkHfhui0yapP04pyxIxFNehUn5kSctG+5Om/f5ifdH5cXXaPqujfRC3nF9DXB/ELeOL60tSyrJERETU+CoNbX5fdL5Nxy2TVIPfl7Rc0ry4vmgd7YO0fVBs2iT1xyllWSJgKK5T1Qpv0Xn+dLF2Ul90fil1sWUgTZ8/D+KWNdFpk9RPREREVI60gc+fTpoXrSFNn18XmlesjvZBoT5IakN02ldoXlQpyxIZhuI6V8qPL234KzQd1y5WQ9plUVsbkpaDQn2Q1IbotEnqj0q7HBERETWXtKEsablovz9drF2oLzovaX5SDeUsC34bik2bpP44pSxLFMVQ3ABK+REmLRvX7/dF59t03DKF+pJqKGcZKLVt4vpMoXm+tMsRERFRY0sbygotFzfP7yulXaivnGUKLQtxfRC3jC+uD5L645SyLFEchuIGUeqPMWn5aH+h6VLa0RoqnQdJbSg0zyT1Q6F5aVXjOYiIiGjnVSN4FXqONOEwukzSvLh2tIZK50GaNhSbNkn9SUpdnigOQ3GDKeXHmbRsXH+0z58upV3O/GKPAb8NxaZNUr8pNj+NajwHERER7ZxqBK9iz5E2JBaaLtZO2wdp50NSG6LTENcHSf1xSlmWqBiG4gZUyo+00LJx86J9/nSaeUnLF2v7fZDmsSauD5L6TbH5aVTjOYiIiGjnVSOEFXuOUsKi35fUBptOs3xcO2k+pJ1n4vpMoXlRpSxLlAZDcYMq9cdaaPm4eX5fdH6h6Wq1odA8SNvnKzY/TjmPISIiosZRTkgr9pi4+cX6ovOT5lXShkLT0XkQ12cKzYtT6vJEaTAUN7BSf7TFlo/Or+Z02nmFljNp+0yheb60yxERERFB2gBXamhM0+dPJ7Uh7TyodDqq2PyoUpcnSouhuMGV8+Mt9Ji4eWn6KpkutixU0hcn7XJEREREpUgb7OKWK7fPny40D0qdhrR9ptC8JOU8higthuImUO6PuNDj4uaV21dsGspZBuL6fMXmJyn3cURERNTYyg1vxR4XNz9NXznLpHkMpO0zheYVUu7jiNJiKG4itQiASfPi+tP0lfs4iOuDpP6otMtFlfs4IiIiagy1DntJy8X1l9tXyXNBUj8UmldIuY8jKhVDcZOpVfBLml9KfyV9kNQPheZFlbIsERERUalKCXvlhM24/kr6oNR+U2x+knIfR1QOhuImVe6PvdjjCs1PmhfXX63n8RWbH1Xq8kRERESFlBr0yg2chR4XN69az+MrNj9JuY8jqgRDcROr9Edf7PGF5ifNK+cxUOy9QJplosp5DBEREVFUOWEvzWMKLVPOvHKfD4rNL6bSxxOVi6GYKg5+aR5faJly50Glr11IuY8jIiIiilNu6EvzuEoCa7nzTJplCqn08USVYiimvEr/KaR5fLFlqvEcUO73Uu7jiIiIiEpRbhCsVkgttky1XqeQSh9PVC0MxXSLSv9JpH18muWq+VxJKv1+iYiIiCpRSThM+9hqhtxKw2yljyeqNoZiSlTpP41SH592+Vo9LxEREdFuVGqIrFW4ZRimRsVQTEVV459IOc+xXY9Jix8VIiIiKkUtQ2A5z71dj4liGKbdjqGYUqvWP5Vyn6eS1+c/cyIiIqpHlQTKch9brRDLMEz1gqGYSlbtfzLlPt9O/dPlR4aIiIgK2akwuNMh2DAMU71hKKay1eKfTjWfk/+0iYiIqJFUM2zWIrgyDFO9Yiimim3HP6Ht+mfKjwMRERFth+0KkNvxOgzDVO8YiqlqGFyJiIiIdl4jBW6i7cBQTDWznf+0+M+YiIiImtF2BlOGYGpUDMW0LXbDPzP+UyciIqJ6shtCKIMwNQOGYtp2/CdHREREtHsxCFOzYSimHcV/fkREREQ7j0GYmhlDMe0a/KdIREREtH0YhIkCDMW06/GfKBEREVH5GH6JCmMoprrEf7ZEREREt2IAJiodQzE1LP7TJiIiokbCwEtUGwzFRGXgx4aIiIjiMLgS1R+GYiIiIiIiImparWFNRERERERE1HQYiomIiIiIiKhpMRQTERERERFR02IoJiIiIiIioqbFUExERERERERNi6GYiIiIiIiImhZDMRERERERETUthmIiIiIiIiJqWgzFRERERERE1LQYiomIiIiIiKhpMRQTERERERFR02IoJiIiIiIioqbFUExERERERERNi6GYiIiIiIiImhZDMRERERERETUthmIiIiIiIiJqWgzFRERERERE1KRE/n+vPlaW9CCCVAAAAABJRU5ErkJggg==;" parent="1" vertex="1">
          <mxGeometry x="-40" width="965" height="832" as="geometry" />
        </mxCell>
        <mxCell id="c_eapogjKyy9JJyIviL_-2" value="&lt;font style=&quot;font-size: 45px;&quot;&gt;&lt;b&gt;1&lt;/b&gt;&lt;/font&gt;" style="rounded=0;whiteSpace=wrap;html=1;fillColor=none;strokeColor=none;" parent="1" vertex="1">
          <mxGeometry x="480" y="150" width="120" height="60" as="geometry" />
        </mxCell>
        <mxCell id="c_eapogjKyy9JJyIviL_-3" value="&lt;b&gt;&lt;font style=&quot;font-size: 45px;&quot;&gt;2&lt;/font&gt;&lt;span style=&quot;color: rgba(0, 0, 0, 0); font-family: monospace; font-size: 0px; text-align: start; text-wrap-mode: nowrap;&quot;&gt;%3CmxGraphModel%3E%3Croot%3E%3CmxCell%20id%3D%220%22%2F%3E%3CmxCell%20id%3D%221%22%20parent%3D%220%22%2F%3E%3CmxCell%20id%3D%222%22%20value%3D%22%26lt%3Bfont%20style%3D%26quot%3Bfont-size%3A%2045px%3B%26quot%3B%26gt%3B1%26lt%3B%2Ffont%26gt%3B%22%20style%3D%22rounded%3D0%3BwhiteSpace%3Dwrap%3Bhtml%3D1%3BfillColor%3Dnone%3BstrokeColor%3Dnone%3B%22%20vertex%3D%221%22%20parent%3D%221%22%3E%3CmxGeometry%20x%3D%22520%22%20y%3D%22140%22%20width%3D%22120%22%20height%3D%2260%22%20as%3D%22geometry%22%2F%3E%3C%2FmxCell%3E%3C%2Froot%3E%3C%2FmxGraphModel%3E&lt;/span&gt;&lt;/b&gt;" style="rounded=0;whiteSpace=wrap;html=1;fillColor=none;strokeColor=none;" parent="1" vertex="1">
          <mxGeometry x="270" y="150" width="120" height="60" as="geometry" />
        </mxCell>
        <mxCell id="c_eapogjKyy9JJyIviL_-4" value="&lt;span style=&quot;font-size: 45px;&quot;&gt;&lt;b&gt;3&lt;/b&gt;&lt;/span&gt;" style="rounded=0;whiteSpace=wrap;html=1;fillColor=none;strokeColor=none;" parent="1" vertex="1">
          <mxGeometry x="280" y="430" width="120" height="60" as="geometry" />
        </mxCell>
        <mxCell id="c_eapogjKyy9JJyIviL_-5" value="&lt;b&gt;&lt;font style=&quot;font-size: 45px;&quot;&gt;5&lt;/font&gt;&lt;span style=&quot;color: rgba(0, 0, 0, 0); font-family: monospace; font-size: 0px; text-align: start; text-wrap-mode: nowrap;&quot;&gt;%3CmxGraphModel%3E%3Croot%3E%3CmxCell%20id%3D%220%22%2F%3E%3CmxCell%20id%3D%221%22%20parent%3D%220%22%2F%3E%3CmxCell%20id%3D%222%22%20value%3D%22%26lt%3Bspan%20style%3D%26quot%3Bfont-size%3A%2045px%3B%26quot%3B%26gt%3B3%26lt%3B%2Fspan%26gt%3B%22%20style%3D%22rounded%3D0%3BwhiteSpace%3Dwrap%3Bhtml%3D1%3BfillColor%3Dnone%3BstrokeColor%3Dnone%3B%22%20vertex%3D%221%22%20parent%3D%221%22%3E%3CmxGeometry%20x%3D%22310%22%20y%3D%22430%22%20width%3D%22120%22%20height%3D%2260%22%20as%3D%22geometry%22%2F%3E%3C%2FmxCell%3E%3C%2Froot%3E%3C%2FmxGraphModel%3E&lt;/span&gt;&lt;/b&gt;" style="rounded=0;whiteSpace=wrap;html=1;fillColor=none;strokeColor=none;" parent="1" vertex="1">
          <mxGeometry x="540" y="290" width="120" height="60" as="geometry" />
        </mxCell>
        <mxCell id="c_eapogjKyy9JJyIviL_-6" value="&lt;span style=&quot;font-size: 45px;&quot;&gt;&lt;b&gt;4&lt;/b&gt;&lt;/span&gt;" style="rounded=0;whiteSpace=wrap;html=1;fillColor=none;strokeColor=none;" parent="1" vertex="1">
          <mxGeometry x="480" y="430" width="120" height="60" as="geometry" />
        </mxCell>
        <mxCell id="c_eapogjKyy9JJyIviL_-7" value="&lt;font style=&quot;font-size: 45px;&quot;&gt;&lt;b&gt;6&lt;br&gt;&lt;/b&gt;&lt;/font&gt;&lt;div&gt;&lt;span style=&quot;color: rgba(0, 0, 0, 0); font-family: monospace; font-size: 0px; text-align: start; text-wrap-mode: nowrap;&quot;&gt;&lt;b&gt;&lt;span style=&quot;background-color: transparent;&quot;&gt;%3CmxGraphModel%3E%3Croot%3E%3CmxCell%20id%3D%220%22%2F%3E%3CmxCell%20id%3D%221%22%20parent%3D%220%22%2F%3E%3CmxCell%20id%3D%222%22%20value%3D%22%26lt%3Bfont%20style%3D%26quot%3Bfont-size%3A%2045px%3B%26quot%3B%26gt%3B5%26lt%3B%2Ffont%26gt%3B%26lt%3Bspan%20style%3D%26quot%3Bcolor%3A%20rgba(0%2C%200%2C%200%2C%200)%3B%20font-family%3A%20monospace%3B%20font-size%3A%200px%3B%20text-align%3A%20start%3B%20text-wrap-mode%3A%20nowrap%3B%26quot%3B%26gt%3B%253CmxGraphModel%253E%253Croot%253E%253CmxCell%2520id%253D%25220%2522%252F%253E%253CmxCell%2520id%253D%25221%2522%2520parent%253D%25220%2522%252F%253E%253CmxCell%2520id%253D%25222%2522%2520value%253D%2522%2526lt%253Bspan%2520style%253D%2526quot%253Bfont-size%253A%252045px%253B%2526quot%253B%2526gt%253B3%2526lt%253B%252Fspan%2526gt%253B%2522%2520style%253D%2522rounded%253D0%253BwhiteSpace%253Dwrap%253Bhtml%253D1%253BfillColor%253Dnone%253BstrokeColor%253Dnone%253B%2522%2520vertex%253D%25221%2522%2520parent%253D%25221%2522%253E%253CmxGeometry%2520x%253D%2522310%2522%2520y%253D%2522430%2522%2520width%253D%2522120%2522%2520height%253D%252260%2522%2520as%253D%2522geometry%2522%252F%253E%253C%252FmxCell%253E%253C%252Froot%253E%253C%252FmxGraphModel%253E%26lt%3B%2Fspan%26gt%3B%22%20style%3D%22rounded%3D0%3BwhiteSpace%3Dwrap%3Bhtml%3D1%3BfillColor%3Dnone%3BstrokeColor%3Dnone%3B%22%20vertex%3D%221%22%20parent%3D%221%22%3E%3CmxGeometry%20x%3D%22550%22%20y%3D%22290%22%20width%3D%22120%22%20height%3D%2260%22%20as%3D%22geometry%22%2F%3E%3C%2FmxCell%3E%3C%2Froot%3E%3C%2FmxGraphModel%3E&lt;/span&gt;%3CmxGraphModel%3E%3Croot%3E%3CmxCell%20id%3D%220%22%2F%3E%3CmxCell%20id%3D%221%22%20parent%3D%220%22%2F%3E%3CmxCell%20id%3D%222%22%20value%3D%22%26lt%3Bspan%20style%3D%26quot%3Bfont-size%3A%2045px%3B%26quot%3B%26gt%3B3%26lt%3B%2Fspan%26gt%3B%22%20style%3D%22rounded%3D0%3BwhiteSpace%3Dwrap%3Bhtml%3D1%3BfillColor%3Dnone%3BstrokeColor%3Dnone%3B%22%20vertex%3D%221%22%20parent%3D%221%22%3E%3CmxGeometry%20x%3D%22310%22%20y%3D%22430%22%20width%3D%22120%22%20height%3D%2260%22%20as%3D%22geometry%22%2F%3E%3C%2FmxCell%3E%3C%2Froot%3E%3C%2FmxGraphModel%3E&lt;/b&gt;&lt;/span&gt;&lt;/div&gt;" style="rounded=0;whiteSpace=wrap;html=1;fillColor=none;strokeColor=none;" parent="1" vertex="1">
          <mxGeometry x="210" y="290" width="120" height="60" as="geometry" />
        </mxCell>
        <mxCell id="c_eapogjKyy9JJyIviL_-8" value="&lt;div&gt;&lt;span style=&quot;text-align: start; color: rgba(0, 0, 0, 0);&quot;&gt;&lt;span style=&quot;background-color: transparent;&quot;&gt;&lt;span style=&quot;font-size: 45px;&quot;&gt;7&lt;/span&gt;&lt;font face=&quot;monospace&quot; color=&quot;rgba(0, 0, 0, 0)&quot;&gt;&lt;span style=&quot;font-size: 0px; text-wrap-mode: nowrap;&quot;&gt;%3CmxGraphModel%3E%3Croot%3E%3CmxCell%20id%3D%220%22%2F%3E%3CmxCell%20id%3D%221%22%20parent%3D%220%22%2F%3E%3CmxCell%20id%3D%222%22%20value%3D%22%26lt%3Bfont%20style%3D%26quot%3Bfont-size%3A%2045px%3B%26quot%3B%26gt%3B5%26lt%3B%2Ffont%26gt%3B%26lt%3Bspan%20style%3D%26quot%3Bcolor%3A%20rgba(0%2C%200%2C%200%2C%200)%3B%20font-family%3A%20monospace%3B%20font-size%3A%200px%3B%20text-align%3A%20start%3B%20text-wrap-mode%3A%20nowrap%3B%26quot%3B%26gt%3B%253CmxGraphModel%253E%253Croot%253E%253CmxCell%2520id%253D%25220%2522%252F%253E%253CmxCell%2520id%253D%25221%2522%2520parent%253D%25220%2522%252F%253E%253CmxCell%2520id%253D%25222%2522%2520value%253D%2522%2526lt%253Bspan%2520style%253D%2526quot%253Bfont-size%253A%252045px%253B%2526quot%253B%2526gt%253B3%2526lt%253B%252Fspan%2526gt%253B%2522%2520style%253D%2522rounded%253D0%253BwhiteSpace%253Dwrap%253Bhtml%253D1%253BfillColor%253Dnone%253BstrokeColor%253Dnone%253B%2522%2520vertex%253D%25221%2522%2520parent%253D%25221%2522%253E%253CmxGeometry%2520x%253D%2522310%2522%2520y%253D%2522430%2522%2520width%253D%2522120%2522%2520height%253D%252260%2522%2520as%253D%2522geometry%2522%252F%253E%253C%252FmxCell%253E%253C%252Froot%253E%253C%252FmxGraphModel%253E%26lt%3B%2Fspan%26gt%3B%22%20style%3D%22rounded%3D0%3BwhiteSpace%3Dwrap%3Bhtml%3D1%3BfillColor%3Dnone%3BstrokeColor%3Dnone%3B%22%20vertex%3D%221%22%20parent%3D%221%22%3E%3CmxGeometry%20x%3D%22550%22%20y%3D%22290%22%20width%3D%22120%22%20height%3D%2260%22%20as%3D%22geometry%22%2F%3E%3C%2FmxCell%3E%3C%2Froot%3E%3C%2FmxGraphModel%3E&lt;/span&gt;&lt;/font&gt;&lt;/span&gt;&lt;font face=&quot;monospace&quot; color=&quot;rgba(0, 0, 0, 0)&quot;&gt;&lt;span style=&quot;font-size: 0px; text-wrap-mode: nowrap;&quot;&gt;%3CmxGraphModel%3E%3Croot%3E%3CmxCell%20id%3D%220%22%2F%3E%3CmxCell%20id%3D%221%22%20parent%3D%220%22%2F%3E%3CmxCell%20id%3D%222%22%20value%3D%22%26lt%3Bspan%20style%3D%26quot%3Bfont-size%3A%2045px%3B%26quot%3B%26gt%3B3%26lt%3B%2Fspan%26gt%3B%22%20style%3D%22rounded%3D0%3BwhiteSpace%3Dwrap%3Bhtml%3D1%3BfillColor%3Dnone%3BstrokeColor%3Dnone%3B%22%20vertex%3D%221%22%20parent%3D%221%22%3E%3CmxGeometry%20x%3D%22310%22%20y%3D%22430%22%20width%3D%22120%22%20height%3D%2260%22%20as%3D%22geometry%22%2F%3E%3C%2FmxCell%3E%3C%2Froot%3E%3C%2FmxGraphModel%3E&lt;/span&gt;&lt;/font&gt;&lt;/span&gt;&lt;/div&gt;" style="rounded=0;whiteSpace=wrap;html=1;fillColor=none;strokeColor=none;" parent="1" vertex="1">
          <mxGeometry x="382.5" y="590" width="120" height="60" as="geometry" />
        </mxCell>
        <mxCell id="c_eapogjKyy9JJyIviL_-9" value="&lt;span style=&quot;font-size: 45px;&quot;&gt;&lt;b&gt;7&lt;/b&gt;&lt;/span&gt;" style="rounded=0;whiteSpace=wrap;html=1;fillColor=none;strokeColor=none;" parent="1" vertex="1">
          <mxGeometry x="370" y="580" width="120" height="60" as="geometry" />
        </mxCell>
      </root>
    </mxGraphModel>
  </diagram>
</mxfile>
